<svg width="226" height="161" viewBox="0 0 226 161" fill="none" xmlns="http://www.w3.org/2000/svg">
<path d="M118.42 129.291C128.319 151.46 156.381 164.478 180.132 158.846C206.836 152.518 226.226 129.281 225.278 104.15C196.887 104.261 168.466 104.372 139.237 104.483C140.524 119.547 136.103 130.047 118.42 129.291Z" fill="#DBDBCE"/>
<path d="M223.441 89.0458C221.695 70.757 204.86 52.5487 184.882 46.5129C162.937 39.8927 139.177 46.9361 124.867 64.8723C138.378 67.3108 139.616 77.4578 139.097 89.4287C167.548 89.2977 195.45 89.1768 223.441 89.0458Z" fill="#DBDBCE"/>
<path d="M88.3724 98.9107C88.4024 105.37 88.3625 111.829 88.4722 118.288C88.572 124.021 91.5458 126.813 97.234 126.208C106.096 125.251 114.947 124.193 123.789 123.054C130.235 122.218 133.329 118.62 133.159 111.809C132.92 102.125 133.189 92.4315 133.169 82.748C133.149 74.9085 130.395 71.7747 122.841 70.9182C114.678 70.0012 106.515 69.0137 98.3417 68.2882C90.5679 67.603 88.5022 69.4672 88.3225 77.4679C88.1629 84.6121 88.4024 91.7665 88.4623 98.9208C88.4323 98.9208 88.4024 98.9208 88.3724 98.9208V98.9107Z" fill="#DBDBCE"/>
<path d="M49.3035 29.1913C47.5771 29.1913 46.0103 28.0023 45.5812 26.2389L43.9346 19.4272C43.6951 18.4296 43.8548 17.3817 44.3837 16.505C44.9126 15.6183 45.7509 15.0036 46.7488 14.7618L75.5888 7.65785C76.5867 7.41602 77.6146 7.57724 78.4828 8.11129C79.3609 8.64535 79.9697 9.49177 80.2092 10.4994L81.8558 17.3111C82.3547 19.3768 81.0973 21.4727 79.0416 21.9866L50.2016 29.0906C49.9022 29.151 49.6028 29.1913 49.3035 29.1913ZM76.4969 11.4063L47.6569 18.5102L49.3035 25.3219L78.1435 18.218L76.4969 11.4063Z" fill="#DBDBCE"/>
<path d="M70.2599 24.0523L59.0432 26.8133C57.0374 27.307 55.0216 26.0676 54.5326 24.0422C54.0436 22.0169 55.2711 19.9814 57.2769 19.4877L68.4936 16.7267C70.4994 16.233 72.5152 17.4724 73.0042 19.4977C73.4832 21.5231 72.2557 23.5586 70.2599 24.0523Z" fill="#DBDBCE"/>
<path d="M107.841 31.5293L98.1215 36.769C97.0936 37.5046 95.926 38.0387 94.7086 38.341L68.034 44.9108C64.7808 45.717 61.4677 46.2712 58.1346 46.5835L22.2892 49.9088C21.1416 50.0196 20.7524 48.4074 21.8202 47.964L55.1509 34.2499C58.2544 32.9702 61.4477 31.9323 64.701 31.1262L91.3755 24.5563C92.6029 24.254 93.8703 24.1835 95.1277 24.3548L106.145 24.4858C106.374 24.4858 106.574 24.647 106.634 24.8788L108.111 30.965C108.151 31.1867 108.041 31.4184 107.841 31.5293Z" fill="#DBDBCE"/>
<path d="M22.1794 51.9543C20.7923 51.9543 19.5948 51.0172 19.2555 49.6266C18.8963 48.1454 19.6547 46.6541 21.0518 46.0797L54.3825 32.3656C57.5658 31.0557 60.8789 29.9775 64.212 29.1512L90.8865 22.5813C92.3235 22.2287 93.7905 22.138 95.2574 22.3294L106.155 22.4503C107.302 22.4503 108.3 23.2565 108.58 24.3951L110.047 30.4813C110.316 31.6099 109.797 32.7787 108.789 33.333L99.1693 38.5123C97.9518 39.3587 96.6146 39.9633 95.1776 40.316L68.5031 46.8858C65.16 47.7121 61.7372 48.2865 58.3043 48.6089L22.4589 51.9342C22.3691 51.9442 22.2693 51.9543 22.1794 51.9543ZM93.7605 26.2996C93.1219 26.2996 92.4832 26.3802 91.8545 26.5313L65.18 33.1012C62.0365 33.8771 58.913 34.8948 55.9093 36.1342L28.9055 47.2486L57.945 44.5481C61.1683 44.2458 64.4016 43.7017 67.5551 42.9258L94.2296 36.3559C95.2175 36.1141 96.1356 35.6909 96.9639 35.0963L97.1734 34.9653L105.855 30.2899L104.937 26.5011L94.8483 26.3701C94.489 26.3197 94.1198 26.2996 93.7605 26.2996Z" fill="#DBDBCE"/>
<path d="M83.0831 38.6432L76.4969 11.4063C76.2474 10.3684 76.876 9.32055 77.9039 9.06864C78.9317 8.81673 79.9696 9.45155 80.219 10.4894L86.8053 37.7262C87.0548 38.7641 86.4261 39.812 85.3983 40.0639C84.3604 40.3058 83.3326 39.671 83.0831 38.6432Z" fill="#DBDBCE"/>
<path d="M50.3412 45.9184L43.9345 19.4172C43.685 18.3793 44.3137 17.3314 45.3416 17.0795C46.3695 16.8275 47.4073 17.4624 47.6568 18.5002L54.0634 45.0014C54.3129 46.0393 53.6842 47.0873 52.6564 47.3392C51.6285 47.5911 50.5907 46.9563 50.3412 45.9184Z" fill="#DBDBCE"/>
<path d="M117.651 12.4543L11.6716 38.5726C10.6438 38.8245 9.60594 38.1897 9.35646 37.1518C9.10698 36.114 9.73567 35.066 10.7635 34.8141L116.743 8.69581C117.771 8.4439 118.809 9.07872 119.058 10.1166C119.308 11.1545 118.679 12.2024 117.651 12.4543Z" fill="#DBDBCE"/>
<path d="M74.3113 9.95537C73.2835 10.2073 72.2456 9.57246 71.9961 8.53459L71.2776 5.57209C71.0282 4.53422 71.6568 3.48626 72.6847 3.23435C73.7126 2.98243 74.7504 3.61725 74.9999 4.65513L75.7184 7.61762C75.9679 8.6555 75.3392 9.69338 74.3113 9.95537Z" fill="#DBDBCE"/>
<path d="M104.788 10.4894L103.9 6.8115C103.381 4.64506 104.688 2.46853 106.834 1.94456L107.442 1.79341C109.588 1.26943 111.743 2.58945 112.262 4.7559L113.151 8.43382C113.669 10.6003 112.362 12.7768 110.217 13.3008L109.608 13.4519C107.472 13.9759 105.317 12.6458 104.788 10.4894Z" fill="#DBDBCE"/>
<path d="M91.3459 9.87476C91.0964 8.83688 91.7251 7.78892 92.753 7.53701L122.501 0.211398C123.529 -0.0405143 124.567 0.594305 124.816 1.63218C125.066 2.67006 124.437 3.71802 123.409 3.96993L93.6611 11.2955C92.6332 11.5475 91.5954 10.9126 91.3459 9.87476Z" fill="#DBDBCE"/>
<path d="M13.1286 38.2199C12.8791 37.1821 13.5078 36.1341 14.5357 35.8822L22.8983 33.8165C23.9261 33.5646 24.964 34.1994 25.2135 35.2373C25.463 36.2752 24.8343 37.3231 23.8064 37.575L15.4438 39.6407C14.4159 39.8926 13.3781 39.2578 13.1286 38.2199Z" fill="#DBDBCE"/>
<path d="M104.079 15.7091C103.83 14.6712 104.459 13.6232 105.486 13.3713L113.849 11.3056C114.877 11.0537 115.915 11.6885 116.164 12.7264C116.414 13.7643 115.785 14.8122 114.757 15.0642L106.395 17.1298C105.367 17.3817 104.339 16.7469 104.079 15.7091Z" fill="#DBDBCE"/>
<path fill-rule="evenodd" clip-rule="evenodd" d="M13.3781 31.0814L13.8172 32.8996C14.3361 35.066 16.4916 36.3961 18.6372 35.862L19.2459 35.7109C21.3914 35.1869 22.6987 33.0104 22.1798 30.8439L21.7399 29.0223L13.3781 31.0814ZM12.9568 27.203L1.77224 29.9572C0.744374 30.2091 0.115682 31.2571 0.365163 32.295C0.614644 33.3328 1.65248 33.9677 2.68035 33.7157L13.3781 31.0814L12.929 29.2216C12.7638 28.5319 12.7837 27.8411 12.9568 27.203ZM20.3482 25.3828C19.3978 24.3448 17.9324 23.8468 16.4717 24.2035L15.8629 24.3547C14.4005 24.7118 13.3275 25.8368 12.9568 27.203L20.3482 25.3828Z" fill="#DBDBCE"/>
<path d="M33.8355 24.0524C33.5861 23.0145 32.5482 22.3797 31.5203 22.6316L20.3482 25.3828C20.7937 25.8694 21.126 26.4746 21.2916 27.166L21.7399 29.0223L32.4285 26.3901C33.4563 26.1382 34.085 25.0903 33.8355 24.0524Z" fill="#DBDBCE"/>
<path d="M21.7399 29.0223L21.2916 27.166C21.126 26.4746 20.7937 25.8694 20.3482 25.3828L12.9568 27.203C12.7837 27.8411 12.7638 28.5319 12.929 29.2216L13.3781 31.0814L21.7399 29.0223Z" fill="#DBDBCE"/>
</svg>
