<svg width="200" height="95" viewBox="0 0 200 95" fill="none" xmlns="http://www.w3.org/2000/svg">
<path d="M139.859 23.0365H158.939C161.064 23.0365 161.064 23.0365 161.617 21.0656C161.728 20.6654 161.849 20.2652 161.97 19.8751C162.463 18.3344 162.886 17.9842 164.557 17.9742C168.625 17.9542 172.693 17.9542 176.761 17.9742C178.352 17.9742 178.855 18.2943 179.207 19.815C179.59 21.4658 179.832 23.1565 180.013 24.8473C180.204 26.568 180.255 28.3088 180.365 30.0396C182.077 30.0996 183.789 30.1596 185.5 30.2097C185.812 30.2097 186.125 30.2297 186.437 30.2097C187.303 30.1796 187.645 30.5798 187.615 31.4302C187.575 32.7208 187.575 34.0214 187.615 35.3119C187.645 36.2223 187.202 36.4825 186.376 36.4725C184.705 36.4524 183.044 36.4424 181.372 36.4725C180.134 36.5025 180.164 36.5925 180.204 37.8631C180.285 40.6043 180.265 43.3555 180.275 46.0967C180.275 46.7971 179.963 47.3673 179.217 47.3973C178.382 47.4373 177.385 47.8075 176.861 46.747C176.68 46.3769 176.579 45.9667 176.489 45.5665C176.046 43.6757 176.046 43.6657 174.173 43.6657C172.139 43.6657 170.105 43.7157 168.071 43.6456C166.924 43.6056 165.947 43.9258 164.98 44.516C159.604 47.7875 154.207 51.0389 148.82 54.2904C146.977 55.4009 146.132 55.2608 144.863 53.5401C142.728 50.6688 140.614 47.7775 138.5 44.8762C138.026 44.2359 137.563 43.7357 136.677 43.5656C135.479 43.3455 135.106 42.7452 134.976 41.4847C134.814 39.964 134.804 39.944 133.304 39.924C131.683 39.904 130.072 39.904 128.451 39.924C126.961 39.944 126.84 40.054 126.83 41.5247C126.81 45.2564 126.82 48.988 126.82 52.7097C126.82 53.1199 126.8 53.5401 126.81 53.9502C126.84 54.6606 126.457 55.0007 125.793 55.0807C125.068 55.1708 124.343 55.2208 123.618 55.3309C122.057 55.551 121.937 55.651 121.997 57.1817C122.108 60.2831 122.198 63.3944 122.45 66.4958C122.863 71.448 123.407 76.3902 124.705 81.2124C125.138 82.8131 125.692 84.3738 126.196 85.9545C126.9 88.1655 126.367 89.286 124.101 89.9363C119.299 91.3269 114.496 92.6875 109.663 93.9881C107.407 94.5984 106.219 93.808 105.696 91.497C103.37 81.2624 102.051 70.9078 101.769 60.4131C101.759 60.153 101.769 59.8929 101.749 59.6328C101.658 58.4422 101.447 58.3022 100.47 58.9925C98.7785 60.183 96.8957 60.5932 94.8618 60.5732C92.4151 60.5532 89.9584 60.5332 87.5117 60.5732C85.0549 60.6132 82.9002 59.9529 81.0979 58.2221C80.1011 57.2617 79.9702 57.3217 79.3057 58.5323C76.2951 64.0347 73.2443 69.5272 70.3244 75.0797C69.6699 76.3302 69.3779 77.8009 69.0557 79.1915C68.7134 80.6722 68.2603 81.0223 66.9211 80.352C63.528 78.6412 60.1449 76.9205 56.8021 75.1097C54.9897 74.1292 54.6776 72.4285 55.8758 70.6077C59.0474 65.7955 62.2493 61.0134 65.431 56.2112C65.9143 55.4809 66.4278 54.7506 66.8607 53.9903C68.1495 51.7493 68.0891 49.5083 66.5486 47.4273C65.3101 45.7666 63.9609 44.1759 62.6117 42.6052C61.6854 41.5247 61.2021 40.3242 61.2021 38.9135C61.192 35.6521 61.1719 32.3906 61.2021 29.1192C61.2222 27.3084 61.8364 26.7481 63.6891 26.6981C63.9509 26.6981 64.2127 26.6981 64.4744 26.6981C65.582 26.6848 66.1928 26.1278 66.307 25.0273C66.458 23.5367 66.9514 23.0565 68.5321 23.0165C70.717 22.9664 72.912 23.0165 75.0969 22.9864C76.7583 22.9864 76.8187 22.8964 76.8489 21.2056C76.859 20.6854 76.8388 20.1652 76.8791 19.655C77.0704 17.3239 78.5908 15.9133 80.9368 16.1234C83.0613 16.3135 85.1656 16.7337 87.27 17.0438C89.4851 17.3739 91.7002 17.7241 93.9154 18.0342C96.6138 18.4144 97.228 19.0047 97.3589 21.6558C97.4092 22.6763 97.8421 23.0465 98.7987 22.9964C99.2115 22.9764 99.6344 22.9964 100.047 22.9964C101.568 22.9664 101.578 22.9564 101.739 21.4458C101.9 19.9551 102.293 19.5549 103.823 19.5349C106.119 19.5049 108.414 19.5049 110.71 19.5349C112.261 19.5549 113.086 18.3944 114.083 17.524C114.133 17.484 113.922 16.9437 113.771 16.9137C113.318 16.8137 112.845 16.8237 112.371 16.8237C107.73 16.8237 103.088 16.8237 98.4463 16.8237C97.9227 16.8237 97.3991 16.8237 96.8856 16.7837C95.6472 16.6636 95.033 16.1434 95.0128 14.9228C94.9524 11.5613 94.9524 8.18985 95.0128 4.81834C95.033 3.52777 95.6774 3.00754 97.0064 2.9175C97.3689 2.88748 97.7314 2.88748 98.1039 2.89749C98.849 2.89749 99.2115 2.60736 99.3122 1.81701C99.5236 0.226297 99.5639 0.216293 101.155 0.206288C105.937 0.186279 110.75 0.186279 115.533 0.186279C117.003 0.186279 117.265 0.446395 117.335 1.88704C117.375 2.76743 117.375 3.64782 117.345 4.52821C117.325 5.45863 117.768 5.8388 118.674 5.81879C119.822 5.79878 120.97 5.75876 122.118 5.8488C122.863 5.90883 123.598 6.20896 124.343 6.36903C124.665 6.43907 125.028 6.53911 125.34 6.47908C126.447 6.289 127.545 5.99887 128.652 5.8388C129.297 5.74876 129.82 5.72875 130.133 4.97841C130.273 4.62826 130.898 4.29811 131.321 4.25809C132.348 4.14805 133.405 4.19807 134.442 4.21808C135.821 4.25809 135.962 4.37815 135.972 5.75876C135.993 9.38038 135.982 13.012 135.982 16.6336C135.982 16.6836 135.972 16.7337 135.982 16.7937C136.083 17.8241 135.56 18.1843 134.583 18.1443C133.646 18.1143 132.71 18.1443 131.764 18.1443C130.958 18.1443 130.213 18.1643 129.931 17.1138C129.861 16.8437 129.216 16.6336 128.803 16.5536C127.797 16.3535 126.77 16.2234 125.743 16.1234C125.481 16.0934 125.038 16.1534 124.947 16.3135C123.85 18.2943 121.806 19.3048 120.295 20.8455C120.074 21.0656 119.802 21.2357 119.601 21.4658C119.278 21.8359 118.986 22.2361 118.684 22.6263C119.158 22.7463 119.631 22.9564 120.114 22.9564C125.068 22.9864 130.022 22.9764 134.976 22.9764C136.617 23.0265 138.228 23.0265 139.849 23.0265L139.859 23.0365ZM91.0961 48.2777C89.5858 48.2877 88.0755 48.2277 86.5652 48.2977C84.0077 48.4078 82.3464 50.2186 82.3665 52.7597C82.3867 55.731 84.5011 58.2722 87.6023 58.5623C90.2906 58.8124 93.0192 58.7624 95.7177 58.6323C97.6408 58.5423 98.6577 57.2917 98.7282 55.3209C98.7785 54.0303 98.7785 52.7297 98.7282 51.4391C98.6577 49.3982 97.5401 48.3177 95.476 48.2677C94.016 48.2477 92.5561 48.2777 91.0961 48.2777ZM108.726 34.0414H118.896C121.957 34.0414 122.037 33.9713 122.007 30.89C121.987 28.739 121.705 28.4389 119.591 28.4389C112.653 28.4389 105.716 28.4389 98.7785 28.4389C95.5566 28.4389 95.4659 28.5289 95.5163 31.7603C95.5465 33.7412 95.8183 34.0314 97.7817 34.0314C101.427 34.0514 105.071 34.0314 108.726 34.0314V34.0414ZM147.944 43.6757C146.283 43.6757 144.611 43.6757 142.95 43.6757C142.225 43.6757 141.973 44.0158 142.386 44.6561C143.262 46.0067 144.108 47.3673 145.074 48.6579C145.95 49.8284 147.239 50.0085 148.357 49.0881C150.079 47.6674 151.72 46.1468 153.371 44.6561C153.542 44.496 153.613 44.2359 153.734 44.0158C153.472 43.9058 153.21 43.7057 152.938 43.7057C151.277 43.6557 149.615 43.6657 147.944 43.6657V43.6757ZM73.0127 37.8831C72.9825 36.6625 72.0058 35.7621 70.7573 35.7921C69.5189 35.8222 68.5925 36.7926 68.6328 38.0031C68.6731 39.1737 69.7202 40.1741 70.8781 40.1441C72.0461 40.1141 73.0429 39.0636 73.0127 37.8831ZM176.579 22.3261C176.6 21.4858 175.844 20.7254 175.019 20.7354C174.254 20.7354 173.529 21.4257 173.468 22.1961C173.408 23.0265 174.113 23.8268 174.958 23.8668C175.784 23.9069 176.559 23.1665 176.579 22.3261Z" fill="#DBDBCE"/>
<path d="M29.8884 26.2079C38.1246 26.3479 46.3608 26.488 54.597 26.6381C56.4396 26.6681 56.6611 26.8782 56.6712 28.709C56.6813 31.5102 56.6913 34.3015 56.6712 37.1027C56.6611 38.8435 56.3792 39.2937 54.6877 39.0836C51.365 38.6734 48.8478 40.0841 46.24 41.8749C35.3557 49.3582 24.3708 56.7015 13.4261 64.1048C10.2746 66.2357 6.7606 66.2157 3.19628 65.8455C2.1592 65.7355 1.50473 65.0152 1.22281 64.0748C1.02143 63.3944 0.940884 62.6541 0.940884 61.9438C0.920747 51.6392 0.920747 41.3246 0.940884 31.02C0.940884 30.3497 0.991228 29.6694 1.15233 29.0291C1.66583 26.9682 3.06538 25.8477 5.18988 25.8277C8.16015 25.8077 11.1304 25.8277 14.1007 25.8977C19.3666 25.9978 24.6326 26.1378 29.8884 26.2579C29.8884 26.2279 29.8884 26.2179 29.8884 26.2079ZM24.4715 39.3737C21.6019 39.3737 18.7424 39.3737 15.8728 39.3737C13.3053 39.3737 12.3789 40.2942 12.3689 42.8353C12.3487 46.8671 12.3588 50.9089 12.3689 54.9507C12.3689 55.2608 12.3588 55.581 12.4091 55.8811C12.6004 57.0316 13.416 57.4618 14.443 56.9116C14.9465 56.6414 15.3996 56.2813 15.8627 55.9511C21.1085 52.1194 26.3543 48.2977 31.6001 44.466C32.6473 43.6957 33.7548 42.9954 34.7113 42.125C35.104 41.7748 35.3557 41.0645 35.3356 40.5243C35.3054 39.7339 34.5704 39.4838 33.8656 39.4138C33.4527 39.3737 33.0299 39.3837 32.617 39.3837C29.8884 39.3737 27.1799 39.3737 24.4715 39.3737Z" fill="#DBDBCE"/>
<path d="M195.942 36.4725C194.743 36.4725 193.545 36.4524 192.347 36.4725C191.511 36.4925 191.078 36.1923 191.099 35.3119C191.129 33.9613 191.119 32.6207 191.109 31.2701C191.099 30.5698 191.421 30.2097 192.136 30.2097C194.633 30.2097 197.14 30.2097 199.637 30.2097C200.523 30.2097 200.936 30.7399 200.926 31.6203C200.916 32.8108 200.905 34.0014 200.926 35.1919C200.936 36.0423 200.513 36.4324 199.687 36.4424C198.439 36.4424 197.19 36.4424 195.942 36.4424V36.4725Z" fill="#DBDBCE"/>
</svg>
