<svg width="145" height="110" viewBox="0 0 145 110" fill="none" xmlns="http://www.w3.org/2000/svg">
<g clip-path="url(#clip0_68_755)">
<path fill-rule="evenodd" clip-rule="evenodd" d="M106.085 75.2271L76.3533 54.5532L106.085 33.8793L93.1942 15.5983L67.9982 33.1181V8.50843H45.5231V33.1181L20.3271 15.5983L7.43604 33.8792L37.1679 54.5532L7.43637 75.2268L20.3271 93.5081L45.5231 75.9883V100.598H67.9982V75.9883L93.1942 93.5081L106.085 75.2271ZM92.9494 92.1199L103.432 77.2535L104.688 75.4733L74.6016 54.5532L104.688 33.633L92.9495 16.9864L66.9982 35.0312V9.50843H46.5231V35.0314L20.5718 16.9864L8.83333 33.6329L38.9196 54.5532L8.8334 75.4734L20.5718 92.1199L46.5231 74.075V99.5979H66.9982V74.0753L92.9494 92.1199Z" fill="white"/>
<path d="M142.923 12.9613C138.189 13.132 133.487 13.6338 128.774 14.0383C127.603 14.139 126.041 14.779 125.319 12.9989C125.121 12.5091 124.602 12.6371 124.186 12.6627C117.397 13.0945 110.58 13.0894 103.818 13.9786C102.84 14.1066 101.597 14.4838 100.451 13.0876C101.982 12.8248 103.113 12.7634 104.33 12.7907C106.212 12.8333 108.359 13.7362 109.829 11.6267C110.772 10.2732 110.776 8.60401 110.948 7.15839C111.188 5.13589 112.025 4.09989 113.791 3.46669C114.281 3.29089 114.884 3.0656 114.827 2.36925C114.781 1.8009 114.227 1.65241 113.83 1.3964C113.545 1.21377 113.071 1.40834 112.912 0.956055H109.621C109.009 2.48701 108.103 3.42402 106.307 2.58088C105.998 2.43752 105.79 2.51773 105.539 2.79593C104.911 3.49741 104.494 3.95994 103.452 2.90005C102.479 1.91184 100.662 2.2054 99.4971 2.84884C98.0688 3.63566 99.3596 4.34737 100.238 4.885C99.3819 5.45847 99.0485 6.08314 99.0588 6.90579C99.0726 7.7916 99.6673 9.01022 98.9574 9.49835C97.6528 10.391 96.3637 11.6966 94.4644 11.1914C93.1702 10.8467 91.7728 11.7308 90.4631 10.6828C89.8993 10.234 89.3596 9.87042 88.9746 9.23551C88.1117 7.8172 86.9532 6.67197 85.4218 5.95513C83.4881 5.05055 81.4995 4.80307 79.7411 6.19578C78.079 7.5134 77.1492 9.19284 77.3554 11.5174C77.5084 13.2651 76.5596 14.9941 76.771 16.9807C75.1691 16.4619 74.6466 17.2231 74.8425 18.6022C73.2165 19.2695 71.7194 19.732 70.011 19.1773C69.1034 18.8838 68.4967 19.1586 67.9982 19.6296C67.5342 20.0666 67.1629 20.6725 66.728 21.1555C66.288 21.6419 66.4565 22.4833 65.7122 22.7564V25.663C66.8569 26.1341 66.7813 27.3407 67.0598 28.2095C67.2935 28.94 67.6046 29.522 67.9982 29.9657C68.6926 30.7542 69.6431 31.1161 70.8583 31.1297C71.0405 31.1314 71.2296 31.1246 71.4255 31.1109C71.8466 31.0819 72.2746 31.1485 72.8315 31.1758C73.4434 33.5123 72.0563 35.7994 72.7714 38.2947C71.5407 38.1069 71.2794 38.8238 70.9855 39.6874C70.1381 42.1895 70.2241 44.8128 69.8408 47.3729C69.7084 48.2604 70.2241 48.7297 71.056 48.8714C72.1216 49.0523 73.1942 49.1957 74.363 49.3715C73.7184 50.8888 72.8985 51.9265 70.9821 51.493C70.6624 53.466 69.8374 55.2325 69.9835 57.313C70.1175 59.2229 70.3272 61.2761 69.0244 63.0477C68.6857 63.5085 68.6995 64.3039 69.2237 64.7323C70.2464 65.5634 70.1897 66.6404 70.0006 67.7088C69.4197 70.9755 69.7583 74.2098 70.0952 77.4458L79.7892 84.1875C80.0007 81.8544 80.5266 79.54 80.6315 77.1898C80.7294 74.9847 80.7827 72.7181 81.5167 70.5625C81.6885 70.0607 81.5356 69.4548 82.45 69.704C82.9536 69.8406 83.1169 69.2893 83.2337 68.8899C83.373 68.4069 83.1701 68.0758 82.6889 67.9085C81.1213 67.3589 81.3637 66.3332 81.9206 65.1726C82.4603 64.0461 83.4967 63.1313 83.373 61.742C84.6036 61.6328 84.2719 62.6398 84.5435 63.2013C85.671 65.543 85.7535 68.1611 86.4256 70.5659C88.0086 76.2341 86.4617 82.0063 87.7026 87.613C87.804 88.067 87.7473 88.5875 87.6425 89.0501C87.6029 89.2259 87.5669 89.3999 87.5359 89.574C87.0186 92.3134 87.3864 94.8479 89.3493 97.0701C89.5143 97.2544 89.4489 97.6521 89.4593 97.9525C89.4902 98.7393 89.5985 99.5363 89.5074 100.309C89.0193 104.411 90.7398 107.497 93.8869 109.956H96.4479C96.5132 109.524 96.8587 109.623 97.1423 109.589C99.4473 109.306 99.9165 108.447 99.0158 106.269C98.5191 105.071 97.6648 104.117 96.9309 103.081C95.4871 101.047 95.4321 98.3553 96.1025 96.5683C97.2145 93.6105 98.1685 90.7193 97.7903 87.6642C97.7663 87.4713 97.7439 87.2767 97.7233 87.0839C97.1131 81.1956 98.2613 75.3346 97.9038 69.5368C97.8591 68.8029 97.7886 68.0707 97.6889 67.3385C98.4607 66.8384 99.0743 67.4238 99.8357 67.3589C100.154 65.1419 100.542 63.0477 98.3971 61.4792C97.5308 60.846 97.0151 60.0506 97.1148 58.8423C97.175 58.1049 97.0117 57.0416 96.5201 56.632C95.4596 55.7479 96.1643 52.9574 93.428 53.9917C93.4692 51.8463 94.8632 51.4247 96.4978 51.3035C96.362 49.3066 96.3568 47.4258 96.0681 45.5876C95.8446 44.1642 95.7845 42.739 95.4063 41.3054C95.3531 41.1057 95.2946 40.9043 95.2276 40.7046C94.5263 38.5951 94.5985 36.2653 95.6178 34.0995C96.5803 34.5722 96.6851 35.7533 97.2128 35.9462C98.5414 36.4275 99.7515 37.0795 101.278 37.2228C101.501 37.245 101.733 37.2553 101.972 37.2518C107.51 37.1785 111.245 33.5977 111.453 28.1634C111.534 26.0453 110.678 23.6593 112.801 22.0293C114.054 21.0667 115.02 20.0051 115.128 18.3137C115.986 18.5595 116.29 19.5921 117.374 19.3292C117.78 17.2897 119.435 17.6225 121.035 17.4962C122.928 17.346 125.2 18.3342 126.558 16.0318C126.654 15.8679 127.127 15.9021 127.428 15.8799C132.409 15.501 137.356 14.7074 142.366 14.6937C143.033 14.692 143.707 14.6288 144.243 14.1544C144.329 13.1627 143.847 12.9272 142.923 12.9613ZM101.498 9.23039C102.386 8.51355 103.282 9.3857 104.208 9.43178C103.504 10.3483 102.598 10.478 101.695 10.5309C101.176 10.1025 101.187 9.48128 101.498 9.23039ZM106.852 20.1997C106.711 20.64 106.725 21.1469 106.754 21.6197C106.89 23.7361 105.783 24.8199 103.811 25.267C102.749 25.5094 101.881 26.0624 101.133 26.8577C100.925 27.0779 100.728 27.3168 100.537 27.5728C98.4589 26.2843 97.7113 24.7413 98.2664 22.7905C98.4727 22.0566 98.8663 21.2647 99.4404 20.4062C100.723 21.7887 102.285 21.1879 103.789 21.0036C104.356 20.6588 103.954 20.087 104.143 19.6723C104.533 18.8155 105.128 18.3342 106.154 18.5578C107.213 18.7882 107.103 19.4095 106.852 20.1997Z" fill="white"/>
</g>
<defs>
<clipPath id="clip0_68_755">
<rect width="144" height="109" fill="white" transform="translate(0.253174 0.956055)"/>
</clipPath>
</defs>
</svg>
