<svg width="124" height="125" viewBox="0 0 124 125" fill="none" xmlns="http://www.w3.org/2000/svg">
<path d="M41.2084 105.129C40.4717 105.129 39.725 104.85 39.1576 104.281L13.6517 78.7167C12.5168 77.5792 12.5168 75.7432 13.6517 74.6157C14.7866 73.4881 16.6184 73.4881 17.7434 74.6157L43.2493 100.18C44.3842 101.318 44.3842 103.154 43.2493 104.281C42.6917 104.84 41.955 105.129 41.2084 105.129Z" fill="#DBDBCE"/>
<path d="M16.4295 32.7967C7.64881 32.7967 0.510742 25.6423 0.510742 16.8415C0.510742 8.04065 7.64881 0.88623 16.4295 0.88623C25.2102 0.88623 32.3483 8.04065 32.3483 16.8415C32.3483 25.6423 25.2102 32.7967 16.4295 32.7967ZM16.4295 6.69358C10.8445 6.69358 6.30482 11.2437 6.30482 16.8415C6.30482 22.4393 10.8445 26.9894 16.4295 26.9894C22.0145 26.9894 26.5542 22.4393 26.5542 16.8415C26.5542 11.2537 22.0145 6.69358 16.4295 6.69358Z" fill="#DBDBCE"/>
<path d="M107.592 124.886C98.8112 124.886 91.6732 117.732 91.6732 108.931C91.6732 100.13 98.8112 92.9757 107.592 92.9757C116.373 92.9757 123.511 100.13 123.511 108.931C123.511 117.732 116.363 124.886 107.592 124.886ZM107.592 98.7831C102.007 98.7831 97.4673 103.333 97.4673 108.931C97.4673 114.529 102.007 119.079 107.592 119.079C113.177 119.079 117.717 114.529 117.717 108.931C117.717 103.333 113.167 98.7831 107.592 98.7831Z" fill="#DBDBCE"/>
<path d="M70.9552 112.084H70.9054C63.1004 111.914 56.7488 105.409 56.7488 97.5856V28.4462C56.7488 23.6466 52.8562 19.7451 48.0676 19.7451H30.1777C28.5748 19.7451 27.2806 18.4479 27.2806 16.8414C27.2806 15.2349 28.5748 13.9378 30.1777 13.9378H48.0676C56.0419 13.9378 62.5329 20.4436 62.5329 28.4362V97.5656C62.5329 102.245 66.316 106.137 70.9851 106.267L93.803 106.027C95.4058 106.027 96.71 107.294 96.7299 108.901C96.7498 110.507 95.4655 111.815 93.8627 111.835L70.9552 112.084Z" fill="#DBDBCE"/>
<path d="M15.4439 105.319C14.7072 105.319 13.9605 105.039 13.3931 104.471C12.2581 103.333 12.2581 101.497 13.3931 100.37L38.899 74.8052C40.0339 73.6776 41.8657 73.6776 42.9906 74.8052C44.1156 75.9327 44.1256 77.7787 42.9906 78.9063L17.4848 104.471C16.9173 105.039 16.1806 105.319 15.4439 105.319Z" fill="#DBDBCE"/>
<path d="M105.461 53.0127C104.724 53.0127 103.978 52.7333 103.41 52.1646L77.9042 26.6002C76.7693 25.4627 76.7693 23.6267 77.9042 22.4992C79.0392 21.3716 80.871 21.3716 81.9959 22.4992L107.502 48.0635C108.637 49.201 108.637 51.037 107.502 52.1646C106.944 52.7333 106.208 53.0127 105.461 53.0127Z" fill="#DBDBCE"/>
<path d="M79.6965 53.2022C78.9598 53.2022 78.2131 52.9229 77.6456 52.3541C76.5107 51.2166 76.5107 49.3806 77.6456 48.253L103.152 22.6887C104.286 21.5611 106.118 21.5611 107.243 22.6887C108.378 23.8262 108.378 25.6622 107.243 26.7898L81.7373 52.3541C81.1699 52.9229 80.4332 53.2022 79.6965 53.2022Z" fill="#DBDBCE"/>
</svg>
