<svg width="106" height="106" viewBox="0 0 106 106" fill="none" xmlns="http://www.w3.org/2000/svg">
<g clip-path="url(#clip0_70_765)">
<path d="M0.172567 105.177C0.172567 104.544 0.172567 104.045 0.172567 103.544C0.172567 69.5077 0.17448 35.4733 0.178305 1.43707C0.178305 0.190349 0.18213 0.196085 1.41576 0.196085C31.5699 0.196085 61.724 0.196085 91.8762 0.196085C95.9232 0.196085 99.9722 0.192261 104.019 0.192261C104.362 0.192261 104.706 0.224767 105.157 0.249625C105.157 0.637792 105.157 0.949472 105.157 1.25924C105.157 27.2951 105.157 53.3309 105.159 79.3668C105.159 87.4934 105.167 95.6181 105.171 103.745C105.171 105.188 105.173 105.175 103.727 105.175C88.6821 105.179 73.6376 105.19 58.593 105.19C40.0102 105.19 21.4273 105.179 2.84447 105.171C1.99337 105.171 1.14034 105.171 0.170654 105.171L0.172567 105.177ZM83.6003 67.7447C90.7152 68.5057 96.9025 71.5136 103.256 74.4525C103.256 73.9955 103.256 73.6819 103.256 73.3703C103.256 69.4848 103.237 65.5974 103.27 61.7119C103.275 61.0254 103.067 60.7367 102.411 60.4957C95.753 58.0501 89.6499 54.6484 84.1454 50.1281C80.5841 47.2025 76.8087 44.5369 73.1422 41.7395C72.7999 41.4775 72.4824 41.1371 72.2643 40.7662C71.1703 38.9018 70.1203 37.0107 69.032 35.1445C68.8886 34.8997 68.5902 34.5536 68.3875 34.5689C67.1787 34.6607 65.9757 34.8423 64.6502 35.0106C65.0136 35.4829 65.2527 35.7946 65.553 36.1847C62.9366 36.307 60.1805 35.6225 58.4343 38.4773C62.2767 39.3244 66.0751 40.16 70.0495 41.0358C64.4533 48.7475 58.9392 56.3483 53.3793 64.0103C54.458 64.6642 55.4181 65.2494 56.4853 65.8976C53.9205 67.8977 51.4954 69.7869 48.9459 71.7736C47.9494 68.5918 47.0007 65.5687 46.0081 62.4022C47.433 62.7922 48.6398 63.123 49.8888 63.4653C51.8836 55.8683 53.8364 48.4282 55.7911 40.9861C55.726 40.9555 55.661 40.9249 55.596 40.8924C48.856 47.1776 42.1179 53.4629 35.3779 59.7481C35.4295 59.8131 35.4811 59.8781 35.5347 59.9431C36.118 59.6563 36.7033 59.3695 37.4722 58.9909C37.3402 60.8113 37.1833 62.4481 37.1241 64.0887C37.1068 64.5476 37.2541 65.1059 37.5257 65.4654C38.9506 67.3412 40.4386 69.1693 41.9075 71.0126C42.7949 72.1274 43.69 73.2345 44.4761 74.2154C45.7537 73.8177 46.886 73.4659 48.0622 73.0987C48.2573 73.6972 48.4103 74.1657 48.5729 74.6629C48.986 74.6284 49.3322 74.6036 49.6765 74.5711C52.6257 74.29 55.573 73.9994 58.5223 73.7278C65.7194 73.0681 72.4192 71.2631 77.5221 65.5648C77.5928 65.7255 77.6789 65.9167 77.765 66.1079C80.2514 65.6605 82.6765 65.2245 85.3255 64.7484C84.6943 65.8421 84.1798 66.7351 83.5965 67.7466L83.6003 67.7447ZM91.2029 87.111C82.1181 86.2849 73.0332 85.4608 63.868 84.629C63.8164 85.4818 63.7724 86.2199 63.7169 87.1358C61.5499 85.6252 59.5321 84.216 57.3575 82.6996C59.6335 81.2961 61.745 79.992 63.9502 78.6306C63.9923 78.948 64.0248 79.0971 64.0306 79.2482C64.1128 81.5122 64.1109 81.495 66.4118 81.1451C74.8463 79.8658 83.2809 78.6019 91.7155 77.3284C92.1956 77.2557 92.6737 77.1544 93.3756 77.0263C92.6756 76.315 92.2109 75.6209 91.5644 75.2231C88.7223 73.4754 85.8266 71.8138 82.952 70.1196C82.4834 69.8442 82.2022 70.0144 81.9536 70.4542C81.638 71.0145 81.2689 71.5461 80.829 72.2344C79.6584 70.1139 78.6027 68.1998 77.5374 66.2704C77.4073 66.3507 77.3098 66.3813 77.2562 66.4483C75.1275 69.0928 72.2299 70.5766 69.1755 71.8482C64.7172 73.7049 59.9911 74.1045 55.2594 74.508C53.0809 74.6935 50.9044 74.9153 48.6475 75.1275C48.9803 76.0759 48.7737 76.7203 47.9437 77.2137C47.4368 77.5139 47.6319 77.9231 48.0355 78.2921C49.4221 79.558 50.78 80.8544 52.1476 82.1413C59.4365 88.9868 66.7178 95.8399 74.0316 102.659C74.3988 103.001 75.0261 103.227 75.5349 103.228C84.4533 103.263 93.3737 103.253 102.292 103.253H103.191V75.4526C102.939 75.5291 102.755 75.5616 102.592 75.6381C99.1001 77.2691 96.2044 82.7168 98.7443 87.0192C99.4826 88.2678 100.466 89.373 101.345 90.5375C101.523 90.7727 101.741 90.9773 102.009 91.2737C94.0776 91.3693 86.5706 92.3369 80.0677 97.9529C80.8844 98.5858 81.5615 99.1097 82.2385 99.6356C82.185 99.7178 82.1295 99.8019 82.076 99.8841C80.3967 99.8841 78.7155 99.9109 77.0401 99.8497C76.824 99.8421 76.4816 99.3984 76.4434 99.1212C76.2138 97.515 76.0532 95.8992 75.883 94.2854C75.86 94.0655 75.904 93.836 75.9308 93.4039C76.7475 94.2662 77.415 94.9718 78.1551 95.7539C81.7145 91.6064 85.9203 88.547 91.2048 87.1091L91.2029 87.111ZM34.4636 59.9087C36.0606 58.4421 37.5372 57.0979 38.9984 55.7383C43.7321 51.3346 48.4811 46.9482 53.1727 42.5005C54.5192 41.2251 56.3725 40.3149 56.5638 38.1752C58.3004 38.3014 59.5513 37.0853 59.0272 35.7372C58.6275 36.2286 58.2698 36.6723 57.8299 37.2134C57.6559 36.7468 57.5966 36.3835 57.4053 36.1158C57.0209 35.5804 56.6154 34.72 56.1258 34.6511C53.1058 34.2247 50.0666 33.8748 47.0218 33.7065C43.2195 33.4962 39.6774 34.7353 36.1869 36.0699C34.0142 36.8998 31.8395 37.1656 29.554 36.5461C29.0892 36.4199 28.4045 36.5843 27.9895 36.8635C24.8241 39.0013 21.7047 41.2098 18.5565 43.3744C18.0401 43.73 17.4816 44.1622 16.8925 44.2559C14.1288 44.7033 11.3422 45.0092 8.57463 45.4414C7.65085 45.5867 6.93936 45.3955 6.19918 44.8429C4.93877 43.8983 3.6076 43.0512 2.23435 42.1142C2.15785 42.3724 2.09282 42.4871 2.09282 42.6038C2.09091 47.5734 2.089 52.5431 2.11577 57.5128C2.11577 57.7824 2.32998 58.0845 2.51359 58.314C3.67072 59.7538 4.85653 61.1688 6.01174 62.6087C6.72706 63.4997 6.991 63.5131 7.6432 62.5819C8.60141 61.2147 9.55006 59.8399 10.5542 58.3905C11.128 60.1057 11.6444 61.7042 12.2086 63.2875C12.3004 63.5418 12.5681 63.8554 12.811 63.9166C14.2914 64.2895 15.7813 64.6241 17.2827 64.9013C17.5486 64.9511 17.9426 64.7388 18.1625 64.5285C19.268 63.4749 20.3333 62.3792 21.4197 61.3046C21.5803 61.1459 21.7831 61.0273 22.0088 60.8571C22.2517 62.6087 22.4544 64.2493 22.7241 65.8784C22.7719 66.1653 23.0301 66.5324 23.2883 66.651C24.6156 67.2628 25.9678 67.8288 27.3334 68.3528C27.5936 68.4522 28.0908 68.4006 28.2438 68.2208C28.8712 67.4827 29.4086 66.6663 30.0207 65.8192C29.4507 65.6413 29.0184 65.5056 28.416 65.3182C29.5042 64.4883 30.4223 63.7866 31.3461 63.0829C29.4144 60.9202 27.5706 58.901 25.7766 56.8378C23.1448 53.8128 20.5896 50.7227 18.5909 47.2235C18.2601 46.6422 18.0344 46.0016 17.7245 45.3075C18.0573 45.2769 18.1836 45.2521 18.3079 45.2578C23.1697 45.4223 26.5282 43.2271 28.4122 38.7718C28.6551 38.1963 29.0395 38.1733 29.5368 38.1523C35.0737 37.9209 40.6107 37.6781 46.1458 37.4314C47.6931 37.3626 47.7199 37.3511 47.7581 35.8405C47.7753 35.177 47.959 34.9838 48.615 35.1961C50.2809 35.7372 51.9582 36.2325 53.6317 36.7526C54.3126 36.9648 54.9878 37.1905 55.8465 37.4677C53.6184 39.2097 51.5585 40.8216 49.4087 42.5005C49.1735 41.6534 48.9879 40.988 48.7871 40.269C48.504 40.2939 48.2497 40.2805 48.0144 40.3436C44.7286 41.2327 41.3949 41.9842 38.1798 43.0818C35.8522 43.8753 33.6374 45.0475 31.4589 46.2101C30.1182 46.9271 29.575 48.1586 29.9212 49.7743C30.7073 53.4495 32.4669 56.6638 34.4579 59.9068L34.4636 59.9087ZM46.9032 103.253C46.3791 102.039 45.8188 101.031 45.5032 99.9511C44.7343 97.3276 44.0859 94.6678 43.3783 92.0271C41.9323 86.6329 40.2703 81.3382 36.732 76.8504C36.1601 76.1237 35.5825 75.7451 34.6453 75.6323C29.9365 75.0625 25.2391 74.4047 20.5361 73.8024C20.1841 73.7565 19.7978 73.8636 19.4459 73.9649C17.7417 74.4583 16.6669 75.4794 16.5923 77.3628C16.577 77.7682 16.3475 78.1678 16.336 78.5732C16.3188 79.1488 16.2576 79.797 16.4813 80.2961C19.771 87.677 23.1162 95.033 26.4077 102.414C26.708 103.087 27.0619 103.272 27.76 103.271C33.7808 103.246 39.8017 103.255 45.8226 103.255C46.1362 103.255 46.448 103.255 46.9032 103.255V103.253ZM16.8753 74.3302C16.6018 74.3455 16.4488 74.3302 16.3054 74.3646C11.8184 75.4449 7.33335 76.5387 2.84065 77.5999C2.20949 77.7491 2.07178 78.0646 2.07369 78.6631C2.09091 86.4991 2.10047 94.3332 2.06604 102.169C2.06222 103.076 2.35676 103.274 3.20978 103.271C9.86946 103.238 16.5292 103.253 23.1869 103.253C24.1585 103.253 25.1282 103.253 26.2528 103.253C26.0635 102.789 25.9583 102.498 25.8301 102.217C22.5634 94.9642 19.3024 87.7095 16.0127 80.4662C15.7029 79.7836 15.6532 79.1736 15.854 78.4604C16.2289 77.1257 16.5234 75.7681 16.8734 74.3302H16.8753ZM85.8763 28.3927C84.1072 29.0676 82.5178 29.7178 80.8978 30.2838C77.327 31.5305 73.737 32.7275 70.1624 33.9666C69.7206 34.1195 69.0894 34.2763 69.5044 35.0087C70.5066 36.7793 71.4878 38.5634 72.5436 40.3015C72.8591 40.8197 73.343 41.2729 73.8327 41.6439C76.3458 43.5388 78.9967 45.2655 81.3932 47.2962C86.8881 51.9542 92.6948 56.0825 99.4042 58.8245C100.632 59.3274 101.87 59.8112 103.25 60.3619C103.25 57.3522 103.264 54.526 103.227 51.6999C103.224 51.4475 102.948 51.1511 102.726 50.956C99.6413 48.2503 96.5467 45.5542 93.4483 42.8657C89.4873 39.4258 86.7791 35.2993 86.2703 29.9396C86.2244 29.4482 86.0274 28.972 85.8744 28.3946L85.8763 28.3927ZM43.1545 75.9058C42.8676 75.9383 42.4124 76.0855 41.9897 76.0224C40.4443 75.791 39.5397 76.4622 39.1093 77.9021C39.0998 77.9326 39.0883 77.9651 39.0692 77.9881C38.6656 78.4738 38.7326 78.927 39.0386 79.4662C39.5875 80.4318 40.0064 81.4739 40.5744 82.4262C40.7771 82.7666 41.2323 83.0993 41.6187 83.1643C43.2367 83.4396 44.8739 83.6117 46.7808 83.8565C45.4783 85.13 44.3633 86.2486 43.2119 87.3328C42.7892 87.7305 42.6591 88.0995 42.8523 88.677C43.2138 89.7612 43.4586 90.8856 43.8105 91.9736C43.9004 92.2489 44.1644 92.5835 44.4226 92.6677C45.2048 92.922 46.0215 93.0711 46.8286 93.249C47.739 93.4517 48.6513 93.641 49.8065 93.8876C49.336 94.3064 49.0721 94.5626 48.7852 94.7921C47.7428 95.6277 46.6775 96.4327 45.6638 97.3008C45.463 97.4729 45.3177 97.928 45.398 98.1689C45.8436 99.4902 46.3332 100.798 46.8764 102.081C47.2264 102.907 47.8595 103.313 48.8349 103.274C50.5505 103.207 52.2719 103.251 53.9894 103.251C60.2341 103.251 66.4768 103.255 72.7214 103.257C73.0485 103.257 73.3736 103.257 73.9685 103.257C64.9983 94.8341 56.2558 86.6272 47.5133 78.4183L47.4521 78.7224C47.1404 78.7453 46.7139 78.9117 46.5322 78.7683C45.4171 77.8887 44.3594 76.9383 43.1526 75.9019L43.1545 75.9058ZM20.58 30.7675C22.1426 31.5267 23.5675 32.1577 24.9255 32.9111C25.5165 33.238 25.8148 33.0965 26.2146 32.6816C27.1613 31.6949 28.1425 30.7446 29.1103 29.779C35.8025 23.1036 42.5004 16.4302 49.1869 9.74728C50.9311 8.0034 51.6152 5.90895 51.2391 3.46395C51.021 2.01836 50.9618 1.95335 49.5254 2.1656C49.2155 2.21149 48.8904 2.43139 48.6551 2.65702C47.7581 3.51367 46.8955 4.40855 46.0158 5.28623C39.5722 11.7264 33.1267 18.1646 26.687 24.6085C24.6635 26.6335 22.6571 28.6737 20.58 30.7714V30.7675ZM85.6143 28.0121C84.6542 25.6812 82.382 23.1209 79.6757 21.224C74.0144 17.2563 68.2306 17.3366 62.3609 20.7192C62.1256 20.855 61.9152 21.1991 61.8751 21.4745C61.7928 22.0271 61.9114 22.6103 61.8119 23.1572C61.3013 25.9413 60.783 28.7235 60.192 31.4903C59.995 32.4101 60.5554 32.7313 61.1559 32.9608C61.7412 33.1845 62.1773 32.8365 62.4029 32.2399C62.533 31.8938 62.7204 31.5687 62.904 31.1863C63.4606 31.542 63.9311 31.8441 64.5087 32.2112C64.656 31.4253 64.7822 30.7599 64.9505 29.8669C65.4115 30.5744 65.7481 31.0888 66.1784 31.7504C69.799 28.2148 71.6982 23.7213 73.8193 19.5643C76.3363 20.9219 78.7767 22.2394 81.3587 23.6314C77.5661 27.6106 72.6755 30.1518 68.0987 33.2725C68.5845 33.4809 69.1104 33.7008 69.5312 33.5727C72.4498 32.6835 75.3608 31.7657 78.245 30.7695C80.7066 29.9186 83.126 28.9472 85.6143 28.0102V28.0121ZM49.7128 22.8532C49.6554 22.7767 49.5961 22.6983 49.5388 22.6218C46.1573 23.5281 42.552 23.9431 39.8323 26.4614C37.0342 29.0504 35.6055 32.498 34.1098 36.2191C37.9618 35.0661 41.4332 33.5057 45.2603 33.2744C49.0797 33.043 52.8265 33.6109 56.6938 34.1884C56.3572 33.2113 56.0799 32.4082 55.7586 31.477C56.2501 31.5171 56.6307 31.6108 56.9903 31.5592C57.2408 31.5228 57.61 31.3297 57.6712 31.1309C58.1359 29.5648 58.4324 27.9682 58.0613 26.3314C57.8643 25.4575 57.4837 24.6716 56.5523 24.3982C54.9476 23.9278 53.4424 24.2911 51.964 24.9909C52.1303 25.3982 52.2566 25.7137 52.4689 26.2338C50.935 25.752 49.5751 25.3256 48.0928 24.859C48.6991 24.1094 49.2079 23.4842 49.7147 22.857L49.7128 22.8532ZM47.7046 2.52126C47.6204 2.39123 47.5363 2.2593 47.4521 2.12927C45.6179 2.12927 43.7837 2.09485 41.9515 2.15413C41.5001 2.16942 40.9493 2.37976 40.6299 2.68953C38.5949 4.65904 36.6115 6.68401 34.6071 8.68795C29.269 14.019 23.9233 19.3444 18.5928 24.6831C17.3669 25.9107 16.1849 27.1861 14.8805 28.5456C16.3436 29.1556 17.6518 29.7254 18.983 30.2321C19.1934 30.3125 19.5931 30.1824 19.771 30.0103C22.0336 27.8228 24.2848 25.6239 26.511 23.4C32.8417 17.0804 39.1572 10.7435 45.4917 4.42959C46.1802 3.74312 46.9625 3.15418 47.7027 2.51935L47.7046 2.52126ZM9.83313 24.7863C10.6345 26.2032 11.2848 27.5647 13.0195 27.9261C13.5608 28.0389 13.8955 28.0217 14.2742 27.6374C15.6551 26.2357 17.0609 24.8552 18.4513 23.4631C24.4779 17.4341 30.4988 11.3994 36.535 5.37992C37.5563 4.36266 38.6369 3.40467 39.6908 2.41992C39.6238 2.32622 39.5588 2.23061 39.4919 2.13692C37.2732 2.13692 35.0527 2.1178 32.8341 2.16178C32.5472 2.16751 32.2201 2.45625 31.9868 2.68953C26.3523 8.30552 20.7311 13.933 15.1023 19.5547C13.3523 21.3024 11.5927 23.0386 9.83121 24.7863H9.83313ZM51.5623 9.1373C51.4858 9.10862 51.4112 9.08185 51.3347 9.05317C43.0264 17.3787 34.718 25.7042 26.2739 34.1654C26.8649 34.5785 27.4233 35.2496 28.087 35.3777C29.4144 35.634 30.801 35.5843 32.1609 35.6799C32.901 35.7315 33.2855 35.4294 33.5915 34.7276C34.3374 33.0086 35.1177 31.2915 36.0339 29.6585C37.7514 26.5971 40.0867 24.2165 43.5887 23.1744C44.2504 22.9774 44.8873 22.5071 45.3903 22.0137C45.8035 21.6083 45.9086 20.8932 46.316 20.4783C46.9089 19.874 47.6587 19.4266 48.3243 18.8893C48.5155 18.7344 48.7297 18.524 48.789 18.3003C49.2155 16.7094 49.5483 15.0898 50.0207 13.5123C50.4645 12.0342 51.044 10.5944 51.5642 9.13921L51.5623 9.1373ZM2.09282 22.117C3.3953 21.9889 4.47592 21.8435 5.27922 20.8244C5.86447 20.0824 6.60656 19.4648 7.27789 18.7917C12.5242 13.5505 17.7704 8.31125 23.0148 3.07005C23.25 2.83485 23.4604 2.57289 23.8315 2.15795C21.5555 2.15795 19.4994 2.14265 17.4434 2.17898C17.2139 2.18281 16.9595 2.45051 16.7644 2.64364C14.672 4.73553 12.5892 6.83698 10.5044 8.93461C7.85932 11.5963 5.21228 14.2561 2.57671 16.9293C2.36632 17.1435 2.12151 17.4456 2.11386 17.7133C2.06796 19.1398 2.09282 20.57 2.09282 22.1189V22.117ZM13.3542 74.6151C14.1594 74.4219 15.087 74.2059 16.0089 73.9745C16.1868 73.9305 16.4966 73.8426 16.5005 73.7622C16.5559 72.8081 17.3669 72.9668 17.9139 72.8157C18.5795 72.6302 19.5205 72.2287 19.9087 72.5117C20.5858 73.0089 21.0716 72.7335 21.6396 72.6111C22.4467 72.4371 23.2386 72.0796 24.0457 72.0451C26.075 71.9572 26.6353 70.3127 27.6624 68.9895C21.0773 65.7714 14.1556 64.4443 7.15548 63.6967C9.22683 67.3451 11.2561 70.9208 13.3542 74.617V74.6151ZM30.8737 2.12927C29.3436 2.12927 27.8307 2.16178 26.3179 2.11397C25.6274 2.09294 25.1378 2.28798 24.6443 2.78514C19.1475 8.31125 13.6258 13.8106 8.11561 19.3233C7.3257 20.113 6.57214 20.9372 5.93142 21.6083C7.0981 22.3828 8.19403 23.1113 9.26126 23.8207C16.3819 16.6769 23.5886 9.44324 30.8737 2.12927ZM92.3256 40.6266C92.7426 40.2365 93.0333 39.9975 93.2838 39.7241C95.9003 36.8577 98.3924 33.8671 101.164 31.1614C102.847 29.517 103.528 27.7942 103.279 25.5225C103.143 24.2815 103.254 23.0157 103.254 21.7613C103.111 21.6638 102.965 21.5644 102.822 21.4668C102.61 21.8187 102.455 22.2279 102.174 22.5128C100.724 23.9871 99.2435 25.4307 97.7727 26.8859C95.0836 29.5495 92.4098 32.2284 89.6958 34.8653C89.0302 35.5116 88.9288 36.0833 89.4835 36.8138C90.4187 38.0471 91.3349 39.2976 92.3237 40.6285L92.3256 40.6266ZM2.17698 63.3296V77.3093C5.68086 76.4641 9.07 75.6457 12.5318 74.8082C12.3941 74.3703 12.3214 74.028 12.1837 73.7144C10.6575 70.2649 8.676 67.0812 6.48989 64.0198C6.36749 63.8497 6.18579 63.6183 6.01557 63.6011C4.75708 63.4844 3.49476 63.4156 2.17889 63.3257L2.17698 63.3296ZM102.137 2.36638C102.097 2.28989 102.057 2.2134 102.017 2.13692C99.2225 2.13692 96.4282 2.12353 93.6357 2.15795C93.3718 2.16178 93.0734 2.41609 92.8592 2.62452C91.6524 3.80049 90.4761 5.00706 89.2712 6.18685C87.6876 7.73761 86.0886 9.27115 84.4629 10.8429C85.1954 11.5103 85.7501 12.0266 86.32 12.5256C86.4272 12.6212 86.6567 12.7474 86.716 12.7035C87.4294 12.1834 87.7182 12.8182 88.1255 13.1777C88.596 13.5945 89.0914 13.9827 89.6365 14.434C93.8327 10.3821 97.985 6.37424 102.137 2.36446V2.36638ZM25.176 33.4828C23.5886 32.7657 22.0451 32.0391 20.4691 31.389C20.2549 31.301 19.8074 31.5133 19.5989 31.7198C18.4207 32.8786 17.298 34.0928 16.1256 35.2592C13.3083 38.0605 10.4719 40.8446 7.65085 43.6401C7.46915 43.8218 7.33527 44.0513 7.00821 44.4834C7.58008 44.4834 7.88036 44.5159 8.17299 44.4777C9.33967 44.3266 10.4968 44.0818 11.6673 44.0073C14.0542 43.8524 16.2403 43.3571 17.6174 41.139C17.6633 41.0645 17.7781 41.0339 17.8431 40.967C20.2453 38.5194 22.6437 36.0699 25.176 33.4847V33.4828ZM19.048 30.7446C17.6863 30.2283 16.3838 29.8038 15.1444 29.2359C14.5324 28.9548 14.2073 29.0562 13.7616 29.5036C10.3342 32.9627 6.87815 36.3931 3.43547 39.8369C3.08546 40.1868 2.75649 40.5578 2.35676 40.9823C3.51388 41.7834 4.59451 42.5082 5.64644 43.2711C6.09781 43.6 6.38661 43.5388 6.77679 43.1449C10.6728 39.2173 14.5879 35.3108 18.4953 31.3947C18.6694 31.2207 18.8147 31.018 19.048 30.7427V30.7446ZM95.6822 17.4666C98.0998 15.1682 100.525 12.8794 102.921 10.558C103.134 10.3534 103.233 9.94423 103.239 9.62681C103.27 7.9097 103.252 6.19068 103.252 4.47165C103.252 3.95537 103.252 3.43718 103.252 2.63981C98.8591 6.89052 94.7011 10.9137 90.478 15C92.3065 15.8662 93.9666 16.6521 95.6842 17.4647L95.6822 17.4666ZM2.08708 39.4296C5.82048 35.7391 9.48694 32.1118 13.1075 28.5322C12.4132 28.1632 11.5621 27.8859 10.952 27.3391C10.3438 26.7941 9.97848 25.9814 9.40661 25.1363C6.97378 27.6048 4.64232 29.953 2.34528 32.3355C2.14064 32.5478 2.09856 32.9799 2.09473 33.3107C2.07178 34.9647 2.08517 36.6206 2.08708 38.2766C2.08708 38.6724 2.08708 39.0682 2.08708 39.4296ZM44.1204 74.5233C41.8099 71.6206 39.4938 68.7103 37.0648 65.6605C36.9481 66.3775 36.8697 66.8651 36.7855 67.3776C35.4371 67.0697 34.1863 66.7848 32.8551 66.4808C32.6811 68.0315 32.4879 69.414 32.3999 70.8022C32.3789 71.1388 32.6256 71.569 32.8781 71.831C33.6928 72.6761 34.5401 73.4965 35.4352 74.2556C35.7451 74.5175 36.2519 74.7374 36.6344 74.6935C38.1033 74.5214 39.5607 74.2326 41.1291 73.9707C40.8747 74.5558 40.6662 75.0319 40.452 75.5253C42.2001 75.8083 43.1182 75.5578 44.1185 74.5252L44.1204 74.5233ZM60.5362 7.33032C59.316 5.96696 58.178 4.69346 57.0974 3.4869C56.1506 4.37413 55.3091 5.23843 54.3872 6.0052C52.97 7.18117 51.9257 8.47952 51.5489 10.4031C51.197 12.1929 50.3593 13.8852 49.7836 15.6348C49.533 16.3939 49.4011 17.1932 49.2155 17.9733C49.2863 18.0039 49.359 18.0345 49.4298 18.0651C53.1899 14.432 56.9482 10.797 60.5362 7.33032ZM15.6092 2.12927C13.9777 2.12927 12.3654 2.11206 10.7512 2.14839C10.5102 2.15413 10.2348 2.37402 10.0435 2.56333C7.51505 5.07398 4.99806 7.59611 2.48299 10.1201C2.3319 10.2712 2.13107 10.4739 2.12916 10.6555C2.10047 12.2503 2.11386 13.845 2.11386 15.4378C2.22288 15.4531 2.3319 15.4703 2.44091 15.4856C6.80356 11.0628 11.1643 6.64003 15.6092 2.12927ZM103.243 30.5649C103.168 30.54 103.092 30.5151 103.017 30.4922C99.7561 34.0717 96.4932 37.6532 93.1863 41.2844C94.4448 42.4221 95.5923 43.4604 96.7265 44.4872C96.8853 44.4031 96.9885 44.3782 97.0497 44.3132C99.0178 42.2366 100.984 40.16 102.941 38.072C103.082 37.9209 103.229 37.6953 103.231 37.5041C103.25 35.1923 103.245 32.8805 103.245 30.5668L103.243 30.5649ZM95.3265 17.8051C93.6836 17.044 92.1898 16.3691 90.7133 15.6558C90.2371 15.4264 89.931 15.4952 89.5504 15.8719C87.5116 17.8835 85.4402 19.8606 83.3842 21.8569C83.1891 22.0462 83.0265 22.2699 82.885 22.4363C84.002 23.8111 85.0596 25.1133 86.1804 26.4958C89.1717 23.6563 92.1783 20.7995 95.3284 17.8089L95.3265 17.8051ZM61.5021 7.77585C59.1917 10.015 56.9061 12.2216 54.6359 14.4454C54.4809 14.5984 54.3184 14.9407 54.3872 15.0936C55.0949 16.6693 55.8504 18.2238 56.69 19.9907C59.7846 16.7802 62.6631 13.7953 65.5052 10.8487C64.2543 9.88877 62.9193 8.86578 61.5002 7.77585H61.5021ZM57.2121 20.8014C58.1627 20.7058 58.8493 20.6924 59.513 20.5586C60.2666 20.4075 61.024 20.2106 61.7335 19.9237C63.3497 19.2717 64.9429 18.5623 66.5322 17.8491C66.9282 17.6712 67.3336 17.4513 67.6377 17.153C68.9536 15.8623 70.235 14.5391 71.5241 13.2236C72.1725 12.562 72.8132 11.8927 73.5898 11.0896C71.3807 11.189 69.4145 11.2521 67.4522 11.3841C67.0276 11.4128 66.515 11.5791 66.2186 11.8659C63.7437 14.2447 61.3089 16.6654 58.8685 19.0786C58.3635 19.5796 57.8815 20.1035 57.2102 20.8014H57.2121ZM78.3177 7.91352C79.8497 8.60955 81.4238 9.28262 82.9539 10.0437C83.5028 10.3171 83.8203 10.2903 84.2544 9.84862C86.5285 7.53109 88.8409 5.2499 91.1341 2.94958C91.3406 2.74307 91.5166 2.50596 91.8035 2.17134C89.9081 2.17134 88.1734 2.34725 86.4922 2.12736C84.2774 1.83862 82.9443 2.96105 81.6495 4.44871C80.5937 5.66101 79.4232 6.77197 78.3177 7.91161V7.91352ZM86.8364 28.0924C87.3223 30.2838 87.7966 32.4292 88.3206 34.7964C92.5494 30.4692 96.5391 26.3849 100.209 22.6294C96.1011 24.3083 91.5223 26.1784 86.8384 28.0924H86.8364ZM87.5097 16.0593C86.7313 15.8623 85.84 15.6386 84.8416 15.3881C85.2432 14.7227 85.5779 14.1663 85.9681 13.5199C85.2681 13.1547 84.6025 12.8564 83.9886 12.4759C83.4817 12.1604 83.1547 12.2771 82.7664 12.6767C81.5711 13.9119 80.3393 15.1147 79.1287 16.3327C78.4248 17.0402 77.7305 17.7573 77.063 18.438C78.8265 19.5681 80.4713 20.6217 82.2864 21.7862C83.9809 19.9295 85.6946 18.0498 87.5078 16.0612L87.5097 16.0593ZM68.8943 16.9083C68.9861 17.0383 69.0779 17.1702 69.1697 17.3003C70.2427 17.3003 71.3271 17.2047 72.3867 17.327C73.4846 17.4532 74.5537 17.8223 75.6477 18.0097C75.8887 18.0517 76.2387 17.8357 76.4414 17.6368C77.5814 16.5258 78.6945 15.3843 79.8134 14.2523C80.5784 13.4779 81.3377 12.6996 82.1984 11.822C79.8325 11.1623 77.589 11.0093 75.3264 11.0322C75.1619 11.0322 74.9687 11.1565 74.8387 11.2789C72.8515 13.1509 70.8739 15.0305 68.8924 16.9102L68.8943 16.9083ZM86.8671 27.4175C86.8823 27.4691 86.8996 27.5226 86.9149 27.5743C91.8035 25.5608 96.6921 23.5473 101.841 21.4267C99.9034 20.354 98.2528 19.4113 96.562 18.5451C96.3555 18.4399 95.8601 18.6579 95.6325 18.8701C93.4942 20.8626 91.3751 22.8742 89.275 24.9049C88.4411 25.7099 87.6684 26.578 86.8671 27.4175ZM21.1557 73.2211C21.1557 73.2938 21.1596 73.3664 21.1596 73.4391C25.8569 74.0548 30.5562 74.6724 35.2535 75.2881L35.4046 74.986C33.5035 72.4677 30.9387 70.7659 28.1291 69.2553C27.6318 69.8997 27.1154 70.4657 26.7214 71.1082C26.2853 71.8157 25.7096 72.1675 24.9044 72.3243C23.644 72.571 22.4047 72.9171 21.1557 73.2211ZM102.124 21.0806C103.107 20.528 103.323 19.7861 103.27 18.8415C103.197 17.6062 103.252 16.3652 103.252 15.1262C103.252 14.063 103.252 12.9998 103.252 11.6403C100.917 13.8527 98.796 15.8604 96.5888 17.9504C98.5263 19.0461 100.339 20.071 102.124 21.0787V21.0806ZM2.09282 30.8326C4.37073 28.6106 6.56257 26.4709 8.94376 24.1496C7.9779 23.5434 7.07324 22.9316 6.12076 22.4076C5.85874 22.2623 5.32321 22.2279 5.1396 22.3942C4.12592 23.3063 3.17918 24.293 2.21905 25.2625C2.13872 25.3428 2.09856 25.4957 2.09856 25.6162C2.09091 27.3544 2.09282 29.0925 2.09282 30.8326ZM82.1888 2.24209C80.0601 2.24209 78.1704 2.24209 76.2808 2.24591C76.1928 2.24591 76.0857 2.2918 76.0207 2.35299C74.6742 3.63413 73.3335 4.92101 71.8933 6.29967C73.4827 6.6974 74.9267 7.02246 76.3458 7.43357C76.889 7.59037 77.2352 7.4852 77.6005 7.0913C78.7021 5.90577 79.8306 4.74318 80.9456 3.57103C81.3071 3.19051 81.6629 2.80426 82.1869 2.24209H82.1888ZM100.875 48.084C101.401 47.495 101.848 47.0074 102.281 46.5045C102.608 46.124 103.168 45.7397 103.189 45.3362C103.285 43.3935 103.233 41.4412 103.233 39.4927C103.161 39.4678 103.088 39.443 103.015 39.42C101.223 41.3207 99.4309 43.2214 97.5566 45.2081C98.6582 46.1642 99.6796 47.0476 100.875 48.084ZM61.8789 7.50815C63.1316 8.44701 64.3079 9.35911 65.5243 10.21C65.7385 10.3592 66.2549 10.3917 66.4194 10.2444C67.7028 9.08376 68.9345 7.86572 70.2714 6.57693C68.3531 5.9746 66.6661 5.43347 64.9697 4.92866C64.7707 4.86938 64.4399 4.93631 64.2945 5.07398C63.5161 5.81207 62.7778 6.59414 61.8789 7.50815ZM2.19228 2.18855V8.61528C4.35352 6.50618 6.54154 4.37031 8.77546 2.18855H2.19228ZM76.6251 8.21564C76.5887 8.10474 76.5505 7.99575 76.5141 7.88484C74.942 7.52536 73.3717 7.16014 71.7957 6.81595C71.6293 6.77962 71.3711 6.8083 71.2659 6.91538C70.0055 8.18122 68.7662 9.4681 67.5 10.7703C67.6033 10.8104 67.6856 10.8735 67.7659 10.8716C69.7952 10.7894 71.8244 10.7053 73.8518 10.6001C74.0201 10.5905 74.2075 10.4701 74.3395 10.3496C75.1084 9.64593 75.8638 8.92696 76.6251 8.21373V8.21564ZM74.2152 2.43904C74.1846 2.36064 74.1521 2.28224 74.1215 2.20384C72.5149 2.20384 70.8911 2.35682 69.3074 2.1656C67.3088 1.92276 66.2396 3.12168 64.9735 4.44488C66.2836 4.85408 67.5039 5.1715 68.6763 5.61894C70.0419 6.14096 71.0938 6.02814 72.0023 4.72023C72.599 3.86168 73.4674 3.19242 74.2152 2.43904ZM1.4674 103.837C1.4674 103.332 1.4674 102.986 1.4674 102.64C1.4674 99.3621 1.47505 96.0866 1.45019 92.8092C1.44827 92.5415 1.20729 92.2738 1.07914 92.0061C0.964385 92.2623 0.752086 92.5185 0.750173 92.7748C0.727222 96.4327 0.738697 100.091 0.723397 103.749C0.721484 104.294 0.849629 104.559 1.46549 104.556C5.18741 104.534 8.91125 104.552 12.6332 104.531C12.855 104.531 13.075 104.32 13.2969 104.206C13.0578 104.081 12.8206 103.85 12.5815 103.848C9.59023 103.823 6.59891 103.833 3.60951 103.833C2.94584 103.833 2.28026 103.833 1.47122 103.833L1.4674 103.837ZM1.4674 1.48487C1.93025 1.48487 2.27261 1.48487 2.61496 1.48487C5.57376 1.48487 8.53256 1.48487 11.4914 1.48487C11.7132 1.48487 11.9523 1.52694 12.155 1.46384C12.3233 1.4103 12.4496 1.22865 12.593 1.10244C12.461 0.997276 12.3444 0.84048 12.1952 0.800325C11.9867 0.744872 11.7534 0.773554 11.5315 0.773554C8.47709 0.773554 5.42266 0.773554 2.36824 0.773554C1.86713 0.773554 1.36603 0.773554 0.73296 0.773554C0.73296 2.13118 0.73296 3.36261 0.73296 4.59212C0.73296 7.04158 0.725309 9.49105 0.753998 11.9405C0.755911 12.1451 1.00646 12.3478 1.14226 12.5505C1.24936 12.3497 1.40428 12.1604 1.45401 11.9482C1.50948 11.7053 1.46931 11.4414 1.46931 11.1871C1.46931 8.00722 1.46931 4.82923 1.46931 1.48487H1.4674ZM103.901 103.84C103.358 103.84 102.916 103.84 102.476 103.84C99.4788 103.838 96.4836 103.827 93.4866 103.85C93.2456 103.85 93.0065 104.087 92.7655 104.215C92.9912 104.326 93.215 104.531 93.4426 104.533C96.8853 104.554 100.328 104.538 103.771 104.554C104.325 104.556 104.545 104.418 104.541 103.8C104.526 100.488 104.564 97.1746 104.582 93.8628C104.583 93.3847 104.61 92.9048 104.561 92.4306C104.545 92.2776 104.327 92.1476 104.201 92.0061C104.103 92.1418 103.935 92.2719 103.92 92.4172C103.878 92.7958 103.901 93.1801 103.901 93.5626C103.901 96.9375 103.901 100.312 103.901 103.842V103.84ZM17.8986 42.5349L17.9942 42.6688C21.2074 40.4143 24.4205 38.1599 27.6337 35.9055C26.9777 35.3357 26.4594 34.8844 25.9487 34.4408C23.2462 37.158 20.5724 39.8464 17.8986 42.5349ZM103.901 1.48487C103.901 1.96291 103.901 2.33769 103.901 2.71248C103.901 5.7375 103.893 8.76443 103.916 11.7895C103.918 12.0419 104.126 12.2943 104.239 12.5467C104.354 12.2904 104.564 12.0361 104.566 11.778C104.591 9.10288 104.582 6.42778 104.582 3.75077C104.582 2.80043 104.582 1.85201 104.582 0.832831C104.119 0.806061 103.744 0.763994 103.369 0.763994C100.183 0.763994 96.9962 0.758257 93.8117 0.790764C93.4407 0.794588 93.0696 1.03361 92.7005 1.16172C93.0601 1.2688 93.4177 1.46575 93.7773 1.46767C97.0899 1.49061 100.401 1.48105 103.901 1.48105V1.48487ZM56.3151 21.0978C55.5386 19.7077 54.785 18.3596 53.9913 16.9389C53.2454 19.1321 53.6241 21.8646 50.4453 22.4822C50.7571 22.7748 51.1301 23.1132 51.3557 23.0329C53.0178 22.4382 54.6512 21.7594 56.317 21.0978H56.3151ZM63.3516 4.36457C61.6838 3.74121 60.0045 3.08343 58.2966 2.5117C58.0479 2.42948 57.6616 2.76028 57.5564 2.80426C58.7499 4.17909 59.8707 5.47171 61.0794 6.86758C61.921 5.94018 62.6133 5.17532 63.3497 4.36457H63.3516ZM52.0481 6.61517C52.1571 6.61517 52.2432 6.64194 52.2738 6.61135C53.517 5.38566 54.7621 4.16189 55.9709 2.90178C56.0301 2.84059 55.7547 2.24973 55.6228 2.244C54.2954 2.19237 52.9642 2.2134 51.5776 2.2134C51.7344 3.68767 51.8913 5.15429 52.0481 6.61709V6.61517ZM83.2427 10.9443C83.2331 10.8047 83.2254 10.6651 83.2159 10.5255C81.5175 9.83524 79.821 9.1373 78.1169 8.46231C77.9658 8.40303 77.6961 8.40303 77.5967 8.49864C76.9521 9.11435 76.3382 9.76449 75.7644 10.3534C78.004 10.6995 80.1519 11.0533 82.3093 11.342C82.5981 11.3803 82.929 11.0858 83.2408 10.9462L83.2427 10.9443ZM47.5956 21.9258C48.9669 21.6064 50.1355 21.3521 51.2907 21.05C51.5107 20.9926 51.7631 20.7919 51.8645 20.5873C52.4918 19.3348 52.7902 18.0001 52.8686 16.3365C52.4478 16.7132 52.2049 16.8968 52.0022 17.1167C50.5792 18.6598 49.1639 20.2106 47.5937 21.9238L47.5956 21.9258ZM1.4674 52.5259C1.4674 50.8375 1.48461 49.149 1.45019 47.4625C1.44445 47.1891 1.20729 46.9195 1.07532 46.648C0.960559 46.908 0.750173 47.1681 0.74826 47.4281C0.725309 50.8356 0.725309 54.243 0.74826 57.6505C0.74826 57.9067 0.964385 58.161 1.08105 58.4172C1.2092 58.1419 1.44445 57.8685 1.45019 57.5893C1.48461 55.9028 1.4674 54.2143 1.4674 52.5259ZM0.73296 29.5629C0.73296 31.2513 0.715746 32.9398 0.74826 34.6282C0.753998 34.9169 0.96821 35.2018 1.08488 35.4906C1.21111 35.2133 1.44636 34.9379 1.45019 34.6588C1.47505 31.2819 1.47696 27.9051 1.45019 24.5263C1.44827 24.2548 1.20155 23.9851 1.06958 23.7136C0.956734 23.9737 0.752086 24.2337 0.746348 24.4957C0.717659 26.1841 0.731047 27.8726 0.731047 29.561L0.73296 29.5629ZM29.7605 1.48296C31.5087 1.48296 33.2568 1.49826 35.0049 1.46575C35.244 1.46193 35.4773 1.22482 35.7145 1.09671C35.4888 0.989627 35.2631 0.788852 35.0374 0.78694C31.5737 0.771642 28.11 0.773555 24.6462 0.798412C24.388 0.798412 24.1317 1.00492 23.8755 1.11392C24.1528 1.23821 24.4282 1.46193 24.7094 1.46767C26.3924 1.50017 28.0774 1.48487 29.7625 1.48296H29.7605ZM1.46357 74.9765H1.4674C1.4674 74.1485 1.4674 73.3186 1.4674 72.4907C1.4674 71.5346 1.48653 70.5785 1.45019 69.6244C1.44254 69.4446 1.2092 69.2725 1.07914 69.0966C0.966297 69.2591 0.832415 69.4102 0.752086 69.5861C0.702358 69.6932 0.73296 69.8366 0.73296 69.9647C0.73296 73.311 0.725309 76.6572 0.752086 80.0016C0.753998 80.2731 0.996899 80.5427 1.12887 80.8143C1.2398 80.5255 1.44445 80.2387 1.45019 79.9481C1.48079 78.2921 1.46549 76.6343 1.46549 74.9765H1.46357ZM75.5693 1.47914V1.48296C77.2543 1.48296 78.9393 1.50017 80.6243 1.46575C80.894 1.46002 81.1579 1.21909 81.4257 1.08523C81.1618 0.980067 80.8997 0.78694 80.6358 0.785027C77.2027 0.76973 73.7676 0.773554 70.3345 0.800325C70.082 0.802237 69.8296 1.00875 69.5771 1.12157C69.8258 1.24012 70.0725 1.4581 70.3249 1.46193C72.0731 1.49252 73.8231 1.47723 75.5712 1.47723L75.5693 1.47914ZM30.3439 104.544V104.548C32.0901 104.548 33.8363 104.559 35.5825 104.533C35.8025 104.529 36.0205 104.316 36.2385 104.202C36.0301 104.081 35.8216 103.856 35.6112 103.856C32.1513 103.833 28.6895 103.829 25.2296 103.85C24.9733 103.85 24.717 104.064 24.4607 104.177C24.738 104.299 25.0135 104.523 25.2946 104.529C26.9777 104.561 28.6608 104.546 30.3439 104.546V104.544ZM53.1995 104.544V104.548C54.9457 104.548 56.6919 104.561 58.4381 104.533C58.6848 104.529 58.9277 104.307 59.1726 104.185C58.922 104.068 58.6714 103.852 58.4209 103.85C54.9916 103.827 51.5623 103.825 48.133 103.848C47.8863 103.848 47.6396 104.074 47.3928 104.196C47.6453 104.313 47.8939 104.527 48.1483 104.531C49.8314 104.561 51.5145 104.546 53.1976 104.546L53.1995 104.544ZM52.8935 1.48105C54.6397 1.48105 56.3878 1.49635 58.134 1.46384C58.3712 1.46002 58.6045 1.221 58.8398 1.09097C58.6102 0.987715 58.3807 0.7965 58.1512 0.794588C54.6894 0.773555 51.2276 0.771642 47.7658 0.792676C47.5114 0.792676 47.2589 1.01066 47.0065 1.12539C47.2532 1.24394 47.4999 1.46002 47.7505 1.46575C49.4642 1.49635 51.1798 1.48105 52.8954 1.48105H52.8935ZM75.7453 103.829C73.9933 103.829 72.2414 103.817 70.4894 103.842C70.2618 103.846 70.0361 104.043 69.8085 104.152C70.0438 104.282 70.279 104.525 70.5162 104.527C73.9589 104.552 77.4016 104.55 80.8423 104.527C81.0872 104.527 81.332 104.303 81.5749 104.183C81.3205 104.064 81.068 103.85 80.8117 103.844C79.1229 103.814 77.4341 103.829 75.7433 103.827L75.7453 103.829ZM2.35867 58.8494C2.27261 58.8876 2.18463 58.924 2.09856 58.9622C2.09856 60.1267 2.08517 61.2893 2.11386 62.4519C2.11768 62.6221 2.32042 62.9203 2.45048 62.9299C3.49476 63.016 4.54478 63.0466 5.59288 63.0924C5.61775 63.0102 5.64452 62.928 5.66939 62.8439C4.56582 61.5111 3.46224 60.1802 2.35867 58.8475V58.8494ZM104.582 52.5967C104.582 50.8776 104.595 49.1567 104.566 47.4377C104.562 47.1757 104.365 46.9157 104.256 46.6537C104.14 46.9023 103.922 47.1508 103.92 47.4013C103.897 50.8088 103.895 54.2162 103.916 57.6237C103.916 57.8857 104.115 58.1476 104.222 58.4096C104.343 58.1285 104.561 57.8474 104.564 57.5644C104.597 55.9085 104.58 54.2526 104.582 52.5967ZM104.582 29.561C104.582 27.8458 104.593 26.1306 104.568 24.4154C104.564 24.1821 104.373 23.9526 104.268 23.7213C104.147 23.9316 103.922 24.1419 103.922 24.3542C103.899 27.8496 103.899 31.3431 103.922 34.8385C103.922 35.0546 104.14 35.2687 104.256 35.4848C104.365 35.2573 104.566 35.0316 104.57 34.8022C104.597 33.0545 104.585 31.3068 104.585 29.561H104.582ZM104.582 74.9784H104.585C104.585 73.2326 104.597 71.4849 104.572 69.7391C104.568 69.5173 104.373 69.2974 104.266 69.0775C104.144 69.2859 103.918 69.4924 103.918 69.7008C103.897 73.1618 103.897 76.6228 103.918 80.0838C103.918 80.3267 104.147 80.5676 104.27 80.8085C104.373 80.5485 104.564 80.2884 104.568 80.0265C104.595 78.3438 104.582 76.6611 104.582 74.9784ZM65.6333 2.22105H59.4174C60.7428 2.89604 62.0931 3.41997 63.4625 3.89227C63.6786 3.96685 64.0516 3.88462 64.2256 3.73165C64.6675 3.34348 65.0366 2.87501 65.6333 2.22105ZM103.178 50.0382V47.2924C102.642 47.7283 102.128 48.1471 101.539 48.627C102.109 49.1185 102.57 49.5143 103.178 50.0382ZM2.25157 23.7595C2.6819 23.3178 3.07016 22.9201 3.52727 22.4497C2.02205 22.5663 1.96468 22.6237 2.25157 23.7595ZM29.7816 67.3565C30.3381 67.0124 30.8947 66.6682 31.5641 66.2532C30.1985 65.5629 30.1431 66.7026 29.7816 67.3565ZM83.7878 11.8353C84.4992 12.1853 85.1247 12.4931 85.8151 12.8335C84.8913 11.5868 84.3673 11.3076 83.7878 11.8353Z" fill="white"/>
</g>
<defs>
<clipPath id="clip0_70_765">
<rect width="105" height="105" fill="white" transform="translate(0.172607 0.196289)"/>
</clipPath>
</defs>
</svg>
