<svg width="155" height="88" viewBox="0 0 155 88" fill="none" xmlns="http://www.w3.org/2000/svg">
<path d="M123.713 73.2012L124.058 72.7362C124.085 72.7009 126.771 69.1161 133.331 63.2122C132.273 63.2494 131.36 63.3336 130.523 63.809C130.523 63.809 125.591 67.9949 124.543 69.2743C123.495 70.5537 122.052 74.5978 122.052 74.5978C122.052 74.5978 128.087 72.3562 129.781 71.3307C131.475 70.3052 136.473 66.1448 136.473 66.1448C136.938 65.5237 136.743 65.0043 136.419 64.4244C129.221 70.0805 124.397 72.8163 124.341 72.8487L123.712 73.2021L123.713 73.2012Z" fill="white"/>
<path d="M136.545 63.9836C136.91 63.6957 137.281 63.3986 137.656 63.0959L136.545 63.9836Z" fill="white"/>
<path d="M138.498 60.7744L139.838 61.3003C140.028 61.1401 140.223 60.9786 140.418 60.8162L137.734 59.7625C137.541 59.9246 137.35 60.0858 137.16 60.2492L138.5 60.7751L138.498 60.7744Z" fill="white"/>
<path d="M135.111 61.8116C134.694 61.6323 134.333 61.4045 134.054 61.1448L133.837 61.3889C133.776 61.4568 133.713 61.5282 133.665 61.5965C133.411 61.9639 133.509 62.3606 133.623 62.7034C133.664 62.827 133.711 62.9559 133.801 63.0642L133.85 63.1205L135.256 61.8746L135.109 61.8109L135.111 61.8116Z" fill="white"/>
<path d="M139.441 61.6333L136.762 60.5816C136.294 60.9794 135.831 61.3767 135.38 61.7711L135.26 61.8759L133.853 63.1218L133.787 63.1817C128.591 67.8445 125.798 71.0736 124.813 72.2789C126.432 71.2998 130.747 68.572 136.546 63.9826L137.657 63.0949C138.238 62.6254 138.835 62.1388 139.441 61.6333Z" fill="white"/>
<path d="M153.327 48.312L152.698 48.6655C152.65 48.6927 147.812 51.4327 140.619 57.0882C140.295 56.5082 140.1 55.9888 140.567 55.3684C140.567 55.3684 145.564 51.208 147.259 50.1825C148.953 49.157 154.988 46.9154 154.988 46.9154C154.988 46.9154 153.545 50.9595 152.497 52.2389C151.449 53.5183 146.517 57.7042 146.517 57.7042C145.678 58.1789 144.765 58.2631 143.707 58.3004C150.266 52.3931 152.951 48.8178 152.983 48.776L153.328 48.311L153.327 48.312Z" fill="white"/>
<path d="M143.035 58.5269C142.701 58.8269 142.354 59.1334 141.999 59.4441L143.035 58.5269Z" fill="white"/>
<path d="M138.542 60.7388L139.881 61.2646C139.691 61.4248 139.499 61.5876 139.307 61.7513L136.623 60.6976C136.816 60.5355 137.008 60.3744 137.204 60.2136L138.543 60.7394L138.542 60.7388Z" fill="white"/>
<path d="M138.993 58.5491C138.551 58.3912 138.051 58.2806 137.528 58.226L137.845 58.0208C137.933 57.9637 138.026 57.9043 138.119 57.8535C138.623 57.5841 139.302 57.4924 139.899 57.4289C140.115 57.4061 140.341 57.3846 140.549 57.3932L140.658 57.3987L139.149 58.6042L138.992 58.5484L138.993 58.5491Z" fill="white"/>
<path d="M140.277 60.9315L137.598 59.8798C138.074 59.4847 138.55 59.0928 139.025 58.7078L139.152 58.6056L140.662 57.4001L140.735 57.3428C146.41 52.8681 150.633 50.2004 152.23 49.2356C151.23 50.4578 148.373 53.7578 143.036 58.5285L142 59.4457C141.45 59.9274 140.877 60.4233 140.277 60.9315Z" fill="white"/>
<path d="M123.713 1.65954L124.058 2.12449C124.085 2.15977 126.771 5.74456 133.331 11.6486C132.273 11.6113 131.36 11.5271 130.523 11.0517C130.523 11.0517 125.59 6.86576 124.543 5.5864C123.495 4.30704 122.051 0.262942 122.051 0.262942C122.051 0.262942 128.086 2.5045 129.781 3.53001C131.475 4.55551 136.473 8.71593 136.473 8.71593C136.938 9.33703 136.743 9.85641 136.419 10.4363C129.22 4.78022 124.397 2.04444 124.341 2.01203L123.712 1.65856L123.713 1.65954Z" fill="white"/>
<path d="M136.545 10.877C136.91 11.165 137.281 11.462 137.656 11.7647L136.545 10.877Z" fill="white"/>
<path d="M138.498 14.0862L139.838 13.5604C140.028 13.7205 140.223 13.882 140.418 14.0444L137.734 15.0981C137.541 14.936 137.35 14.7749 137.16 14.6114L138.5 14.0855L138.498 14.0862Z" fill="white"/>
<path d="M135.111 13.049C134.694 13.2283 134.333 13.4562 134.054 13.7159L133.837 13.4718C133.776 13.4039 133.713 13.3324 133.665 13.2641C133.411 12.8967 133.509 12.5001 133.623 12.1572C133.664 12.0336 133.711 11.9047 133.801 11.7965L133.85 11.7402L135.256 12.986L135.109 13.0497L135.111 13.049Z" fill="white"/>
<path d="M139.441 13.2273L136.762 14.279C136.294 13.8812 135.831 13.4839 135.38 13.0896L135.26 12.9847L133.853 11.7389L133.787 11.6789C128.591 7.01617 125.798 3.78697 124.813 2.58171C126.432 3.56083 130.747 6.28864 136.546 10.878L137.657 11.7657C138.238 12.2353 138.835 12.7218 139.441 13.2273Z" fill="white"/>
<path d="M153.327 26.5486L152.698 26.1952C152.65 26.1679 147.812 23.428 140.619 17.7725C140.295 18.3524 140.1 18.8718 140.567 19.4922C140.567 19.4922 145.564 23.6527 147.259 24.6782C148.953 25.7037 154.988 27.9452 154.988 27.9452C154.988 27.9452 153.545 23.9011 152.497 22.6218C151.449 21.3424 146.517 17.1565 146.517 17.1565C145.678 16.6818 144.765 16.5976 143.707 16.5603C150.266 22.4676 152.951 26.0428 152.983 26.0847L153.328 26.5496L153.327 26.5486Z" fill="white"/>
<path d="M143.035 16.3337C142.701 16.0337 142.354 15.7272 141.999 15.4165L143.035 16.3337Z" fill="white"/>
<path d="M138.542 14.1218L139.881 13.596C139.691 13.4358 139.499 13.273 139.307 13.1092L136.623 14.163C136.816 14.3251 137.008 14.4862 137.204 14.647L138.543 14.1211L138.542 14.1218Z" fill="white"/>
<path d="M138.993 16.3115C138.551 16.4694 138.051 16.58 137.528 16.6346L137.845 16.8398C137.933 16.8969 138.026 16.9563 138.119 17.0071C138.623 17.2765 139.302 17.3682 139.899 17.4316C140.115 17.4545 140.341 17.476 140.549 17.4674L140.658 17.4619L139.149 16.2563L138.992 16.3122L138.993 16.3115Z" fill="white"/>
<path d="M140.277 13.929L137.598 14.9807C138.074 15.3759 138.55 15.7678 139.025 16.1528L139.152 16.2549L140.662 17.4605L140.735 17.5177C146.41 21.9924 150.633 24.6602 152.23 25.625C151.23 24.4028 148.373 21.1028 143.036 16.3321L142 15.4149C141.45 14.9332 140.877 14.4373 140.277 13.929Z" fill="white"/>
<path d="M31.6585 73.2012L31.3136 72.7362C31.2867 72.7009 28.6003 69.1161 22.0403 63.2121C23.0986 63.2494 24.0119 63.3336 24.8485 63.809C24.8485 63.809 29.7811 67.9949 30.8289 69.2743C31.8767 70.5537 33.3201 74.5978 33.3201 74.5978C33.3201 74.5978 27.2852 72.3562 25.5907 71.3307C23.8963 70.3052 18.8987 66.1448 18.8987 66.1448C18.4333 65.5237 18.6285 65.0043 18.9525 64.4244C26.1512 70.0805 30.9747 72.8163 31.0308 72.8487L31.6597 73.2021L31.6585 73.2012Z" fill="white"/>
<path d="M18.8272 63.9836C18.462 63.6956 18.091 63.3986 17.7159 63.0959L18.8272 63.9836Z" fill="white"/>
<path d="M16.8736 60.7744L15.5342 61.3002C15.3436 61.1401 15.149 60.9786 14.9533 60.8162L17.6373 59.7625C17.8302 59.9246 18.0219 60.0857 18.2114 60.2492L16.8719 60.7751L16.8736 60.7744Z" fill="white"/>
<path d="M20.2612 61.8116C20.6778 61.6323 21.0391 61.4045 21.3174 61.1448L21.5351 61.3889C21.5958 61.4567 21.6582 61.5282 21.7069 61.5965C21.9608 61.9639 21.8629 62.3605 21.7488 62.7034C21.7076 62.827 21.6603 62.9559 21.5707 63.0642L21.5222 63.1204L20.1153 61.8746L20.2629 61.8109L20.2612 61.8116Z" fill="white"/>
<path d="M15.9304 61.6333L18.6093 60.5816C19.0777 60.9794 19.5403 61.3767 19.9919 61.7711L20.1117 61.8759L21.5186 63.1218L21.5849 63.1817C26.7811 67.8444 29.574 71.0736 30.5587 72.2789C28.9395 71.2998 24.625 68.572 18.8259 63.9826L17.7146 63.0949C17.1333 62.6254 16.5369 62.1388 15.9304 61.6333Z" fill="white"/>
<path d="M2.04517 48.312L2.67402 48.6655C2.72146 48.6927 7.55993 51.4326 14.7529 57.0882C15.0769 56.5082 15.2721 55.9888 14.805 55.3684C14.805 55.3684 9.80739 51.208 8.11295 50.1825C6.41851 49.157 0.383556 46.9154 0.383556 46.9154C0.383556 46.9154 1.827 50.9595 2.8748 52.2389C3.92259 53.5182 8.85516 57.7042 8.85516 57.7042C9.69349 58.1789 10.6068 58.2631 11.6651 58.3004C5.10618 52.3931 2.42106 48.8178 2.38888 48.776L2.044 48.311L2.04517 48.312Z" fill="white"/>
<path d="M12.3362 58.5269C12.6706 58.8269 13.0177 59.1334 13.3723 59.4441L12.3362 58.5269Z" fill="white"/>
<path d="M16.83 60.7387L15.4905 61.2646C15.6811 61.4248 15.8723 61.5876 16.0646 61.7513L18.7487 60.6976C18.5558 60.5355 18.3641 60.3743 18.1678 60.2136L16.8283 60.7394L16.83 60.7387Z" fill="white"/>
<path d="M16.3782 58.549C16.8204 58.3912 17.3212 58.2806 17.8435 58.226L17.5266 58.0208C17.4386 57.9637 17.3453 57.9043 17.2522 57.8535C16.7485 57.5841 16.0697 57.4924 15.4722 57.4289C15.2568 57.406 15.0304 57.3846 14.8223 57.3932L14.7134 57.3987L16.223 58.6042L16.3799 58.5484L16.3782 58.549Z" fill="white"/>
<path d="M15.0943 60.9315L17.7733 59.8798C17.2981 59.4847 16.8218 59.0928 16.3462 58.7078L16.2196 58.6056L14.71 57.4001L14.6369 57.3428C8.96174 52.8681 4.73869 50.2004 3.14154 49.2355C4.14143 50.4578 6.9985 53.7578 12.3357 58.5285L13.3717 59.4457C13.9222 59.9274 14.4947 60.4233 15.0943 60.9315Z" fill="white"/>
<path d="M31.6587 1.65953L31.3139 2.12449C31.2869 2.15977 28.6005 5.74455 22.0405 11.6485C23.0988 11.6113 24.0121 11.5271 24.8487 11.0517C24.8487 11.0517 29.7813 6.86576 30.8291 5.5864C31.8769 4.30703 33.3203 0.262939 33.3203 0.262939C33.3203 0.262939 27.2854 2.5045 25.591 3.53C23.8965 4.55551 18.8989 8.71592 18.8989 8.71592C18.4335 9.33702 18.6288 9.8564 18.9527 10.4363C26.1514 4.78022 30.9749 2.04444 31.031 2.01203L31.6599 1.65856L31.6587 1.65953Z" fill="white"/>
<path d="M18.8272 10.877C18.462 11.165 18.091 11.462 17.7159 11.7647L18.8272 10.877Z" fill="white"/>
<path d="M16.8736 14.0862L15.5342 13.5604C15.3436 13.7205 15.149 13.882 14.9532 14.0444L17.6373 15.0981C17.8302 14.936 18.0219 14.7749 18.2114 14.6114L16.8719 14.0855L16.8736 14.0862Z" fill="white"/>
<path d="M20.2611 13.049C20.6777 13.2283 21.0391 13.4561 21.3174 13.7158L21.5351 13.4717C21.5957 13.4039 21.6582 13.3324 21.7068 13.2641C21.9608 12.8967 21.8629 12.5001 21.7488 12.1572C21.7076 12.0336 21.6602 11.9047 21.5707 11.7964L21.5222 11.7402L20.1153 12.986L20.2629 13.0497L20.2611 13.049Z" fill="white"/>
<path d="M15.9304 13.2273L18.6093 14.279C19.0777 13.8812 19.5403 13.4839 19.9919 13.0895L20.1117 12.9847L21.5186 11.7388L21.5849 11.6789C26.7811 7.01616 29.574 3.78697 30.5587 2.58171C28.9395 3.56082 24.6249 6.28864 18.8259 10.878L17.7146 11.7657C17.1333 12.2352 16.5369 12.7218 15.9304 13.2273Z" fill="white"/>
<path d="M2.04515 26.5486L2.67401 26.1952C2.72145 26.1679 7.55992 23.428 14.7529 17.7725C15.0768 18.3524 15.2721 18.8718 14.805 19.4922C14.805 19.4922 9.80738 23.6527 8.11294 24.6782C6.4185 25.7037 0.383545 27.9452 0.383545 27.9452C0.383545 27.9452 1.82699 23.9011 2.87479 22.6218C3.92258 21.3424 8.85515 17.1565 8.85515 17.1565C9.69347 16.6818 10.6068 16.5976 11.6651 16.5603C5.10616 22.4676 2.42105 26.0428 2.38887 26.0847L2.04399 26.5496L2.04515 26.5486Z" fill="white"/>
<path d="M12.3362 16.3337C12.6706 16.0337 13.0177 15.7272 13.3722 15.4165L12.3362 16.3337Z" fill="white"/>
<path d="M16.83 14.1218L15.4905 13.596C15.6811 13.4358 15.8723 13.273 16.0646 13.1092L18.7487 14.1629C18.5558 14.3251 18.3641 14.4862 18.1678 14.647L16.8283 14.1211L16.83 14.1218Z" fill="white"/>
<path d="M16.3782 16.3115C16.8204 16.4693 17.3212 16.58 17.8435 16.6346L17.5266 16.8397C17.4386 16.8969 17.3453 16.9563 17.2522 17.0071C16.7485 17.2765 16.0697 17.3682 15.4722 17.4316C15.2567 17.4545 15.0304 17.476 14.8223 17.4674L14.7134 17.4619L16.223 16.2563L16.3799 16.3122L16.3782 16.3115Z" fill="white"/>
<path d="M15.0943 13.929L17.7733 14.9807C17.2981 15.3759 16.8218 15.7678 16.3462 16.1528L16.2196 16.2549L14.71 17.4605L14.6369 17.5177C8.96172 21.9924 4.73868 24.6602 3.14152 25.625C4.14142 24.4028 6.99849 21.1028 12.3357 16.332L13.3717 15.4149C13.9222 14.9332 14.4947 14.4372 15.0943 13.929Z" fill="white"/>
<path fill-rule="evenodd" clip-rule="evenodd" d="M17.3893 12.7038L140.108 59.8005L139.033 62.6013L16.3144 15.5046L17.3893 12.7038Z" fill="white"/>
<path fill-rule="evenodd" clip-rule="evenodd" d="M139.033 12.7038L16.3144 59.8005L17.3893 62.6013L140.108 15.5046L139.033 12.7038Z" fill="white"/>
<mask id="path-2-outside-1_68_729" maskUnits="userSpaceOnUse" x="65.8837" y="11.1733" width="27" height="77" fill="black">
<rect fill="white" x="65.8837" y="11.1733" width="27" height="77"/>
<path d="M75.1027 33.5514C75.4785 33.4724 75.8266 33.4159 76.1352 33.3843C76.2855 33.3685 76.4279 33.3595 76.5584 33.3572C76.9936 33.3504 77.3892 33.373 77.7491 33.4114L77.5395 21.2996L74.5212 21.2996L75.1027 33.5514ZM90.1587 36.5303C88.5605 35.4169 86.278 34.5632 84.6521 34.177C84.2645 34.0844 83.9163 34.0212 83.6196 33.985C83.4654 33.967 83.319 33.9534 83.1964 33.9512C82.7573 33.9444 82.3656 33.9715 82.0254 34.0189C81.5982 34.0776 81.2501 34.1657 80.9811 34.2538C80.7319 34.3351 80.5499 34.4164 80.4352 34.4729C80.4312 34.4729 80.4273 34.4774 80.4194 34.4796C80.4194 34.5045 80.4194 34.5338 80.4154 34.5655C80.4075 34.7213 80.4075 34.9494 80.4233 35.2068C80.4312 35.3265 80.4391 35.453 80.451 35.5817C80.451 35.6179 80.4589 35.6517 80.4629 35.6879C80.4985 35.977 80.5499 36.2705 80.633 36.5303C80.7081 36.7629 80.807 36.9661 80.9376 37.1062C81.3332 37.5353 81.9977 37.6888 82.3419 37.7408C82.4566 37.6798 82.6109 37.6053 82.7968 37.524C83.0579 37.4133 83.3863 37.2959 83.7621 37.2055C84.1695 37.1062 84.6363 37.0384 85.1308 37.0474C86.7883 37.0768 88.5645 37.6369 88.5645 38.4273C88.5645 38.9626 87.8959 39.3239 86.903 39.3239C86.812 39.3239 86.725 39.3194 86.634 39.3149C86.3888 39.2991 86.1474 39.2607 85.918 39.202C85.8112 39.1749 85.7044 39.1432 85.6015 39.1116C85.2969 39.0168 85.02 38.9084 84.7827 38.8067C84.7827 39.08 84.8657 39.4368 85.1387 39.7733C85.2495 39.9066 85.384 40.0285 85.5422 40.1369C85.8112 40.3244 86.1514 40.478 86.5589 40.5931C86.6894 40.6293 86.8239 40.6654 86.9663 40.6948C87.5004 40.8032 88.0383 40.8596 88.5645 40.8596C89.3952 40.8596 91.3771 40.7038 91.8162 39.2516C92.1366 38.1857 91.0883 37.1852 90.1508 36.5325L90.1587 36.5303ZM83.8095 38.3528C83.8293 38.2828 83.8689 38.1631 83.9836 38.0682L83.6434 37.9124C83.1964 38.0773 82.9036 38.2557 82.8997 38.2602L82.7256 38.3709L82.4645 38.3573C82.4092 38.3551 81.2501 38.285 80.4114 37.7182C80.4114 37.7182 80.4114 37.7182 80.4114 37.7159L80.3917 83.9478H80.4154L80.4154 86.615H80.4312C80.4708 86.4569 84.4069 70.587 85.1189 63.3895C85.8191 56.3139 86.3096 45.1642 86.5312 41.23C86.1395 41.1442 85.8033 41.038 85.5066 40.9161C83.7977 40.2115 83.6157 38.9897 83.8095 38.3528ZM83.2241 33.3572C83.3546 33.3572 83.497 33.3707 83.6473 33.3843C83.9559 33.4137 84.304 33.4724 84.6798 33.5514L85.2613 21.2996H82.243L82.0333 33.4114C82.3933 33.373 82.7889 33.3504 83.2241 33.3572ZM80.989 33.5921L81.2026 21.2996H78.5799L78.7935 33.5921C78.9992 33.6418 79.1851 33.696 79.3473 33.7502C79.3631 33.7547 79.375 33.7592 79.3908 33.766C79.5926 33.8337 79.7587 33.9015 79.8893 33.9602C80.0198 33.9015 80.186 33.8337 80.3877 33.7637C80.4035 33.7592 80.4154 33.7547 80.4312 33.7502C80.5934 33.696 80.7793 33.6418 80.985 33.5921H80.989ZM74.2324 40.1347C74.3906 40.024 74.5291 39.9043 74.6359 39.7711C74.9128 39.4346 74.9919 39.0777 74.9919 38.8045C74.7585 38.9061 74.4776 39.0145 74.173 39.1094C74.0702 39.141 73.9673 39.1703 73.8566 39.1997C73.6271 39.2584 73.3858 39.2968 73.1406 39.3126C73.0496 39.3194 72.9586 39.3217 72.8716 39.3217C71.8786 39.3217 71.2101 38.9603 71.2101 38.4251C71.2101 37.6346 72.9863 37.0745 74.6438 37.0452C75.1422 37.0384 75.6051 37.1039 76.0125 37.2033C76.3883 37.2936 76.7167 37.411 76.9778 37.5217C77.1676 37.6007 77.3219 37.6775 77.4327 37.7385C77.7768 37.6866 78.4454 37.533 78.837 37.1039C78.9676 36.9639 79.0665 36.7606 79.1416 36.528C79.2247 36.2705 79.2801 35.9747 79.3117 35.6856C79.3157 35.6495 79.3196 35.6133 79.3236 35.5795C79.3354 35.4485 79.3473 35.3198 79.3513 35.1978C79.3631 34.9403 79.3631 34.7168 79.3552 34.5609C79.3552 34.5316 79.3552 34.5022 79.3513 34.4774C79.3473 34.4774 79.3434 34.4729 79.3354 34.4706C79.2247 34.4141 79.0427 34.3351 78.7895 34.2538C78.5205 34.1657 78.1724 34.0776 77.7452 34.0189C77.4366 33.976 77.0885 33.9489 76.7008 33.9489C76.6573 33.9489 76.6138 33.9489 76.5703 33.9489C76.4477 33.9489 76.3013 33.9647 76.147 33.9828C75.8503 34.0189 75.5022 34.0821 75.1145 34.1747C73.4847 34.5609 71.2061 35.4124 69.608 36.528C68.6704 37.1807 67.6221 38.1812 67.9426 39.2471C68.3817 40.697 70.3635 40.8551 71.1943 40.8551C71.7204 40.8551 72.2584 40.7987 72.7925 40.6902C72.9349 40.6609 73.0694 40.627 73.1999 40.5886C73.6074 40.4734 73.9476 40.3199 74.2166 40.1324L74.2324 40.1347ZM80.3877 35.5975V35.5795C80.3877 35.5795 80.3877 35.593 80.3877 35.5975ZM86.3096 20.4956C86.6617 20.3691 86.8991 20.1455 86.8991 19.8903V19.6193C86.8991 19.5561 86.8793 19.4973 86.8555 19.4386C86.7606 19.2331 86.5153 19.066 86.191 18.9757C86.0248 18.9305 85.8428 18.9011 85.6451 18.9011L74.1533 18.9011C73.9555 18.9011 73.7735 18.9282 73.6074 18.9757C73.279 19.066 73.0338 19.2354 72.9428 19.4386C72.9151 19.4973 72.8993 19.5561 72.8993 19.6193V19.8903C72.8993 20.1455 73.1366 20.3691 73.4887 20.4956C73.6825 20.5656 73.912 20.6085 74.1572 20.6085L85.649 20.6085C85.8943 20.6085 86.1237 20.5656 86.3176 20.4956H86.3096ZM73.8961 18.0836C74.0109 18.1288 74.1335 18.1694 74.2561 18.2123L85.5224 18.2123C85.6451 18.1694 85.7677 18.1288 85.8824 18.0836C87.9553 17.2706 89.1895 15.9449 89.1025 14.6215C89.0669 14.0885 88.8256 13.6165 88.3904 13.2167C87.8247 12.6995 86.9386 12.3405 85.9615 12.2298C85.7637 12.2072 85.3325 12.1688 84.8064 12.1756L84.6917 12.1756C83.9915 12.1756 83.228 12.2953 82.5357 12.5144C81.7129 12.7741 81.0681 13.1399 80.72 13.5465C80.3996 13.9168 80.3719 14.2691 80.6369 14.5447C80.9455 14.8631 81.6219 15.0438 82.5001 15.0438C83.1964 15.0438 83.9638 14.9241 84.66 14.705C84.7787 14.6666 84.9053 14.6237 85.0556 14.565L85.9417 14.2217L85.8903 14.8338C85.8349 15.4751 85.1229 16.1572 84.0706 16.5682C83.8926 16.6382 83.7067 16.6992 83.5128 16.7557C82.7138 16.9905 81.7723 17.1215 80.7358 17.1464H79.0902C77.7927 17.1193 76.6336 16.9228 75.7317 16.5682C75.5616 16.5027 75.4033 16.4282 75.253 16.3491C74.4658 15.9381 73.9555 15.3712 73.912 14.8315L73.8605 14.2195L74.7467 14.5627C74.897 14.6192 75.0196 14.6644 75.1422 14.7028C75.8345 14.9218 76.6019 15.0415 77.3021 15.0415C78.1764 15.0415 78.8568 14.8586 79.1653 14.5424C79.7389 13.9484 78.8687 13.0202 77.2626 12.5121C76.5703 12.293 75.8029 12.1733 75.1066 12.1733L75.0156 12.1733C74.9484 12.1733 74.9049 12.1733 74.8653 12.1733C74.3946 12.1733 74.0148 12.2072 73.8328 12.2275C72.8557 12.3382 71.9696 12.6973 71.4039 13.2145C70.9688 13.6142 70.7275 14.0862 70.6919 14.6192C70.6049 15.9426 71.8351 17.2683 73.912 18.0813L73.8961 18.0836ZM79.3671 37.7182C78.5285 38.285 77.3694 38.3551 77.314 38.3573L77.0529 38.3709L76.8789 38.2602C76.8789 38.2602 76.5822 38.0773 76.1352 37.9124L75.7949 38.0682C75.9097 38.1631 75.9492 38.2828 75.969 38.3528C76.1628 38.9897 75.9809 40.2115 74.2719 40.9161C73.9792 41.038 73.639 41.1442 73.2474 41.23C73.4729 45.1642 73.9634 56.3139 74.6596 63.3895C75.3717 70.587 79.3078 86.4569 79.3473 86.6172H79.3829L79.3631 37.7159C79.3631 37.7159 79.3631 37.7159 79.3631 37.7182H79.3671Z"/>
</mask>
<path d="M75.1027 33.5514C75.4785 33.4724 75.8266 33.4159 76.1352 33.3843C76.2855 33.3685 76.4279 33.3595 76.5584 33.3572C76.9936 33.3504 77.3892 33.373 77.7491 33.4114L77.5395 21.2996L74.5212 21.2996L75.1027 33.5514ZM90.1587 36.5303C88.5605 35.4169 86.278 34.5632 84.6521 34.177C84.2645 34.0844 83.9163 34.0212 83.6196 33.985C83.4654 33.967 83.319 33.9534 83.1964 33.9512C82.7573 33.9444 82.3656 33.9715 82.0254 34.0189C81.5982 34.0776 81.2501 34.1657 80.9811 34.2538C80.7319 34.3351 80.5499 34.4164 80.4352 34.4729C80.4312 34.4729 80.4273 34.4774 80.4194 34.4796C80.4194 34.5045 80.4194 34.5338 80.4154 34.5655C80.4075 34.7213 80.4075 34.9494 80.4233 35.2068C80.4312 35.3265 80.4391 35.453 80.451 35.5817C80.451 35.6179 80.4589 35.6517 80.4629 35.6879C80.4985 35.977 80.5499 36.2705 80.633 36.5303C80.7081 36.7629 80.807 36.9661 80.9376 37.1062C81.3332 37.5353 81.9977 37.6888 82.3419 37.7408C82.4566 37.6798 82.6109 37.6053 82.7968 37.524C83.0579 37.4133 83.3863 37.2959 83.7621 37.2055C84.1695 37.1062 84.6363 37.0384 85.1308 37.0474C86.7883 37.0768 88.5645 37.6369 88.5645 38.4273C88.5645 38.9626 87.8959 39.3239 86.903 39.3239C86.812 39.3239 86.725 39.3194 86.634 39.3149C86.3888 39.2991 86.1474 39.2607 85.918 39.202C85.8112 39.1749 85.7044 39.1432 85.6015 39.1116C85.2969 39.0168 85.02 38.9084 84.7827 38.8067C84.7827 39.08 84.8657 39.4368 85.1387 39.7733C85.2495 39.9066 85.384 40.0285 85.5422 40.1369C85.8112 40.3244 86.1514 40.478 86.5589 40.5931C86.6894 40.6293 86.8239 40.6654 86.9663 40.6948C87.5004 40.8032 88.0383 40.8596 88.5645 40.8596C89.3952 40.8596 91.3771 40.7038 91.8162 39.2516C92.1366 38.1857 91.0883 37.1852 90.1508 36.5325L90.1587 36.5303ZM83.8095 38.3528C83.8293 38.2828 83.8689 38.1631 83.9836 38.0682L83.6434 37.9124C83.1964 38.0773 82.9036 38.2557 82.8997 38.2602L82.7256 38.3709L82.4645 38.3573C82.4092 38.3551 81.2501 38.285 80.4114 37.7182C80.4114 37.7182 80.4114 37.7182 80.4114 37.7159L80.3917 83.9478H80.4154L80.4154 86.615H80.4312C80.4708 86.4569 84.4069 70.587 85.1189 63.3895C85.8191 56.3139 86.3096 45.1642 86.5312 41.23C86.1395 41.1442 85.8033 41.038 85.5066 40.9161C83.7977 40.2115 83.6157 38.9897 83.8095 38.3528ZM83.2241 33.3572C83.3546 33.3572 83.497 33.3707 83.6473 33.3843C83.9559 33.4137 84.304 33.4724 84.6798 33.5514L85.2613 21.2996H82.243L82.0333 33.4114C82.3933 33.373 82.7889 33.3504 83.2241 33.3572ZM80.989 33.5921L81.2026 21.2996H78.5799L78.7935 33.5921C78.9992 33.6418 79.1851 33.696 79.3473 33.7502C79.3631 33.7547 79.375 33.7592 79.3908 33.766C79.5926 33.8337 79.7587 33.9015 79.8893 33.9602C80.0198 33.9015 80.186 33.8337 80.3877 33.7637C80.4035 33.7592 80.4154 33.7547 80.4312 33.7502C80.5934 33.696 80.7793 33.6418 80.985 33.5921H80.989ZM74.2324 40.1347C74.3906 40.024 74.5291 39.9043 74.6359 39.7711C74.9128 39.4346 74.9919 39.0777 74.9919 38.8045C74.7585 38.9061 74.4776 39.0145 74.173 39.1094C74.0702 39.141 73.9673 39.1703 73.8566 39.1997C73.6271 39.2584 73.3858 39.2968 73.1406 39.3126C73.0496 39.3194 72.9586 39.3217 72.8716 39.3217C71.8786 39.3217 71.2101 38.9603 71.2101 38.4251C71.2101 37.6346 72.9863 37.0745 74.6438 37.0452C75.1422 37.0384 75.6051 37.1039 76.0125 37.2033C76.3883 37.2936 76.7167 37.411 76.9778 37.5217C77.1676 37.6007 77.3219 37.6775 77.4327 37.7385C77.7768 37.6866 78.4454 37.533 78.837 37.1039C78.9676 36.9639 79.0665 36.7606 79.1416 36.528C79.2247 36.2705 79.2801 35.9747 79.3117 35.6856C79.3157 35.6495 79.3196 35.6133 79.3236 35.5795C79.3354 35.4485 79.3473 35.3198 79.3513 35.1978C79.3631 34.9403 79.3631 34.7168 79.3552 34.5609C79.3552 34.5316 79.3552 34.5022 79.3513 34.4774C79.3473 34.4774 79.3434 34.4729 79.3354 34.4706C79.2247 34.4141 79.0427 34.3351 78.7895 34.2538C78.5205 34.1657 78.1724 34.0776 77.7452 34.0189C77.4366 33.976 77.0885 33.9489 76.7008 33.9489C76.6573 33.9489 76.6138 33.9489 76.5703 33.9489C76.4477 33.9489 76.3013 33.9647 76.147 33.9828C75.8503 34.0189 75.5022 34.0821 75.1145 34.1747C73.4847 34.5609 71.2061 35.4124 69.608 36.528C68.6704 37.1807 67.6221 38.1812 67.9426 39.2471C68.3817 40.697 70.3635 40.8551 71.1943 40.8551C71.7204 40.8551 72.2584 40.7987 72.7925 40.6902C72.9349 40.6609 73.0694 40.627 73.1999 40.5886C73.6074 40.4734 73.9476 40.3199 74.2166 40.1324L74.2324 40.1347ZM80.3877 35.5975V35.5795C80.3877 35.5795 80.3877 35.593 80.3877 35.5975ZM86.3096 20.4956C86.6617 20.3691 86.8991 20.1455 86.8991 19.8903V19.6193C86.8991 19.5561 86.8793 19.4973 86.8555 19.4386C86.7606 19.2331 86.5153 19.066 86.191 18.9757C86.0248 18.9305 85.8428 18.9011 85.6451 18.9011L74.1533 18.9011C73.9555 18.9011 73.7735 18.9282 73.6074 18.9757C73.279 19.066 73.0338 19.2354 72.9428 19.4386C72.9151 19.4973 72.8993 19.5561 72.8993 19.6193V19.8903C72.8993 20.1455 73.1366 20.3691 73.4887 20.4956C73.6825 20.5656 73.912 20.6085 74.1572 20.6085L85.649 20.6085C85.8943 20.6085 86.1237 20.5656 86.3176 20.4956H86.3096ZM73.8961 18.0836C74.0109 18.1288 74.1335 18.1694 74.2561 18.2123L85.5224 18.2123C85.6451 18.1694 85.7677 18.1288 85.8824 18.0836C87.9553 17.2706 89.1895 15.9449 89.1025 14.6215C89.0669 14.0885 88.8256 13.6165 88.3904 13.2167C87.8247 12.6995 86.9386 12.3405 85.9615 12.2298C85.7637 12.2072 85.3325 12.1688 84.8064 12.1756L84.6917 12.1756C83.9915 12.1756 83.228 12.2953 82.5357 12.5144C81.7129 12.7741 81.0681 13.1399 80.72 13.5465C80.3996 13.9168 80.3719 14.2691 80.6369 14.5447C80.9455 14.8631 81.6219 15.0438 82.5001 15.0438C83.1964 15.0438 83.9638 14.9241 84.66 14.705C84.7787 14.6666 84.9053 14.6237 85.0556 14.565L85.9417 14.2217L85.8903 14.8338C85.8349 15.4751 85.1229 16.1572 84.0706 16.5682C83.8926 16.6382 83.7067 16.6992 83.5128 16.7557C82.7138 16.9905 81.7723 17.1215 80.7358 17.1464H79.0902C77.7927 17.1193 76.6336 16.9228 75.7317 16.5682C75.5616 16.5027 75.4033 16.4282 75.253 16.3491C74.4658 15.9381 73.9555 15.3712 73.912 14.8315L73.8605 14.2195L74.7467 14.5627C74.897 14.6192 75.0196 14.6644 75.1422 14.7028C75.8345 14.9218 76.6019 15.0415 77.3021 15.0415C78.1764 15.0415 78.8568 14.8586 79.1653 14.5424C79.7389 13.9484 78.8687 13.0202 77.2626 12.5121C76.5703 12.293 75.8029 12.1733 75.1066 12.1733L75.0156 12.1733C74.9484 12.1733 74.9049 12.1733 74.8653 12.1733C74.3946 12.1733 74.0148 12.2072 73.8328 12.2275C72.8557 12.3382 71.9696 12.6973 71.4039 13.2145C70.9688 13.6142 70.7275 14.0862 70.6919 14.6192C70.6049 15.9426 71.8351 17.2683 73.912 18.0813L73.8961 18.0836ZM79.3671 37.7182C78.5285 38.285 77.3694 38.3551 77.314 38.3573L77.0529 38.3709L76.8789 38.2602C76.8789 38.2602 76.5822 38.0773 76.1352 37.9124L75.7949 38.0682C75.9097 38.1631 75.9492 38.2828 75.969 38.3528C76.1628 38.9897 75.9809 40.2115 74.2719 40.9161C73.9792 41.038 73.639 41.1442 73.2474 41.23C73.4729 45.1642 73.9634 56.3139 74.6596 63.3895C75.3717 70.587 79.3078 86.4569 79.3473 86.6172H79.3829L79.3631 37.7159C79.3631 37.7159 79.3631 37.7159 79.3631 37.7182H79.3671Z" fill="white"/>
<path d="M75.1027 33.5514C75.4785 33.4724 75.8266 33.4159 76.1352 33.3843C76.2855 33.3685 76.4279 33.3595 76.5584 33.3572C76.9936 33.3504 77.3892 33.373 77.7491 33.4114L77.5395 21.2996L74.5212 21.2996L75.1027 33.5514ZM90.1587 36.5303C88.5605 35.4169 86.278 34.5632 84.6521 34.177C84.2645 34.0844 83.9163 34.0212 83.6196 33.985C83.4654 33.967 83.319 33.9534 83.1964 33.9512C82.7573 33.9444 82.3656 33.9715 82.0254 34.0189C81.5982 34.0776 81.2501 34.1657 80.9811 34.2538C80.7319 34.3351 80.5499 34.4164 80.4352 34.4729C80.4312 34.4729 80.4273 34.4774 80.4194 34.4796C80.4194 34.5045 80.4194 34.5338 80.4154 34.5655C80.4075 34.7213 80.4075 34.9494 80.4233 35.2068C80.4312 35.3265 80.4391 35.453 80.451 35.5817C80.451 35.6179 80.4589 35.6517 80.4629 35.6879C80.4985 35.977 80.5499 36.2705 80.633 36.5303C80.7081 36.7629 80.807 36.9661 80.9376 37.1062C81.3332 37.5353 81.9977 37.6888 82.3419 37.7408C82.4566 37.6798 82.6109 37.6053 82.7968 37.524C83.0579 37.4133 83.3863 37.2959 83.7621 37.2055C84.1695 37.1062 84.6363 37.0384 85.1308 37.0474C86.7883 37.0768 88.5645 37.6369 88.5645 38.4273C88.5645 38.9626 87.8959 39.3239 86.903 39.3239C86.812 39.3239 86.725 39.3194 86.634 39.3149C86.3888 39.2991 86.1474 39.2607 85.918 39.202C85.8112 39.1749 85.7044 39.1432 85.6015 39.1116C85.2969 39.0168 85.02 38.9084 84.7827 38.8067C84.7827 39.08 84.8657 39.4368 85.1387 39.7733C85.2495 39.9066 85.384 40.0285 85.5422 40.1369C85.8112 40.3244 86.1514 40.478 86.5589 40.5931C86.6894 40.6293 86.8239 40.6654 86.9663 40.6948C87.5004 40.8032 88.0383 40.8596 88.5645 40.8596C89.3952 40.8596 91.3771 40.7038 91.8162 39.2516C92.1366 38.1857 91.0883 37.1852 90.1508 36.5325L90.1587 36.5303ZM83.8095 38.3528C83.8293 38.2828 83.8689 38.1631 83.9836 38.0682L83.6434 37.9124C83.1964 38.0773 82.9036 38.2557 82.8997 38.2602L82.7256 38.3709L82.4645 38.3573C82.4092 38.3551 81.2501 38.285 80.4114 37.7182C80.4114 37.7182 80.4114 37.7182 80.4114 37.7159L80.3917 83.9478H80.4154L80.4154 86.615H80.4312C80.4708 86.4569 84.4069 70.587 85.1189 63.3895C85.8191 56.3139 86.3096 45.1642 86.5312 41.23C86.1395 41.1442 85.8033 41.038 85.5066 40.9161C83.7977 40.2115 83.6157 38.9897 83.8095 38.3528ZM83.2241 33.3572C83.3546 33.3572 83.497 33.3707 83.6473 33.3843C83.9559 33.4137 84.304 33.4724 84.6798 33.5514L85.2613 21.2996H82.243L82.0333 33.4114C82.3933 33.373 82.7889 33.3504 83.2241 33.3572ZM80.989 33.5921L81.2026 21.2996H78.5799L78.7935 33.5921C78.9992 33.6418 79.1851 33.696 79.3473 33.7502C79.3631 33.7547 79.375 33.7592 79.3908 33.766C79.5926 33.8337 79.7587 33.9015 79.8893 33.9602C80.0198 33.9015 80.186 33.8337 80.3877 33.7637C80.4035 33.7592 80.4154 33.7547 80.4312 33.7502C80.5934 33.696 80.7793 33.6418 80.985 33.5921H80.989ZM74.2324 40.1347C74.3906 40.024 74.5291 39.9043 74.6359 39.7711C74.9128 39.4346 74.9919 39.0777 74.9919 38.8045C74.7585 38.9061 74.4776 39.0145 74.173 39.1094C74.0702 39.141 73.9673 39.1703 73.8566 39.1997C73.6271 39.2584 73.3858 39.2968 73.1406 39.3126C73.0496 39.3194 72.9586 39.3217 72.8716 39.3217C71.8786 39.3217 71.2101 38.9603 71.2101 38.4251C71.2101 37.6346 72.9863 37.0745 74.6438 37.0452C75.1422 37.0384 75.6051 37.1039 76.0125 37.2033C76.3883 37.2936 76.7167 37.411 76.9778 37.5217C77.1676 37.6007 77.3219 37.6775 77.4327 37.7385C77.7768 37.6866 78.4454 37.533 78.837 37.1039C78.9676 36.9639 79.0665 36.7606 79.1416 36.528C79.2247 36.2705 79.2801 35.9747 79.3117 35.6856C79.3157 35.6495 79.3196 35.6133 79.3236 35.5795C79.3354 35.4485 79.3473 35.3198 79.3513 35.1978C79.3631 34.9403 79.3631 34.7168 79.3552 34.5609C79.3552 34.5316 79.3552 34.5022 79.3513 34.4774C79.3473 34.4774 79.3434 34.4729 79.3354 34.4706C79.2247 34.4141 79.0427 34.3351 78.7895 34.2538C78.5205 34.1657 78.1724 34.0776 77.7452 34.0189C77.4366 33.976 77.0885 33.9489 76.7008 33.9489C76.6573 33.9489 76.6138 33.9489 76.5703 33.9489C76.4477 33.9489 76.3013 33.9647 76.147 33.9828C75.8503 34.0189 75.5022 34.0821 75.1145 34.1747C73.4847 34.5609 71.2061 35.4124 69.608 36.528C68.6704 37.1807 67.6221 38.1812 67.9426 39.2471C68.3817 40.697 70.3635 40.8551 71.1943 40.8551C71.7204 40.8551 72.2584 40.7987 72.7925 40.6902C72.9349 40.6609 73.0694 40.627 73.1999 40.5886C73.6074 40.4734 73.9476 40.3199 74.2166 40.1324L74.2324 40.1347ZM80.3877 35.5975V35.5795C80.3877 35.5795 80.3877 35.593 80.3877 35.5975ZM86.3096 20.4956C86.6617 20.3691 86.8991 20.1455 86.8991 19.8903V19.6193C86.8991 19.5561 86.8793 19.4973 86.8555 19.4386C86.7606 19.2331 86.5153 19.066 86.191 18.9757C86.0248 18.9305 85.8428 18.9011 85.6451 18.9011L74.1533 18.9011C73.9555 18.9011 73.7735 18.9282 73.6074 18.9757C73.279 19.066 73.0338 19.2354 72.9428 19.4386C72.9151 19.4973 72.8993 19.5561 72.8993 19.6193V19.8903C72.8993 20.1455 73.1366 20.3691 73.4887 20.4956C73.6825 20.5656 73.912 20.6085 74.1572 20.6085L85.649 20.6085C85.8943 20.6085 86.1237 20.5656 86.3176 20.4956H86.3096ZM73.8961 18.0836C74.0109 18.1288 74.1335 18.1694 74.2561 18.2123L85.5224 18.2123C85.6451 18.1694 85.7677 18.1288 85.8824 18.0836C87.9553 17.2706 89.1895 15.9449 89.1025 14.6215C89.0669 14.0885 88.8256 13.6165 88.3904 13.2167C87.8247 12.6995 86.9386 12.3405 85.9615 12.2298C85.7637 12.2072 85.3325 12.1688 84.8064 12.1756L84.6917 12.1756C83.9915 12.1756 83.228 12.2953 82.5357 12.5144C81.7129 12.7741 81.0681 13.1399 80.72 13.5465C80.3996 13.9168 80.3719 14.2691 80.6369 14.5447C80.9455 14.8631 81.6219 15.0438 82.5001 15.0438C83.1964 15.0438 83.9638 14.9241 84.66 14.705C84.7787 14.6666 84.9053 14.6237 85.0556 14.565L85.9417 14.2217L85.8903 14.8338C85.8349 15.4751 85.1229 16.1572 84.0706 16.5682C83.8926 16.6382 83.7067 16.6992 83.5128 16.7557C82.7138 16.9905 81.7723 17.1215 80.7358 17.1464H79.0902C77.7927 17.1193 76.6336 16.9228 75.7317 16.5682C75.5616 16.5027 75.4033 16.4282 75.253 16.3491C74.4658 15.9381 73.9555 15.3712 73.912 14.8315L73.8605 14.2195L74.7467 14.5627C74.897 14.6192 75.0196 14.6644 75.1422 14.7028C75.8345 14.9218 76.6019 15.0415 77.3021 15.0415C78.1764 15.0415 78.8568 14.8586 79.1653 14.5424C79.7389 13.9484 78.8687 13.0202 77.2626 12.5121C76.5703 12.293 75.8029 12.1733 75.1066 12.1733L75.0156 12.1733C74.9484 12.1733 74.9049 12.1733 74.8653 12.1733C74.3946 12.1733 74.0148 12.2072 73.8328 12.2275C72.8557 12.3382 71.9696 12.6973 71.4039 13.2145C70.9688 13.6142 70.7275 14.0862 70.6919 14.6192C70.6049 15.9426 71.8351 17.2683 73.912 18.0813L73.8961 18.0836ZM79.3671 37.7182C78.5285 38.285 77.3694 38.3551 77.314 38.3573L77.0529 38.3709L76.8789 38.2602C76.8789 38.2602 76.5822 38.0773 76.1352 37.9124L75.7949 38.0682C75.9097 38.1631 75.9492 38.2828 75.969 38.3528C76.1628 38.9897 75.9809 40.2115 74.2719 40.9161C73.9792 41.038 73.639 41.1442 73.2474 41.23C73.4729 45.1642 73.9634 56.3139 74.6596 63.3895C75.3717 70.587 79.3078 86.4569 79.3473 86.6172H79.3829L79.3631 37.7159C79.3631 37.7159 79.3631 37.7159 79.3631 37.7182H79.3671Z" stroke="black" stroke-width="2" mask="url(#path-2-outside-1_68_729)"/>
</svg>
