<svg width="262" height="53" viewBox="0 0 262 53" fill="none" xmlns="http://www.w3.org/2000/svg">
<g clip-path="url(#clip0_68_730)">
<path d="M55.7725 42.7164H45.1125C42.7425 42.7164 41.0425 40.4364 41.7125 38.1664L45.0925 26.7064C45.5325 25.1964 46.9225 24.1664 48.4925 24.1664H64.0125V19.6664C63.6425 19.5764 63.3125 19.3964 63.0325 19.1564H14.2625C12.4925 19.1564 10.7925 18.5664 9.41249 17.4964C12.7125 27.3364 12.7025 37.7364 9.35249 49.2564C10.6925 48.2764 12.3225 47.7264 14.0025 47.7264H59.7125L63.9125 39.6964C61.7125 41.5964 58.8425 42.7264 55.7625 42.7264L55.7725 42.7164ZM37.8925 28.7064L34.5125 40.1664C34.0625 41.6764 32.6825 42.7164 31.1125 42.7164H23.8225C18.6125 42.7164 14.3925 38.6064 14.3925 33.5264V33.3364C14.3925 28.2664 18.6125 24.1464 23.8225 24.1464H34.4925C36.8625 24.1464 38.5625 26.4264 37.8925 28.6964V28.7064Z" fill="white"/>
<path d="M246.852 8.47637L243.862 8.45637L242.532 20.2164H246.792L246.852 8.47637Z" fill="white"/>
<path d="M248.352 21.3364H205.992V24.8364H248.352V21.3364Z" fill="white"/>
<path d="M260.322 20.4064H250.262C249.652 20.4064 249.162 20.8964 249.162 21.5064V24.4564C249.162 25.0664 249.652 25.5564 250.262 25.5564H260.322C260.932 25.5564 261.422 25.0664 261.422 24.4564V21.5064C261.422 20.8964 260.932 20.4064 260.322 20.4064ZM252.322 24.8364H250.562V21.1864H252.322V24.8364ZM255.002 24.8364H253.242V21.1864H255.002V24.8364ZM257.682 24.8364H255.922V21.1864H257.682V24.8364ZM260.372 24.8364H258.612V21.1864H260.372V24.8364Z" fill="white"/>
<path d="M186.223 23.7364C186.223 24.1164 186.143 24.4864 186.033 24.8364H201.693V21.3364H186.223V23.7464V23.7364Z" fill="white"/>
<path d="M186.223 19.6764V20.0564H201.693V17.6764H185.623C186.003 18.2464 186.223 18.9364 186.223 19.6764Z" fill="white"/>
<path d="M206.763 17.6764H205.842V20.0564H206.763V17.6764Z" fill="white"/>
<path d="M204.893 16.9464H202.833C202.563 16.9464 202.333 17.1664 202.333 17.4464V25.1864C202.333 25.4564 202.553 25.6864 202.833 25.6864H204.893C205.163 25.6864 205.393 25.4664 205.393 25.1864V17.4464C205.393 17.1764 205.173 16.9464 204.893 16.9464Z" fill="white"/>
<path d="M82.2825 31.2964H81.0525C80.9325 32.7864 81.2725 34.4864 83.1025 35.8564C83.7025 35.4964 81.7925 34.2964 82.2825 31.2964Z" fill="white"/>
<path d="M65.5725 18.9764H101.823C102.733 18.9764 103.463 18.2364 103.463 17.3364C103.463 16.4364 102.723 15.6964 101.823 15.6964H65.5725C64.6625 15.6964 63.9325 16.4364 63.9325 17.3364C63.9325 18.2364 64.6725 18.9764 65.5725 18.9764Z" fill="white"/>
<path d="M67.7025 21.4564H71.4425V19.3464H67.7025V21.4564Z" fill="white"/>
<path d="M69.9525 13.8564V11.1264H64.4525V13.8564H69.9525Z" fill="white"/>
<path d="M126.863 19.4664H113.443V17.3464H113.483V15.4964H109.373V18.7464H108.623V14.7464H111.043L108.233 10.0664H105.663L105.693 9.68637V9.65637C105.803 8.49637 106.763 7.62637 107.933 7.62637H118.823C119.983 7.62637 120.943 8.49637 121.053 9.65637V9.69637H124.873V3.57637H124.023C124.053 3.70637 124.083 3.83637 124.083 3.96637C124.083 4.81637 123.383 5.50637 122.533 5.50637H104.493C103.643 5.50637 102.943 4.81637 102.943 3.96637C102.943 3.11637 103.643 2.41637 104.493 2.41637H112.383L111.193 1.54637H102.083C101.383 1.54637 100.823 2.10637 100.823 2.80637V3.16637H92.6925V7.93637H100.823V8.43637C100.823 9.13637 101.383 9.69637 102.083 9.69637H103.663L103.793 14.0164C102.773 13.4564 101.613 13.1364 100.373 13.1364H97.5425V8.67637H92.7025V13.1364H70.5125V14.4864H65.7325L65.3125 14.9764C65.4025 14.9764 65.4825 14.9464 65.5825 14.9464H101.833C103.153 14.9464 104.223 16.0164 104.223 17.3364C104.223 18.6564 103.153 19.7264 101.833 19.7264H71.9525V21.9364H67.2225V19.7264H65.5925C65.4025 19.7264 65.2125 19.6964 65.0325 19.6564V26.2464C66.6625 25.7864 67.9325 26.0564 68.8025 26.6764C69.5825 27.2264 70.0225 28.0564 70.1025 28.9164C70.1525 29.5464 70.0025 30.1964 69.6225 30.7464L59.8825 49.3764L71.4725 52.1864L71.7725 50.8564L70.9125 49.4364L74.6125 41.6064L76.6325 41.5864L76.7325 40.8264L75.8525 39.0164L76.3925 37.6864H90.9125L103.593 35.3964C105.873 34.9864 107.523 33.0064 107.523 30.6964V27.0064H126.883V19.4564L126.863 19.4664ZM102.673 8.44637C102.083 8.44637 101.593 7.96637 101.593 7.36637C101.593 6.76637 102.073 6.28637 102.673 6.28637C103.273 6.28637 103.753 6.76637 103.753 7.36637C103.753 7.96637 103.273 8.44637 102.673 8.44637ZM74.5225 21.5964C75.1625 21.5964 75.6825 22.1164 75.6825 22.7564C75.6825 23.3964 75.1625 23.9164 74.5225 23.9164C73.8825 23.9164 73.3625 23.3964 73.3625 22.7564C73.3625 22.1164 73.8825 21.5964 74.5225 21.5964ZM71.1525 32.2064L61.6125 48.5964L71.1525 30.5364H77.7625L71.1525 32.2164V32.2064ZM90.1425 34.7664C90.1425 35.6864 89.3925 36.4364 88.4625 36.4364H79.3625C78.1725 36.4364 77.3625 35.2264 77.8125 34.1264L78.8225 31.6364C79.0825 31.0064 79.6925 30.5864 80.3825 30.5864H88.4725C88.4725 30.5864 88.4725 30.5764 88.4825 30.5764C89.4025 30.5764 90.1525 31.3264 90.1525 32.2464V34.7664H90.1425ZM94.6825 24.6864L93.5425 26.0664V23.7064H106.623L94.6925 24.6864H94.6825ZM91.9025 25.2064C91.9025 27.0864 90.3725 28.6164 88.4925 28.6164H71.9425C71.6625 28.6164 71.4425 28.3964 71.4425 28.1164C71.4425 27.8364 71.6625 27.6164 71.9425 27.6164H88.4925C89.8225 27.6164 90.9025 26.5364 90.9025 25.2064V22.7564H86.1125C85.6725 22.7564 85.3025 22.3964 85.3025 21.9464V21.9264C85.3025 21.4864 85.6625 21.1164 86.1125 21.1164H106.483L106.763 22.7464H91.9025V25.2064ZM86.5425 24.8864C86.5425 24.1264 87.1625 23.5064 87.9225 23.5064C88.6825 23.5064 89.3025 24.1264 89.3025 24.8864C89.3025 25.6464 88.6825 26.2664 87.9225 26.2664C87.1625 26.2664 86.5425 25.6464 86.5425 24.8864Z" fill="white"/>
<path d="M125.893 27.4264H108.043V29.5364H125.893V27.4264Z" fill="white"/>
<path d="M124.813 30.3164C124.813 30.2464 124.813 30.1864 124.813 30.1164H108.033C108.033 30.1864 108.033 30.2464 108.033 30.3164C108.033 37.4864 109.393 44.9464 111.163 49.8964L128.173 47.2364C125.873 41.2364 124.423 36.5064 124.803 30.3164H124.813ZM115.163 47.0864C115.083 47.1164 114.993 47.1364 114.913 47.1364C114.663 47.1364 114.423 46.9864 114.323 46.7464C112.103 41.5064 111.773 33.3264 111.753 32.9764C111.743 32.6164 112.013 32.3264 112.373 32.3064C112.703 32.3064 113.023 32.5664 113.043 32.9264C113.043 33.0064 113.383 41.2164 115.513 46.2464C115.653 46.5764 115.503 46.9464 115.173 47.0864H115.163ZM119.193 46.5864C119.113 46.6264 119.023 46.6364 118.943 46.6364C118.693 46.6364 118.453 46.4864 118.353 46.2464C116.033 40.8564 115.783 33.2864 115.773 32.9664C115.763 32.6164 116.043 32.3164 116.393 32.3064C116.743 32.3064 117.043 32.5764 117.053 32.9264C117.053 33.2364 117.303 40.5764 119.523 45.7364C119.663 46.0664 119.523 46.4364 119.183 46.5764L119.193 46.5864ZM123.153 45.9364C123.073 45.9764 122.983 45.9864 122.903 45.9864C122.653 45.9864 122.413 45.8364 122.313 45.5964C120.003 40.2064 119.843 33.1264 119.833 32.8264C119.833 32.4664 120.113 32.1764 120.463 32.1664C120.833 32.1664 121.113 32.4464 121.113 32.7964C121.113 32.8664 121.273 39.9364 123.483 45.0864C123.623 45.4164 123.473 45.7864 123.143 45.9264L123.153 45.9364Z" fill="white"/>
<path d="M127.723 16.2664V16.4364H114.233V18.7464H127.723V27.1464C127.723 27.7764 128.243 28.2864 128.873 28.2764L171.693 27.5264V15.8964L128.873 15.1464C128.243 15.1364 127.723 15.6464 127.723 16.2764V16.2664ZM161.573 17.3364H169.293C169.823 17.3364 170.253 17.7664 170.253 18.2964C170.253 18.8264 169.823 19.2564 169.293 19.2564H161.573C161.043 19.2564 160.613 18.8264 160.613 18.2964C160.613 17.7664 161.043 17.3364 161.573 17.3364ZM147.793 17.3364H155.513C156.043 17.3364 156.473 17.7664 156.473 18.2964C156.473 18.8264 156.043 19.2564 155.513 19.2564H147.793C147.263 19.2564 146.833 18.8264 146.833 18.2964C146.833 17.7664 147.263 17.3364 147.793 17.3364ZM134.023 17.3364H141.743C142.273 17.3364 142.702 17.7664 142.702 18.2964C142.702 18.8264 142.273 19.2564 141.743 19.2564H134.023C133.493 19.2564 133.062 18.8264 133.062 18.2964C133.062 17.7664 133.493 17.3364 134.023 17.3364Z" fill="white"/>
<path d="M181.673 16.0664L172.603 15.9064V27.5064L181.673 27.3464C183.253 27.3164 184.573 26.2664 185.033 24.8364C185.143 24.4864 185.223 24.1264 185.223 23.7364V19.6764C185.223 18.9364 185.003 18.2464 184.623 17.6764C183.983 16.7264 182.913 16.0864 181.683 16.0664H181.673ZM181.663 26.7364H174.803C174.653 26.7364 174.533 26.6164 174.533 26.4664C174.533 26.3164 174.653 26.1964 174.803 26.1964H181.663C181.813 26.1964 181.933 26.3164 181.933 26.4664C181.933 26.6164 181.813 26.7364 181.663 26.7364ZM181.663 25.6764H174.803C174.653 25.6764 174.533 25.5564 174.533 25.4064C174.533 25.2564 174.653 25.1364 174.803 25.1364H181.663C181.813 25.1364 181.933 25.2564 181.933 25.4064C181.933 25.5564 181.813 25.6764 181.663 25.6764ZM181.663 24.6264H174.803C174.653 24.6264 174.533 24.5064 174.533 24.3564C174.533 24.2064 174.653 24.0864 174.803 24.0864H181.663C181.813 24.0864 181.933 24.2064 181.933 24.3564C181.933 24.5064 181.813 24.6264 181.663 24.6264ZM181.663 23.5664H174.803C174.653 23.5664 174.533 23.4464 174.533 23.2964C174.533 23.1464 174.653 23.0264 174.803 23.0264H181.663C181.813 23.0264 181.933 23.1464 181.933 23.2964C181.933 23.4464 181.813 23.5664 181.663 23.5664ZM181.663 22.5164H174.803C174.653 22.5164 174.533 22.3964 174.533 22.2464C174.533 22.0964 174.653 21.9764 174.803 21.9764H181.663C181.813 21.9764 181.933 22.0964 181.933 22.2464C181.933 22.3964 181.813 22.5164 181.663 22.5164ZM181.663 21.4564H174.803C174.653 21.4564 174.533 21.3364 174.533 21.1864C174.533 21.0364 174.653 20.9164 174.803 20.9164H181.663C181.813 20.9164 181.933 21.0364 181.933 21.1864C181.933 21.3364 181.813 21.4564 181.663 21.4564ZM181.663 20.4064H174.803C174.653 20.4064 174.533 20.2864 174.533 20.1364C174.533 19.9864 174.653 19.8664 174.803 19.8664H181.663C181.813 19.8664 181.933 19.9864 181.933 20.1364C181.933 20.2864 181.813 20.4064 181.663 20.4064ZM181.663 19.3464H174.803C174.653 19.3464 174.533 19.2264 174.533 19.0764C174.533 18.9264 174.653 18.8064 174.803 18.8064H181.663C181.813 18.8064 181.933 18.9264 181.933 19.0764C181.933 19.2264 181.813 19.3464 181.663 19.3464ZM181.663 18.2964H174.803C174.653 18.2964 174.533 18.1764 174.533 18.0264C174.533 17.8764 174.653 17.7564 174.803 17.7564H181.663C181.813 17.7564 181.933 17.8764 181.933 18.0264C181.933 18.1764 181.813 18.2964 181.663 18.2964ZM181.663 17.2364H174.803C174.653 17.2364 174.533 17.1164 174.533 16.9664C174.533 16.8164 174.653 16.6964 174.803 16.6964H181.663C181.813 16.6964 181.933 16.8164 181.933 16.9664C181.933 17.1164 181.813 17.2364 181.663 17.2364Z" fill="white"/>
<path d="M74.9325 10.1664L76.3525 8.89637V2.21637L74.7425 0.816374C74.5725 0.706374 74.3425 0.816374 74.3025 1.01637C73.8325 3.93637 73.8825 6.92637 74.4925 9.97637C74.5325 10.1764 74.7625 10.2764 74.9325 10.1664Z" fill="white"/>
<path d="M86.8825 1.47637H76.9125V9.62637H86.8825V1.47637Z" fill="white"/>
<path d="M92.0125 3.16637L87.3225 1.47637V9.62637L92.0125 7.93637V3.16637Z" fill="white"/>
<path d="M129.833 2.77637H125.623V10.5464H129.833V2.77637Z" fill="white"/>
<path d="M103.703 3.96637C103.703 4.39637 104.073 4.75637 104.503 4.75637H122.543C122.983 4.75637 123.343 4.39637 123.343 3.96637C123.343 3.79637 123.283 3.63637 123.203 3.50637H113.993L113.523 3.16637H104.513C104.083 3.16637 103.713 3.52637 103.713 3.96637H103.703Z" fill="white"/>
<path d="M107.933 8.37637C107.303 8.37637 106.753 8.75637 106.533 9.31637H120.203C119.983 8.75637 119.443 8.37637 118.813 8.37637H107.923H107.933Z" fill="white"/>
<path d="M8.55251 17.2464L7.77251 16.5264C7.04251 15.8564 6.09251 15.4864 5.09251 15.4864H2.30251C1.71251 15.4864 1.19251 15.7464 0.852506 16.2064C0.532506 16.6464 0.432506 17.1964 0.602506 17.7164C3.44251 26.8164 3.37251 36.9564 0.362506 48.7164C0.232506 49.2164 0.342506 49.7364 0.662506 50.1564C1.00251 50.5964 1.53251 50.8564 2.10251 50.8564H5.28251C6.17251 50.8564 7.04251 50.5564 7.73251 50.0164L8.55251 49.3764C12.0025 37.6864 12.0025 27.1664 8.55251 17.2464Z" fill="white"/>
</g>
<defs>
<clipPath id="clip0_68_730">
<rect width="261.12" height="51.42" fill="white" transform="translate(0.30249 0.776367)"/>
</clipPath>
</defs>
</svg>
