<svg width="135" height="100" viewBox="0 0 135 100" fill="none" xmlns="http://www.w3.org/2000/svg">
<path d="M131.845 93.5499H124.343V44.2611C124.343 35.5957 119.755 27.4448 112.372 22.986L80.2275 3.56705C72.4042 -1.15402 62.6877 -1.15402 54.8643 3.56705L22.7196 22.986C15.3471 27.4448 10.7593 35.5957 10.7593 44.2611V93.5499H3.25649C1.47345 93.5499 0.0410156 94.9925 0.0410156 96.7881C0.0410156 98.5837 1.47345 100.026 3.25649 100.026H131.825C133.608 100.026 135.041 98.5837 135.041 96.7881C135.061 94.9925 133.628 93.5499 131.845 93.5499ZM17.2102 44.2611C17.2102 37.8554 20.596 31.833 26.0453 28.5343L58.19 9.11532C63.9698 5.61487 71.1521 5.61487 76.9319 9.11532L109.077 28.5343C114.526 31.8229 117.912 37.8554 117.912 44.2611V93.5499H17.2102V44.2611Z" fill="#DBDBCE"/>
<path d="M82.5615 53.6225H73.9869V44.9874C73.9869 43.1918 72.5544 41.7492 70.7714 41.7492H64.3405C62.5574 41.7492 61.125 43.1918 61.125 44.9874V53.6225H52.5504C50.7674 53.6225 49.3349 55.0651 49.3349 56.8607V63.3371C49.3349 65.1327 50.7674 66.5752 52.5504 66.5752H61.125V75.2104C61.125 77.006 62.5574 78.4485 64.3405 78.4485H70.7714C72.5544 78.4485 73.9869 77.006 73.9869 75.2104V66.5752H82.5615C84.3445 66.5752 85.7769 65.1327 85.7769 63.3371V56.8607C85.7769 55.0752 84.3445 53.6225 82.5615 53.6225Z" fill="#DBDBCE"/>
</svg>
