<svg aria-hidden="true" style="position: absolute; width: 0; height: 0; overflow: hidden;" version="1.1" xmlns="http://www.w3.org/2000/svg" xmlns:xlink="http://www.w3.org/1999/xlink">
<defs>
<!--
<symbol id="icon-" viewBox="0 0 17 17">

</symbol>

<svg class="icon" width="28" height="28">
    <use href="images/sprite.svg#icon-quick-to-top"></use>
</svg>
-->
<symbol id="icon-quick-to-top" viewBox="0 0 32 32">
<path d="M21 28h-10c-0.552 0-1-0.448-1-1v-11h-4c-0.404 0-0.769-0.244-0.924-0.617s-0.069-0.804 0.217-1.090l10-10c0.391-0.39 1.024-0.39 1.414 0l10 10c0.286 0.286 0.372 0.716 0.217 1.090s-0.519 0.617-0.924 0.617h-4v11c0 0.552-0.448 1-1 1zM12 26h8v-11c0-0.552 0.448-1 1-1h2.586l-7.586-7.586-7.586 7.586h2.586c0.552 0 1 0.448 1 1v11z"></path>
</symbol>
<!-- ===========================menu -->
<symbol id="icon-home" viewBox="0 0 24 24">
<path d="M15.59 13.01C12.35 13.01 9.70996 10.37 9.70996 7.13C9.70996 3.89 12.35 1.25 15.59 1.25C18.83 1.25 21.47 3.89 21.47 7.13C21.47 10.37 18.83 13.01 15.59 13.01ZM15.59 2.75C13.18 2.75 11.21 4.71 11.21 7.13C11.21 9.55 13.17 11.51 15.59 11.51C18.01 11.51 19.97 9.55 19.97 7.13C19.97 4.71 18 2.75 15.59 2.75Z"/>
<path d="M6.36026 20.19C4.25026 20.19 2.53027 18.47 2.53027 16.36C2.53027 14.25 4.25026 12.53 6.36026 12.53C8.47026 12.53 10.1903 14.25 10.1903 16.36C10.1903 18.47 8.47026 20.19 6.36026 20.19ZM6.36026 14.03C5.08026 14.03 4.03027 15.07 4.03027 16.36C4.03027 17.64 5.07026 18.69 6.36026 18.69C7.64026 18.69 8.69028 17.65 8.69028 16.36C8.69028 15.08 7.64026 14.03 6.36026 14.03Z" />
<path d="M16.6201 22.75C14.7901 22.75 13.3101 21.26 13.3101 19.44C13.3101 17.61 14.8001 16.13 16.6201 16.13C18.4401 16.13 19.9301 17.62 19.9301 19.44C19.9301 21.26 18.4401 22.75 16.6201 22.75ZM16.6201 17.62C15.6201 17.62 14.8101 18.43 14.8101 19.43C14.8101 20.43 15.6201 21.24 16.6201 21.24C17.6201 21.24 18.4301 20.43 18.4301 19.43C18.4301 18.44 17.6201 17.62 16.6201 17.62Z" />
</symbol>
<symbol id="icon-program" viewBox="0 0 24 24">
<path d="M19 8.75C16.93 8.75 15.25 7.07 15.25 5C15.25 2.93 16.93 1.25 19 1.25C21.07 1.25 22.75 2.93 22.75 5C22.75 7.07 21.07 8.75 19 8.75ZM19 2.75C17.76 2.75 16.75 3.76 16.75 5C16.75 6.24 17.76 7.25 19 7.25C20.24 7.25 21.25 6.24 21.25 5C21.25 3.76 20.24 2.75 19 2.75Z"/>
<path d="M12 22.75C6.07 22.75 1.25 17.93 1.25 12C1.25 6.07 6.07 1.25 12 1.25C12.73 1.25 13.46 1.32 14.17 1.47C14.58 1.55 14.84 1.95 14.75 2.36C14.67 2.77 14.27 3.03 13.87 2.94C13.26 2.81 12.63 2.75 12 2.75C6.9 2.75 2.75 6.9 2.75 12C2.75 17.1 6.9 21.25 12 21.25C17.1 21.25 21.25 17.1 21.25 12C21.25 11.38 21.19 10.76 21.07 10.16C20.99 9.75 21.25 9.36 21.66 9.28C22.07 9.19 22.46 9.46 22.54 9.87C22.68 10.57 22.75 11.29 22.75 12.01C22.75 17.93 17.93 22.75 12 22.75Z"/>
</symbol>
<symbol id="icon-price" viewBox="0 0 24 24">
<path d="M15.4998 15.75C15.3198 15.75 15.1198 15.74 14.9398 15.73C14.5698 15.71 14.2697 15.41 14.2397 15.04C14.0197 12.25 11.7498 9.98999 8.96976 9.76999C8.59976 9.73999 8.29975 9.44001 8.27975 9.07001C8.26975 8.89001 8.25977 8.69001 8.25977 8.51001C8.25977 4.51001 11.5098 1.26001 15.5098 1.26001C19.5098 1.26001 22.7598 4.51001 22.7598 8.51001C22.7598 12.51 19.4998 15.75 15.4998 15.75ZM9.74976 8.35999C12.7298 8.88999 15.1198 11.27 15.6398 14.25C18.7498 14.17 21.2498 11.63 21.2498 8.5C21.2498 5.33 18.6698 2.75 15.4998 2.75C12.3798 2.75 9.82976 5.24999 9.74976 8.35999Z" />
<path d="M8.5 22.75C4.5 22.75 1.25 19.5 1.25 15.5C1.25 11.5 4.5 8.25 8.5 8.25C8.68 8.25 8.88 8.25999 9.06 8.26999C12.59 8.54999 15.45 11.41 15.72 14.92C15.73 15.12 15.74 15.32 15.74 15.5C15.75 19.5 12.5 22.75 8.5 22.75ZM8.5 9.75C5.33 9.75 2.75 12.33 2.75 15.5C2.75 18.67 5.33 21.25 8.5 21.25C11.67 21.25 14.25 18.67 14.25 15.5C14.25 15.34 14.24 15.18 14.23 15.02C14.01 12.25 11.74 9.98001 8.95999 9.76001C8.81999 9.76001 8.66 9.75 8.5 9.75Z" />
<path d="M8.5 18.75C8.23 18.75 7.97 18.6 7.84 18.36L7.06 16.94L5.64001 16.16C5.40001 16.03 5.25 15.78 5.25 15.5C5.25 15.22 5.40001 14.97 5.64001 14.84L7.06 14.06L7.84 12.64C8.1 12.16 8.89 12.16 9.16 12.64L9.94 14.06L11.36 14.84C11.6 14.97 11.75 15.22 11.75 15.5C11.75 15.78 11.6 16.03 11.36 16.16L9.94 16.94L9.16 18.36C9.03 18.6 8.77 18.75 8.5 18.75ZM7.56 15.5L7.97 15.73C8.1 15.8 8.19999 15.9 8.26999 16.03L8.5 16.44L8.73001 16.03C8.80001 15.9 8.9 15.8 9.03 15.73L9.44 15.5L9.03 15.27C8.9 15.2 8.80001 15.1 8.73001 14.97L8.5 14.56L8.26999 14.97C8.19999 15.1 8.1 15.2 7.97 15.27L7.56 15.5Z" />
</symbol>
<symbol id="icon-how" viewBox="0 0 24 24">
<path d="M8 22.75C4.28 22.75 1.25 19.72 1.25 16C1.25 12.96 3.29 10.28 6.22 9.49001C6.59 9.39001 6.97 9.58001 7.11 9.94001C7.72 11.47 9.02 12.64 10.61 13.07C11.49 13.31 12.51 13.31 13.37 13.07C13.74 12.97 14.13 13.16 14.27 13.52C14.58 14.31 14.74 15.15 14.74 16.01C14.74 17.93 13.92 19.76 12.49 21.03C11.27 22.13 9.67 22.75 8 22.75ZM6.02 11.13C4.07 11.93 2.75 13.85 2.75 16C2.75 18.89 5.11 21.25 8 21.25C9.3 21.25 10.54 20.77 11.5 19.9C12.62 18.91 13.25 17.49 13.25 16C13.25 15.54 13.19 15.1 13.08 14.67C12.14 14.82 11.12 14.77 10.22 14.52C8.41 14.02 6.89 12.78 6.02 11.13Z"/>
<path d="M12 14.75C11.38 14.75 10.78 14.67 10.22 14.51C8.19 13.95 6.5 12.45 5.72 10.48C5.41 9.7 5.25 8.86 5.25 8C5.25 4.28 8.28 1.25 12 1.25C15.72 1.25 18.75 4.28 18.75 8C18.75 8.86 18.59 9.7 18.28 10.49C17.5 12.45 15.82 13.96 13.78 14.52C13.22 14.67 12.62 14.75 12 14.75ZM12 2.75C9.11 2.75 6.75 5.11 6.75 8C6.75 8.67 6.87 9.32 7.12 9.93C7.73 11.46 9.03 12.63 10.62 13.06C11.5 13.3 12.52 13.3 13.38 13.06C14.97 12.63 16.28 11.45 16.88 9.93C17.12 9.32 17.25 8.67 17.25 8C17.25 5.11 14.89 2.75 12 2.75Z"/>
<path d="M16 22.75C14.33 22.75 12.73 22.13 11.5 21.02C11.34 20.88 11.25 20.67 11.25 20.46C11.25 20.25 11.34 20.04 11.5 19.9C12.61 18.92 13.25 17.5 13.25 16C13.25 15.33 13.13 14.68 12.88 14.07C12.8 13.87 12.81 13.65 12.91 13.46C13.01 13.27 13.18 13.13 13.38 13.07C14.97 12.64 16.27 11.47 16.88 9.93998C17.02 9.57998 17.41 9.39998 17.77 9.48998C20.7 10.29 22.74 12.96 22.74 16C22.75 19.72 19.72 22.75 16 22.75ZM13.12 20.39C13.97 20.95 14.96 21.25 16 21.25C18.89 21.25 21.25 18.89 21.25 16C21.25 13.85 19.93 11.93 17.98 11.13C17.24 12.54 16 13.66 14.52 14.26C14.67 14.82 14.75 15.41 14.75 16C14.75 17.62 14.17 19.18 13.12 20.39Z"/>
</symbol>
<symbol id="icon-study" viewBox="0 0 24 24">
<path d="M7.99994 14.75C7.80994 14.75 7.61994 14.68 7.46994 14.53L5.46994 12.53C5.17994 12.24 5.17994 11.7599 5.46994 11.4699L7.46994 9.46994C7.75994 9.17994 8.23994 9.17994 8.52994 9.46994C8.81994 9.75994 8.81994 10.24 8.52994 10.53L7.05994 12L8.52994 13.4699C8.81994 13.7599 8.81994 14.24 8.52994 14.53C8.37994 14.68 8.18994 14.75 7.99994 14.75Z"/>
<path d="M15.9999 14.75C15.8099 14.75 15.6199 14.68 15.4699 14.53C15.1799 14.24 15.1799 13.7599 15.4699 13.4699L16.9399 12L15.4699 10.53C15.1799 10.24 15.1799 9.75994 15.4699 9.46994C15.7599 9.17994 16.2399 9.17994 16.5299 9.46994L18.5299 11.4699C18.8199 11.7599 18.8199 12.24 18.5299 12.53L16.5299 14.53C16.3799 14.68 16.1899 14.75 15.9999 14.75Z"/>
<path d="M12 22.75C6.07 22.75 1.25 17.93 1.25 12C1.25 6.07 6.07 1.25 12 1.25C17.93 1.25 22.75 6.07 22.75 12C22.75 17.93 17.93 22.75 12 22.75ZM12 2.75C6.9 2.75 2.75 6.9 2.75 12C2.75 17.1 6.9 21.25 12 21.25C17.1 21.25 21.25 17.1 21.25 12C21.25 6.9 17.1 2.75 12 2.75Z"/>
<path d="M11.0001 15.0801C10.9001 15.0801 10.8001 15.0601 10.7101 15.0201C10.3301 14.8601 10.1501 14.4201 10.3201 14.0301L12.3201 9.36004C12.4801 8.98004 12.9201 8.80002 13.3001 8.97002C13.6801 9.13002 13.8601 9.57008 13.6901 9.96008L11.6901 14.6301C11.5701 14.9101 11.2901 15.0801 11.0001 15.0801Z"/>
</symbol>
<symbol id="icon-youtube" viewBox="0 0 32 32">
<path d="M31.681 9.6c0 0-0.313-2.206-1.275-3.175-1.219-1.275-2.581-1.281-3.206-1.356-4.475-0.325-11.194-0.325-11.194-0.325h-0.012c0 0-6.719 0-11.194 0.325-0.625 0.075-1.987 0.081-3.206 1.356-0.963 0.969-1.269 3.175-1.269 3.175s-0.319 2.588-0.319 5.181v2.425c0 2.587 0.319 5.181 0.319 5.181s0.313 2.206 1.269 3.175c1.219 1.275 2.819 1.231 3.531 1.369 2.563 0.244 10.881 0.319 10.881 0.319s6.725-0.012 11.2-0.331c0.625-0.075 1.988-0.081 3.206-1.356 0.962-0.969 1.275-3.175 1.275-3.175s0.319-2.587 0.319-5.181v-2.425c-0.006-2.588-0.325-5.181-0.325-5.181zM12.694 20.15v-8.994l8.644 4.513-8.644 4.481z"></path>
</symbol>
<!-- ===========================menu end -->

<!-- ===========================social -->
<symbol id="icon-mail" viewBox="0 0 32 32">
<path d="M26.667 0h-21.333c-2.934 0-5.334 2.4-5.334 5.334v21.332c0 2.936 2.4 5.334 5.334 5.334h21.333c2.934 0 5.333-2.398 5.333-5.334v-21.332c0-2.934-2.399-5.334-5.333-5.334zM5.707 27.707l-2.414-2.414 8-8 0.914 0.914-6.5 9.5zM4.793 6.207l0.914-0.914 10.293 8.293 10.293-8.293 0.914 0.914-11.207 13.207-11.207-13.207zM26.293 27.707l-6.5-9.5 0.914-0.914 8 8-2.414 2.414z"></path>
</symbol>
<symbol id="icon-telegram" viewBox="0 0 24 24">
<path d="m9.417 15.181-.397 5.584c.568 0 .814-.244 1.109-.537l2.663-2.545 5.518 4.041c1.012.564 1.725.267 1.998-.931l3.622-16.972.001-.001c.321-1.496-.541-2.081-1.527-1.714l-21.29 8.151c-1.453.564-1.431 1.374-.247 1.741l5.443 1.693 12.643-7.911c.595-.394 1.136-.176.691.218z"/>
</symbol>
<!-- /////////////////////////////////////////////////end-social -->
<symbol id="icon-chevron-right" viewBox="0 0 20 20">
<path d="M9.163 4.516c0.418 0.408 4.502 4.695 4.502 4.695 0.223 0.219 0.335 0.504 0.335 0.789s-0.112 0.57-0.335 0.787c0 0-4.084 4.289-4.502 4.695-0.418 0.408-1.17 0.436-1.615 0-0.446-0.434-0.481-1.041 0-1.574l3.747-3.908-3.747-3.908c-0.481-0.533-0.446-1.141 0-1.576s1.197-0.409 1.615 0z"></path>
</symbol>
<symbol id="icon-sq-arr-right" viewBox="0 0 24 24">
<path d="M12 22.75C6.07 22.75 1.25 17.93 1.25 12C1.25 6.07 6.07 1.25 12 1.25C12.41 1.25 12.75 1.59 12.75 2C12.75 2.41 12.41 2.75 12 2.75C6.9 2.75 2.75 6.9 2.75 12C2.75 17.1 6.9 21.25 12 21.25C17.1 21.25 21.25 17.1 21.25 12C21.25 11.59 21.59 11.25 22 11.25C22.41 11.25 22.75 11.59 22.75 12C22.75 17.93 17.93 22.75 12 22.75Z"/>
<path d="M12.9999 11.75C12.8099 11.75 12.6199 11.68 12.4699 11.53C12.1799 11.24 12.1799 10.76 12.4699 10.47L20.6699 2.27C20.9599 1.98 21.4399 1.98 21.7299 2.27C22.0199 2.56 22.0199 3.04 21.7299 3.33L13.5299 11.53C13.3799 11.68 13.1899 11.75 12.9999 11.75Z"/>
<path d="M21.9999 7.58C21.5899 7.58 21.2499 7.24 21.2499 6.83V2.75H17.1699C16.7599 2.75 16.4199 2.41 16.4199 2C16.4199 1.59 16.7599 1.25 17.1699 1.25H21.9999C22.4099 1.25 22.7499 1.59 22.7499 2V6.83C22.7499 7.24 22.4099 7.58 21.9999 7.58Z"/>
</symbol>
<symbol id="icon-sun" viewBox="0 0 24 24">
<path d="M12 19.25C8 19.25 4.75 16 4.75 12C4.75 8 8 4.75 12 4.75C16 4.75 19.25 8 19.25 12C19.25 16 16 19.25 12 19.25ZM12 6.25C8.83 6.25 6.25 8.83 6.25 12C6.25 15.17 8.83 17.75 12 17.75C15.17 17.75 17.75 15.17 17.75 12C17.75 8.83 15.17 6.25 12 6.25Z"/>
<path d="M12 22.96C11.45 22.96 11 22.55 11 22V21.92C11 21.37 11.45 20.92 12 20.92C12.55 20.92 13 21.37 13 21.92C13 22.47 12.55 22.96 12 22.96ZM19.14 20.14C18.88 20.14 18.63 20.04 18.43 19.85L18.3 19.72C17.91 19.33 17.91 18.7 18.3 18.31C18.69 17.92 19.32 17.92 19.71 18.31L19.84 18.44C20.23 18.83 20.23 19.46 19.84 19.85C19.65 20.04 19.4 20.14 19.14 20.14ZM4.86 20.14C4.6 20.14 4.35 20.04 4.15 19.85C3.76 19.46 3.76 18.83 4.15 18.44L4.28 18.31C4.67 17.92 5.3 17.92 5.69 18.31C6.08 18.7 6.08 19.33 5.69 19.72L5.56 19.85C5.37 20.04 5.11 20.14 4.86 20.14ZM22 13H21.92C21.37 13 20.92 12.55 20.92 12C20.92 11.45 21.37 11 21.92 11C22.47 11 22.96 11.45 22.96 12C22.96 12.55 22.55 13 22 13ZM2.08 13H2C1.45 13 1 12.55 1 12C1 11.45 1.45 11 2 11C2.55 11 3.04 11.45 3.04 12C3.04 12.55 2.63 13 2.08 13ZM19.01 5.99C18.75 5.99 18.5 5.89 18.3 5.7C17.91 5.31 17.91 4.68 18.3 4.29L18.43 4.16C18.82 3.77 19.45 3.77 19.84 4.16C20.23 4.55 20.23 5.18 19.84 5.57L19.71 5.7C19.52 5.89 19.27 5.99 19.01 5.99ZM4.99 5.99C4.73 5.99 4.48 5.89 4.28 5.7L4.15 5.56C3.76 5.17 3.76 4.54 4.15 4.15C4.54 3.76 5.17 3.76 5.56 4.15L5.69 4.28C6.08 4.67 6.08 5.3 5.69 5.69C5.5 5.89 5.24 5.99 4.99 5.99ZM12 3.04C11.45 3.04 11 2.63 11 2.08V2C11 1.45 11.45 1 12 1C12.55 1 13 1.45 13 2C13 2.55 12.55 3.04 12 3.04Z"/>
</symbol>
<symbol id="icon-moon" viewBox="0 0 24 24">
<path d="M12.4604 22.75C12.2904 22.75 12.1204 22.75 11.9504 22.74C6.35044 22.49 1.67044 17.98 1.28044 12.48C0.940437 7.75999 3.67044 3.34999 8.07044 1.49999C9.32044 0.979992 9.98044 1.37999 10.2604 1.66999C10.5404 1.94999 10.9304 2.59999 10.4104 3.78999C9.95044 4.84999 9.72044 5.97999 9.73044 7.13999C9.75044 11.57 13.4304 15.33 17.9204 15.51C18.5704 15.54 19.2104 15.49 19.8304 15.38C21.1504 15.14 21.7004 15.67 21.9104 16.01C22.1204 16.35 22.3604 17.08 21.5604 18.16C19.4404 21.06 16.0704 22.75 12.4604 22.75ZM2.77044 12.37C3.11044 17.13 7.17044 21.03 12.0104 21.24C15.3004 21.4 18.4204 19.9 20.3404 17.28C20.4904 17.07 20.5604 16.92 20.5904 16.84C20.5004 16.83 20.3404 16.82 20.0904 16.87C19.3604 17 18.6004 17.05 17.8504 17.02C12.5704 16.81 8.25044 12.38 8.22044 7.15999C8.22044 5.77999 8.49044 4.44999 9.04044 3.19999C9.14044 2.97999 9.16044 2.82999 9.17044 2.74999C9.08044 2.74999 8.92044 2.76999 8.66044 2.87999C4.85044 4.47999 2.49044 8.29999 2.77044 12.37Z"/>
</symbol>





</defs>
</svg>
