<svg aria-hidden="true" style="position: absolute; width: 0; height: 0; overflow: hidden;" version="1.1" xmlns="http://www.w3.org/2000/svg" xmlns:xlink="http://www.w3.org/1999/xlink">
<defs>
<!--
<symbol id="icon-inst" viewBox="0 0 17 17">

</symbol>

<svg class="icon" width="28" height="28">
    <use href="images/sprite.svg#icon-inst"></use>
</svg>
-->


<!-- ===========================social -->

<symbol id="icon-inst" viewBox="0 0 66 66">
<path fill-rule="evenodd" clip-rule="evenodd" d="M19.6198 0.734062C23.0855 0.574517 24.1905 0.539062 33.0187 0.539062C41.8469 0.539062 42.9519 0.577472 46.4146 0.734062C49.8773 0.890653 52.2409 1.44315 54.3091 2.24384C56.4748 3.06224 58.4396 4.34156 60.0646 5.99611C61.7191 7.61815 62.9955 9.57997 63.8109 11.7486C64.6146 13.8168 65.1641 16.1804 65.3237 19.6372C65.4832 23.1088 65.5187 24.2138 65.5187 33.0391C65.5187 41.8672 65.4803 42.9722 65.3237 46.4379C65.1671 49.8947 64.6146 52.2584 63.8109 54.3266C62.9955 56.4955 61.717 58.4606 60.0646 60.085C58.4396 61.7395 56.4748 63.0159 54.3091 63.8313C52.2409 64.635 49.8773 65.1845 46.4205 65.3441C42.9519 65.5036 41.8469 65.5391 33.0187 65.5391C24.1905 65.5391 23.0855 65.5007 19.6198 65.3441C16.163 65.1875 13.7994 64.635 11.7312 63.8313C9.56231 63.0158 7.59724 61.7373 5.97277 60.085C4.31934 58.4619 3.03983 56.4978 2.22345 54.3295C1.42277 52.2613 0.873222 49.8977 0.713677 46.4409C0.554131 42.9693 0.518677 41.8643 0.518677 33.0391C0.518677 24.2109 0.557086 23.1059 0.713677 19.6432C0.870268 16.1804 1.42277 13.8168 2.22345 11.7486C3.04104 9.58021 4.32153 7.61612 5.97572 5.99315C7.59789 4.34009 9.56098 3.0606 11.7282 2.24384C13.7964 1.44315 16.16 0.893608 19.6169 0.734062H19.6198ZM46.1516 6.58406C42.7244 6.42747 41.6962 6.39497 33.0187 6.39497C24.3412 6.39497 23.313 6.42747 19.8857 6.58406C16.7155 6.72883 14.9959 7.2577 13.8496 7.70383C12.3339 8.29474 11.2496 8.99497 10.1121 10.1325C9.03381 11.1815 8.20398 12.4585 7.68345 13.87C7.23731 15.0163 6.70845 16.7359 6.56368 19.9061C6.40709 23.3334 6.37459 24.3616 6.37459 33.0391C6.37459 41.7166 6.40709 42.7447 6.56368 46.172C6.70845 49.3422 7.23731 51.0618 7.68345 52.2082C8.20345 53.6175 9.03368 54.8968 10.1121 55.9457C11.1609 57.0241 12.4403 57.8543 13.8496 58.3743C14.9959 58.8204 16.7155 59.3493 19.8857 59.4941C23.313 59.6507 24.3382 59.6832 33.0187 59.6832C41.6991 59.6832 42.7244 59.6507 46.1516 59.4941C49.3219 59.3493 51.0414 58.8204 52.1878 58.3743C53.7035 57.7834 54.7878 57.0832 55.9253 55.9457C57.0037 54.8968 57.8339 53.6175 58.3539 52.2082C58.8 51.0618 59.3289 49.3422 59.4737 46.172C59.6303 42.7447 59.6628 41.7166 59.6628 33.0391C59.6628 24.3616 59.6303 23.3334 59.4737 19.9061C59.3289 16.7359 58.8 15.0163 58.3539 13.87C57.763 12.3543 57.0628 11.27 55.9253 10.1325C54.8762 9.05427 53.5992 8.22446 52.1878 7.70383C51.0414 7.2577 49.3219 6.72883 46.1516 6.58406ZM28.8675 43.0579C31.1859 44.023 33.7673 44.1532 36.171 43.4264C38.5746 42.6996 40.6514 41.1609 42.0466 39.073C43.4418 36.9851 44.0688 34.4775 43.8206 31.9787C43.5724 29.4798 42.4644 27.1447 40.6857 25.372C39.5519 24.2389 38.1809 23.3712 36.6715 22.8315C35.1621 22.2918 33.5518 22.0935 31.9565 22.2509C30.3612 22.4082 28.8207 22.9173 27.4458 23.7415C26.0709 24.5657 24.8959 25.6844 24.0053 27.0173C23.1146 28.3501 22.5306 29.8638 22.2952 31.4494C22.0598 33.035 22.1789 34.6531 22.6439 36.1872C23.1089 37.7212 23.9083 39.1331 24.9844 40.3212C26.0606 41.5093 27.3868 42.4439 28.8675 43.0579ZM21.2064 21.2268C22.7576 19.6756 24.5992 18.4451 26.6259 17.6056C28.6527 16.7661 30.8249 16.334 33.0187 16.334C35.2124 16.334 37.3847 16.7661 39.4114 17.6056C41.4382 18.4451 43.2797 19.6756 44.8309 21.2268C46.3822 22.778 47.6126 24.6196 48.4522 26.6463C49.2917 28.6731 49.7238 30.8453 49.7238 33.0391C49.7238 35.2328 49.2917 37.4051 48.4522 39.4318C47.6126 41.4586 46.3822 43.3001 44.8309 44.8513C41.6981 47.9841 37.4491 49.7441 33.0187 49.7441C28.5882 49.7441 24.3392 47.9841 21.2064 44.8513C18.0736 41.7185 16.3136 37.4695 16.3136 33.0391C16.3136 28.6086 18.0736 24.3596 21.2064 21.2268ZM53.4287 18.8218C53.8131 18.4592 54.1208 18.0231 54.3337 17.5394C54.5465 17.0558 54.6602 16.5343 54.6679 16.0059C54.6756 15.4775 54.5772 14.953 54.3785 14.4633C54.1798 13.9736 53.885 13.5288 53.5113 13.1551C53.1376 12.7814 52.6928 12.4865 52.2031 12.2879C51.7134 12.0892 51.1889 11.9908 50.6605 11.9985C50.1321 12.0062 49.6106 12.1199 49.1269 12.3327C48.6433 12.5456 48.2072 12.8533 47.8446 13.2377C47.1394 13.9853 46.7533 14.9783 46.7682 16.0059C46.7832 17.0335 47.1981 18.0148 47.9248 18.7416C48.6515 19.4683 49.6329 19.8831 50.6605 19.8981C51.6881 19.9131 52.6811 19.527 53.4287 18.8218Z"/>
</symbol>





<symbol id="icon-telegram" viewBox="0 0 53 44">
<path fill-rule="evenodd" clip-rule="evenodd" d="M4.09353 19.3391C18.0521 13.2708 27.3601 9.27022 32.0173 7.33733C45.3147 1.81855 48.0778 0.859874 49.8787 0.828218C50.2748 0.821256 51.1605 0.919207 51.7342 1.3837C52.2186 1.77591 52.3518 2.30572 52.4156 2.67758C52.4794 3.04944 52.5588 3.89653 52.4957 4.55843C51.7751 12.1132 48.6571 30.4467 47.0709 38.9082C46.3997 42.4886 45.078 43.6891 43.7986 43.8066C41.018 44.0619 38.9065 41.973 36.2133 40.2114C31.9991 37.4549 29.6183 35.739 25.5276 33.0492C20.8002 29.9407 23.8648 28.2322 26.559 25.44C27.264 24.7093 39.5155 13.5899 39.7526 12.5812C39.7822 12.4551 39.8098 11.9848 39.5298 11.7365C39.2498 11.4882 38.8366 11.5731 38.5384 11.6407C38.1157 11.7364 31.3834 16.1765 18.3414 24.961C16.4305 26.2704 14.6996 26.9083 13.1488 26.8749C11.4392 26.838 8.15052 25.9103 5.70574 25.1174C2.70712 24.1448 0.323869 23.6305 0.531396 21.9787C0.639489 21.1184 1.82687 20.2385 4.09353 19.3391Z"/>
</symbol>
<symbol id="icon-twitter" viewBox="0 0 44 44">
<path fill-rule="evenodd" clip-rule="evenodd" d="M0.551105 43.8279H4.29866L18.9658 27.146L30.6285 43.8279H43.5188L26.1379 19.0895L42.0973 0.827881H38.2851L24.4256 16.6251L13.3122 0.827881H0.518799L17.3182 24.7764L0.551105 43.8279ZM5.68784 3.63978H11.4707L38.3174 41.1739H32.47L5.68784 3.63978Z"/>
</symbol>



<symbol id="icon-mail" viewBox="0 0 32 32">
<path d="M26.667 0h-21.333c-2.934 0-5.334 2.4-5.334 5.334v21.332c0 2.936 2.4 5.334 5.334 5.334h21.333c2.934 0 5.333-2.398 5.333-5.334v-21.332c0-2.934-2.399-5.334-5.333-5.334zM5.707 27.707l-2.414-2.414 8-8 0.914 0.914-6.5 9.5zM4.793 6.207l0.914-0.914 10.293 8.293 10.293-8.293 0.914 0.914-11.207 13.207-11.207-13.207zM26.293 27.707l-6.5-9.5 0.914-0.914 8 8-2.414 2.414z"></path>
</symbol>



<!-- /////////////////////////////////////////////////end-social -->
<symbol id="icon-chevron-right" viewBox="0 0 20 20">
<path d="M9.163 4.516c0.418 0.408 4.502 4.695 4.502 4.695 0.223 0.219 0.335 0.504 0.335 0.789s-0.112 0.57-0.335 0.787c0 0-4.084 4.289-4.502 4.695-0.418 0.408-1.17 0.436-1.615 0-0.446-0.434-0.481-1.041 0-1.574l3.747-3.908-3.747-3.908c-0.481-0.533-0.446-1.141 0-1.576s1.197-0.409 1.615 0z"></path>
</symbol>
<symbol id="icon-sq-arr-right" viewBox="0 0 24 24">
<path d="M12 22.75C6.07 22.75 1.25 17.93 1.25 12C1.25 6.07 6.07 1.25 12 1.25C12.41 1.25 12.75 1.59 12.75 2C12.75 2.41 12.41 2.75 12 2.75C6.9 2.75 2.75 6.9 2.75 12C2.75 17.1 6.9 21.25 12 21.25C17.1 21.25 21.25 17.1 21.25 12C21.25 11.59 21.59 11.25 22 11.25C22.41 11.25 22.75 11.59 22.75 12C22.75 17.93 17.93 22.75 12 22.75Z"/>
<path d="M12.9999 11.75C12.8099 11.75 12.6199 11.68 12.4699 11.53C12.1799 11.24 12.1799 10.76 12.4699 10.47L20.6699 2.27C20.9599 1.98 21.4399 1.98 21.7299 2.27C22.0199 2.56 22.0199 3.04 21.7299 3.33L13.5299 11.53C13.3799 11.68 13.1899 11.75 12.9999 11.75Z"/>
<path d="M21.9999 7.58C21.5899 7.58 21.2499 7.24 21.2499 6.83V2.75H17.1699C16.7599 2.75 16.4199 2.41 16.4199 2C16.4199 1.59 16.7599 1.25 17.1699 1.25H21.9999C22.4099 1.25 22.7499 1.59 22.7499 2V6.83C22.7499 7.24 22.4099 7.58 21.9999 7.58Z"/>
</symbol>
<symbol id="icon-sun" viewBox="0 0 24 24">
<path d="M12 19.25C8 19.25 4.75 16 4.75 12C4.75 8 8 4.75 12 4.75C16 4.75 19.25 8 19.25 12C19.25 16 16 19.25 12 19.25ZM12 6.25C8.83 6.25 6.25 8.83 6.25 12C6.25 15.17 8.83 17.75 12 17.75C15.17 17.75 17.75 15.17 17.75 12C17.75 8.83 15.17 6.25 12 6.25Z"/>
<path d="M12 22.96C11.45 22.96 11 22.55 11 22V21.92C11 21.37 11.45 20.92 12 20.92C12.55 20.92 13 21.37 13 21.92C13 22.47 12.55 22.96 12 22.96ZM19.14 20.14C18.88 20.14 18.63 20.04 18.43 19.85L18.3 19.72C17.91 19.33 17.91 18.7 18.3 18.31C18.69 17.92 19.32 17.92 19.71 18.31L19.84 18.44C20.23 18.83 20.23 19.46 19.84 19.85C19.65 20.04 19.4 20.14 19.14 20.14ZM4.86 20.14C4.6 20.14 4.35 20.04 4.15 19.85C3.76 19.46 3.76 18.83 4.15 18.44L4.28 18.31C4.67 17.92 5.3 17.92 5.69 18.31C6.08 18.7 6.08 19.33 5.69 19.72L5.56 19.85C5.37 20.04 5.11 20.14 4.86 20.14ZM22 13H21.92C21.37 13 20.92 12.55 20.92 12C20.92 11.45 21.37 11 21.92 11C22.47 11 22.96 11.45 22.96 12C22.96 12.55 22.55 13 22 13ZM2.08 13H2C1.45 13 1 12.55 1 12C1 11.45 1.45 11 2 11C2.55 11 3.04 11.45 3.04 12C3.04 12.55 2.63 13 2.08 13ZM19.01 5.99C18.75 5.99 18.5 5.89 18.3 5.7C17.91 5.31 17.91 4.68 18.3 4.29L18.43 4.16C18.82 3.77 19.45 3.77 19.84 4.16C20.23 4.55 20.23 5.18 19.84 5.57L19.71 5.7C19.52 5.89 19.27 5.99 19.01 5.99ZM4.99 5.99C4.73 5.99 4.48 5.89 4.28 5.7L4.15 5.56C3.76 5.17 3.76 4.54 4.15 4.15C4.54 3.76 5.17 3.76 5.56 4.15L5.69 4.28C6.08 4.67 6.08 5.3 5.69 5.69C5.5 5.89 5.24 5.99 4.99 5.99ZM12 3.04C11.45 3.04 11 2.63 11 2.08V2C11 1.45 11.45 1 12 1C12.55 1 13 1.45 13 2C13 2.55 12.55 3.04 12 3.04Z"/>
</symbol>
<symbol id="icon-moon" viewBox="0 0 24 24">
<path d="M12.4604 22.75C12.2904 22.75 12.1204 22.75 11.9504 22.74C6.35044 22.49 1.67044 17.98 1.28044 12.48C0.940437 7.75999 3.67044 3.34999 8.07044 1.49999C9.32044 0.979992 9.98044 1.37999 10.2604 1.66999C10.5404 1.94999 10.9304 2.59999 10.4104 3.78999C9.95044 4.84999 9.72044 5.97999 9.73044 7.13999C9.75044 11.57 13.4304 15.33 17.9204 15.51C18.5704 15.54 19.2104 15.49 19.8304 15.38C21.1504 15.14 21.7004 15.67 21.9104 16.01C22.1204 16.35 22.3604 17.08 21.5604 18.16C19.4404 21.06 16.0704 22.75 12.4604 22.75ZM2.77044 12.37C3.11044 17.13 7.17044 21.03 12.0104 21.24C15.3004 21.4 18.4204 19.9 20.3404 17.28C20.4904 17.07 20.5604 16.92 20.5904 16.84C20.5004 16.83 20.3404 16.82 20.0904 16.87C19.3604 17 18.6004 17.05 17.8504 17.02C12.5704 16.81 8.25044 12.38 8.22044 7.15999C8.22044 5.77999 8.49044 4.44999 9.04044 3.19999C9.14044 2.97999 9.16044 2.82999 9.17044 2.74999C9.08044 2.74999 8.92044 2.76999 8.66044 2.87999C4.85044 4.47999 2.49044 8.29999 2.77044 12.37Z"/>
</symbol>





</defs>
</svg>
