<svg width="136" height="195" viewBox="0 0 136 195" fill="none" xmlns="http://www.w3.org/2000/svg">
<g clip-path="url(#clip0_49_268)">
<path d="M0.395508 41.9985V100.508C0.395508 139.761 20.5111 176.262 67.5621 194.579C114.609 176.266 134.729 139.765 134.729 100.508V41.9985H0.395508Z" fill="white" stroke="#231F20" stroke-width="1.28027" stroke-miterlimit="10"/>
<path d="M5.13867 46.7124V100.508C5.13867 137.658 23.4108 171.477 67.5622 189.39C111.714 171.477 129.986 137.658 129.986 100.508V46.7124H5.13867Z" fill="black"/>
<path d="M67.5625 2.58447C43.8234 2.60413 20.8517 7.58151 2.6626 16.6399V39.4431C20.8517 30.3847 43.8234 25.4112 67.5625 25.3876C91.2898 25.3876 114.261 30.3454 132.462 39.3802V16.577C114.257 7.5422 91.2898 2.5884 67.5625 2.58447Z" fill="black"/>
<path d="M0.545898 42.8477V15.3423L1.71288 14.7604C20.1551 5.57626 43.5422 0.504521 67.5582 0.484863C91.5664 0.488795 114.949 5.53695 133.404 14.7015L134.574 15.2833V42.7848L131.517 41.2672C113.636 32.3897 90.9215 27.4988 67.5622 27.4948C44.1909 27.5145 21.4764 32.429 3.61169 41.3261L0.549854 42.8516L0.545898 42.8477ZM4.77472 17.945V36.0971C22.7106 27.8408 44.8516 23.3077 67.5582 23.2841C90.257 23.2841 112.398 27.8015 130.346 36.0382V17.8821C112.647 9.36631 90.4152 4.68379 67.5582 4.67986C44.6933 4.69952 22.4574 9.40169 4.77076 17.9411L4.77472 17.945Z" fill="white" stroke="#231F20" stroke-width="1.28027" stroke-miterlimit="10"/>
<path d="M72.3488 144.059C71.973 144.196 71.6249 144.295 71.3163 144.35C71.166 144.377 71.0236 144.393 70.8931 144.397C70.4579 144.409 70.0623 144.369 69.7024 144.302L69.912 165.387H72.9303L72.3488 144.059ZM57.2928 138.873C58.891 140.811 61.1735 142.297 62.7994 142.97C63.1871 143.131 63.5352 143.241 63.8319 143.304C63.9861 143.335 64.1325 143.359 64.2551 143.363C64.6942 143.375 65.0859 143.327 65.4261 143.245C65.8533 143.143 66.2014 142.989 66.4704 142.836C66.7196 142.694 66.9016 142.553 67.0163 142.455C67.0203 142.455 67.0242 142.447 67.0321 142.443C67.0321 142.399 67.0322 142.348 67.0361 142.293C67.044 142.022 67.044 141.625 67.0282 141.177C67.0203 140.968 67.0124 140.748 67.0005 140.524C67.0005 140.461 66.9926 140.402 66.9886 140.339C66.953 139.836 66.9016 139.325 66.8185 138.873C66.7434 138.468 66.6445 138.114 66.5139 137.87C66.1183 137.123 65.4538 136.856 65.1096 136.766C64.9949 136.872 64.8406 137.001 64.6547 137.143C64.3936 137.336 64.0653 137.54 63.6894 137.697C63.282 137.87 62.8152 137.988 62.3207 137.973C60.6632 137.921 58.887 136.946 58.887 135.57C58.887 134.639 59.5556 134.009 60.5485 134.009C60.6395 134.009 60.7265 134.017 60.8175 134.025C61.0628 134.053 61.3041 134.12 61.5335 134.222C61.6403 134.269 61.7471 134.324 61.85 134.379C62.1546 134.544 62.4315 134.733 62.6688 134.91C62.6688 134.434 62.5858 133.813 62.3128 133.227C62.202 132.995 62.0675 132.783 61.9093 132.594C61.6403 132.268 61.3001 132 60.8926 131.8C60.7621 131.737 60.6276 131.674 60.4852 131.623C59.9512 131.434 59.4132 131.336 58.887 131.336C58.0563 131.336 56.0744 131.607 55.6353 134.135C55.3149 135.991 56.3632 137.733 57.3007 138.869L57.2928 138.873ZM63.642 135.7C63.6222 135.822 63.5826 136.03 63.4679 136.195L63.8081 136.467C64.2551 136.18 64.5479 135.869 64.5518 135.861L64.7259 135.669L64.987 135.692C65.0424 135.696 66.2014 135.818 67.0401 136.805C67.0401 136.805 67.0401 136.805 67.0401 136.809L67.0598 56.3254H67.0361V51.6822H67.0203C66.9807 51.9574 63.0446 79.5846 62.3326 92.1146C61.6324 104.432 61.1419 123.842 60.9203 130.691C61.312 130.841 61.6482 131.025 61.9449 131.238C63.6538 132.464 63.8358 134.591 63.642 135.7ZM64.2274 144.397C64.0969 144.397 63.9545 144.373 63.8042 144.35C63.4956 144.298 63.1475 144.196 62.7717 144.059L62.1902 165.387H65.2085L65.4182 144.302C65.0582 144.369 64.6626 144.409 64.2274 144.397ZM66.4625 143.988L66.2489 165.387H68.8716L68.658 143.988C68.4523 143.901 68.2664 143.807 68.1042 143.713C68.0884 143.705 68.0765 143.697 68.0607 143.685C67.8589 143.567 67.6928 143.449 67.5622 143.347C67.4317 143.449 67.2655 143.567 67.0638 143.689C67.048 143.697 67.0361 143.705 67.0203 143.713C66.8581 143.807 66.6722 143.901 66.4665 143.988H66.4625ZM73.2191 132.598C73.0609 132.791 72.9224 132.999 72.8156 133.231C72.5387 133.817 72.4596 134.438 72.4596 134.914C72.693 134.737 72.9739 134.548 73.2785 134.383C73.3813 134.328 73.4842 134.277 73.5949 134.226C73.8244 134.124 74.0657 134.057 74.3109 134.029C74.4019 134.017 74.4929 134.013 74.5799 134.013C75.5729 134.013 76.2414 134.642 76.2414 135.574C76.2414 136.95 74.4652 137.925 72.8077 137.976C72.3093 137.988 71.8464 137.874 71.439 137.701C71.0632 137.544 70.7348 137.34 70.4737 137.147C70.2839 137.009 70.1296 136.876 70.0188 136.769C69.6747 136.86 69.0061 137.127 68.6145 137.874C68.484 138.118 68.3851 138.472 68.3099 138.877C68.2268 139.325 68.1714 139.84 68.1398 140.343C68.1358 140.406 68.1319 140.469 68.1279 140.528C68.1161 140.756 68.1042 140.98 68.1002 141.193C68.0884 141.641 68.0884 142.03 68.0963 142.301C68.0963 142.352 68.0963 142.403 68.1002 142.447C68.1042 142.447 68.1081 142.455 68.1161 142.458C68.2268 142.557 68.4088 142.694 68.662 142.836C68.931 142.989 69.2791 143.143 69.7063 143.245C70.0149 143.319 70.363 143.367 70.7507 143.367C70.7942 143.367 70.8377 143.367 70.8812 143.367C71.0038 143.367 71.1502 143.339 71.3045 143.308C71.6012 143.245 71.9493 143.135 72.337 142.974C73.9668 142.301 76.2454 140.819 77.8435 138.877C78.7811 137.741 79.8294 135.999 79.5089 134.143C79.0698 131.619 77.088 131.344 76.2572 131.344C75.7311 131.344 75.1931 131.442 74.6591 131.631C74.5166 131.682 74.3821 131.741 74.2516 131.808C73.8441 132.008 73.5039 132.276 73.2349 132.602L73.2191 132.598ZM67.0638 140.497V140.528C67.0638 140.528 67.0638 140.504 67.0638 140.497ZM61.1419 166.787C60.7898 167.007 60.5524 167.397 60.5524 167.841V168.313C60.5524 168.423 60.5722 168.525 60.596 168.627C60.6909 168.985 60.9362 169.276 61.2605 169.433C61.4267 169.512 61.6087 169.563 61.8065 169.563H73.2982C73.496 169.563 73.678 169.516 73.8441 169.433C74.1725 169.276 74.4177 168.981 74.5087 168.627C74.5364 168.525 74.5522 168.423 74.5522 168.313V167.841C74.5522 167.397 74.3149 167.007 73.9628 166.787C73.769 166.665 73.5395 166.591 73.2943 166.591H61.8025C61.5572 166.591 61.3278 166.665 61.134 166.787H61.1419ZM73.5554 170.986C73.4406 170.907 73.318 170.837 73.1954 170.762H61.9291C61.8065 170.837 61.6838 170.907 61.5691 170.986C59.4962 172.401 58.262 174.709 58.349 177.013C58.3846 177.941 58.6259 178.763 59.0611 179.459C59.6268 180.359 60.5129 180.984 61.49 181.177C61.6878 181.216 62.119 181.283 62.6451 181.271H62.7598C63.46 181.271 64.2235 181.063 64.9158 180.681C65.7386 180.229 66.3834 179.592 66.7315 178.885C67.0519 178.24 67.0796 177.626 66.8146 177.147C66.506 176.592 65.8296 176.278 64.9514 176.278C64.2551 176.278 63.4877 176.486 62.7915 176.868C62.6728 176.935 62.5462 177.009 62.3959 177.111L61.5098 177.709L61.5612 176.644C61.6166 175.527 62.3286 174.34 63.3809 173.624C63.5589 173.502 63.7448 173.396 63.9387 173.298C64.7378 172.889 65.6792 172.661 66.7157 172.618H68.3613C69.6588 172.665 70.8179 173.007 71.7198 173.624C71.89 173.738 72.0482 173.868 72.1985 174.006C72.9857 174.721 73.496 175.708 73.5395 176.648L73.591 177.713L72.7049 177.115C72.5545 177.017 72.4319 176.938 72.3093 176.872C71.617 176.49 70.8496 176.282 70.1494 176.282C69.2751 176.282 68.5947 176.6 68.2862 177.151C67.7126 178.185 68.5828 179.801 70.1889 180.685C70.8812 181.067 71.6486 181.275 72.3449 181.275H72.4359C72.5031 181.275 72.5466 181.275 72.5862 181.275C73.0569 181.275 73.4367 181.216 73.6187 181.181C74.5958 180.988 75.4819 180.363 76.0476 179.463C76.4827 178.767 76.724 177.945 76.7596 177.017C76.8466 174.713 75.6164 172.405 73.5395 170.99L73.5554 170.986ZM68.0844 136.805C68.9231 135.818 70.0821 135.696 70.1375 135.692L70.3986 135.669L70.5726 135.861C70.5726 135.861 70.8693 136.18 71.3163 136.467L71.6566 136.195C71.5418 136.03 71.5023 135.822 71.4825 135.7C71.2887 134.591 71.4706 132.464 73.1796 131.238C73.4723 131.025 73.8125 130.841 74.2041 130.691C73.9786 123.842 73.4881 104.432 72.7919 92.1146C72.0798 79.5846 68.1437 51.9574 68.1042 51.6782H68.0686V56.3254L68.0884 136.809C68.0884 136.809 68.0884 136.809 68.0884 136.805H68.0844Z" fill="white"/>
<path d="M35.6861 81.3419L36.0145 82.9892C36.0382 83.115 38.5264 95.8455 39.2583 119.113C40.8564 117.87 42.1381 116.655 42.5654 114.45C42.5654 114.45 42.4902 97.6501 41.7426 93.0108C40.9949 88.3716 35.6861 75.7197 35.6861 75.7197C35.6861 75.7197 30.3774 88.3716 29.6297 93.0108C28.882 97.6501 28.8069 114.45 28.8069 114.45C29.2381 116.655 30.5198 117.87 32.1179 119.113C32.8577 95.8376 35.3301 83.1347 35.3578 82.9853L35.6861 81.338V81.3419Z" fill="white"/>
<path d="M32.7469 120.457C32.7113 121.64 32.6836 122.855 32.6599 124.09L32.7469 120.457Z" fill="white"/>
<path d="M35.6859 131.368H32.5885C32.5885 132.012 32.5845 132.665 32.5806 133.322H38.7873C38.7873 132.669 38.7873 132.02 38.7794 131.368H35.682H35.6859Z" fill="white"/>
<path d="M39.0803 124.872C40.0732 124.915 41.0701 125.151 41.9958 125.564L41.8811 124.66C41.8494 124.408 41.8138 124.145 41.7624 123.905C41.4736 122.623 40.5756 121.64 39.7528 120.823C39.4561 120.528 39.1397 120.225 38.7955 120.025L38.6135 119.922L38.7322 124.856L39.0843 124.872H39.0803Z" fill="white"/>
<path d="M32.5886 130.027H38.7835C38.7756 128.431 38.7598 126.842 38.7321 125.274L38.7242 124.857L38.6055 119.923L38.5976 119.687C38.0438 101.295 36.3902 89.4256 35.6821 85.0576C34.9661 89.4885 33.2809 101.621 32.7469 120.462L32.6598 124.094C32.6242 126.009 32.5965 127.987 32.5886 130.027Z" fill="white"/>
<path d="M99.4388 81.3419L99.1105 82.9892C99.0867 83.115 96.5985 95.8455 95.8667 119.113C94.2685 117.87 92.9868 116.655 92.5596 114.45C92.5596 114.45 92.6347 97.6501 93.3824 93.0108C94.13 88.3716 99.4388 75.7197 99.4388 75.7197C99.4388 75.7197 104.748 88.3716 105.495 93.0108C106.243 97.6501 106.318 114.45 106.318 114.45C105.887 116.655 104.605 117.87 103.007 119.113C102.267 95.8376 99.7948 83.1347 99.7672 82.9853L99.4388 81.338V81.3419Z" fill="white"/>
<path d="M102.374 120.457C102.409 121.64 102.437 122.855 102.461 124.09L102.374 120.457Z" fill="white"/>
<path d="M99.4388 131.368H102.536C102.536 132.012 102.54 132.665 102.544 133.322H96.3374C96.3374 132.669 96.3374 132.02 96.3453 131.368H99.4428H99.4388Z" fill="white"/>
<path d="M96.0444 124.872C95.0515 124.915 94.0546 125.151 93.1289 125.564L93.2436 124.66C93.2753 124.408 93.3109 124.145 93.3623 123.905C93.6511 122.623 94.5491 121.64 95.3719 120.823C95.6686 120.528 95.985 120.225 96.3292 120.025L96.5112 119.922L96.3925 124.856L96.0404 124.872H96.0444Z" fill="white"/>
<path d="M102.536 130.027H99.4383H96.3408C96.3487 128.431 96.3646 126.842 96.3922 125.274L96.4002 124.857L96.5188 119.923L96.5267 119.687C97.0806 101.295 98.7341 89.4256 99.4422 85.0576C100.158 89.4885 101.843 101.621 102.377 120.462L102.464 124.094C102.5 126.009 102.528 127.987 102.536 130.027Z" fill="white"/>
<path d="M29.4039 14.3474C29.4039 14.8231 29.036 15.2792 28.5613 15.4011C23.5097 16.671 18.5213 18.1925 13.624 19.9617C13.1572 20.1308 12.8367 20.6143 12.8367 21.0901C12.8367 21.5658 13.1572 21.7781 13.624 21.609C18.5213 19.8398 23.5097 18.3144 28.5613 17.0484C29.036 16.9305 29.4039 17.2804 29.4039 17.6814C29.4039 20.3785 29.4039 21.727 29.4039 24.4201C29.4039 24.8958 29.036 25.3165 28.5613 25.4345C22.3743 26.9874 16.2863 28.9257 10.3406 31.2257C9.87776 31.4065 9.52173 31.2139 9.52173 30.7382C9.52173 30.0659 9.52173 29.7278 9.52173 29.0515C9.52173 28.6112 9.87776 28.0686 10.3406 27.8917C15.2063 26.0085 20.163 24.3729 25.1949 22.9851C25.6696 22.8553 25.9979 22.3993 25.9979 21.9236C25.9979 21.4478 25.6696 21.2041 25.1949 21.3378C20.163 22.7217 15.2063 24.3611 10.3406 26.2444C9.87776 26.4252 9.52173 26.1972 9.52173 25.7215C9.52173 23.0244 9.52173 21.6759 9.52173 18.9827C9.52173 18.5817 9.87776 17.9998 10.3406 17.8229C16.2863 15.5229 22.3743 13.5886 28.5613 12.0317C29.036 11.9138 29.4039 12.2597 29.4039 12.6647V14.3513V14.3474Z" fill="white"/>
<path d="M33.7794 10.8131C34.2581 10.7109 34.6299 10.9979 34.6299 11.4736C34.6299 15.3816 34.6299 19.2896 34.6299 23.1936C34.6299 23.634 34.262 24.1136 33.7794 24.2159C33.099 24.3613 32.7628 24.436 32.0863 24.5894C31.6432 24.6876 31.2397 24.381 31.2397 23.9406C31.2397 20.0327 31.2397 16.1247 31.2397 12.2206C31.2397 11.7449 31.6432 11.2849 32.0863 11.1827C32.7628 11.0293 33.103 10.9546 33.7794 10.8092V10.8131Z" fill="white"/>
<path d="M39.8833 18.8572C39.8833 19.2975 40.2551 19.6357 40.7378 19.5531C44.6936 18.8887 48.6732 18.3776 52.6686 18.0237C53.1552 17.9805 53.531 17.548 53.531 17.1076C53.531 16.6319 53.1552 16.2977 52.6686 16.341C50.6195 16.5218 49.5949 16.6319 47.5498 16.8835C47.0632 16.9425 46.6913 16.5887 46.6913 16.1483V14.4617C46.6913 13.986 47.0632 13.5692 47.5498 13.5103C50.9676 13.0896 52.6805 12.9284 56.1142 12.7003C56.6008 12.6689 56.9766 13.0109 56.9766 13.4867V20.19C56.9766 20.6303 56.6008 21.055 56.1142 21.0864C49.8086 21.5071 43.5346 22.3131 37.3278 23.4965C36.8452 23.5869 36.4773 23.2566 36.4773 22.8202C36.4773 18.9122 36.4773 15.0043 36.4773 11.1002C36.4773 10.6245 36.8452 10.1841 37.3278 10.0937C43.5346 8.9103 49.8086 8.10432 56.1142 7.68365C56.6008 7.65219 56.9766 7.99424 56.9766 8.46996V10.1173C56.9766 10.5576 56.6008 10.9822 56.1142 11.0137C50.9637 11.3597 45.829 11.9573 40.7378 12.8144C40.2551 12.8969 39.8833 13.3255 39.8833 13.8012V18.8572Z" fill="white"/>
<path d="M75.9921 8.46578C75.9921 8.06476 76.4431 7.65194 76.9297 7.6834C77.6022 7.73058 77.9424 7.75417 78.6149 7.80528C79.1014 7.84459 79.4772 8.31245 79.4772 8.7174V20.4768C79.4772 20.9525 79.1014 21.2513 78.6149 21.212C77.9424 21.1609 77.6022 21.1333 76.9297 21.0901C76.4431 21.0586 76.095 20.9643 75.9921 20.5554C75.9328 20.3116 75.731 19.7337 75.2801 19.4899C71.2728 17.1231 67.1943 14.8782 63.0485 12.7591C62.5976 12.5507 62.3365 12.704 62.3365 13.1797V19.9932C62.3365 20.4689 61.8855 20.811 61.3989 20.8267C60.7225 20.8503 60.3862 20.8621 59.7098 20.8896C59.2232 20.9092 58.8474 20.5986 58.8474 20.1229C58.8474 16.2031 58.8474 12.2833 58.8474 8.36356C58.8474 7.96254 59.2232 7.50254 59.7098 7.48289C60.3862 7.45536 60.7225 7.43964 61.3989 7.41998C61.8855 7.40425 62.1426 7.43178 62.3365 7.97827C62.4275 8.23775 62.5976 8.66629 63.0485 8.91398C67.1943 11.0449 71.2728 13.3016 75.2801 15.6802C75.731 15.8886 75.9921 15.7235 75.9921 15.2831V8.46971V8.46578Z" fill="white"/>
<path d="M98.3391 11.4657C98.3391 11.0647 98.7822 10.7148 99.2608 10.817C99.9254 10.9585 100.258 11.0332 100.918 11.1826C101.397 11.2927 101.765 11.8156 101.765 12.2206C101.765 16.1404 101.765 20.0602 101.765 23.9799C101.765 24.4557 101.397 24.6994 100.918 24.5933C94.7511 23.1936 88.4969 22.1754 82.2031 21.5345C81.7166 21.4834 81.3447 21.1217 81.3447 20.642V8.88267C81.3447 8.48165 81.7205 8.0767 82.2031 8.12388C82.8756 8.19071 83.2119 8.2261 83.8844 8.30473C84.371 8.35977 84.818 8.85122 84.818 9.25617V17.6462C84.818 18.1219 85.1542 18.5268 85.6368 18.5897C89.6204 19.0851 93.5881 19.7299 97.5203 20.532C97.9989 20.6302 98.3312 20.3314 98.3312 19.8557C98.3312 16.5021 98.3312 14.8233 98.3312 11.4657H98.3391Z" fill="white"/>
<path d="M119.558 17.1313C119.918 17.0408 120.595 17.033 121.061 17.2099C121.702 17.4497 122.023 17.5716 122.664 17.8193C123.126 18.0001 123.482 18.5781 123.482 18.9791C123.482 22.8989 123.482 26.8187 123.482 30.7385C123.482 31.2142 123.126 31.4029 122.664 31.226C122.023 30.9783 121.702 30.8564 121.061 30.6166C120.599 30.4436 120.167 29.9561 120.167 29.4804C120.167 26.6654 120.167 25.2618 120.167 22.4468C120.167 21.971 119.918 21.6958 119.487 21.7234C117.426 22.1794 116.39 22.4232 114.309 22.9539C113.984 23.0326 113.26 22.8753 112.936 22.5175C110.851 20.7247 109.803 19.8441 107.702 18.126C107.263 17.7878 107.01 17.9372 107.01 18.3776C107.01 21.1454 107.01 22.5333 107.01 25.3011C107.01 25.7768 106.571 25.9891 106.096 25.8633C105.44 25.6903 105.107 25.6038 104.451 25.4387C103.976 25.3208 103.608 24.9001 103.608 24.4244C103.608 20.5046 103.608 16.5848 103.608 12.665C103.608 12.264 103.976 11.9141 104.451 12.032C105.111 12.1971 105.44 12.2836 106.096 12.4566C106.571 12.5824 107.267 13.0267 107.631 13.3452C109.704 15.3778 110.737 16.4118 112.794 18.5191C113.158 18.8887 113.806 19.0931 114.17 18.9555C116.338 18.1889 117.418 17.8232 119.566 17.1391L119.558 17.1313Z" fill="white"/>
</g>
<defs>
<clipPath id="clip0_49_268">
<rect width="135.12" height="194.908" fill="white" transform="translate(0 0.0917969)"/>
</clipPath>
</defs>
</svg>
